<?xml version="1.0" standalone="no"?>
<!DOCTYPE svg PUBLIC "-//W3C//DTD SVG 1.1//EN" "http://www.w3.org/Graphics/SVG/1.1/DTD/svg11.dtd">
<svg version="1.1" xmlns="http://www.w3.org/2000/svg" viewBox="0 0 298.88076289605306 161.83891111566118" width="298.88076289605306" height="161.83891111566118"><!-- svg-source:excalidraw --><metadata></metadata><defs><style class="style-fonts">
      </style></defs><rect x="0" y="0" width="298.88076289605306" height="161.83891111566118" fill="#ffffff"></rect><g stroke-linecap="round" transform="translate(230.87971624080274 92.3958369657339) rotate(0 29.000523327625615 27.945959848695566)"><path d="M28.51 0.11 C34.19 0.02, 42.39 3.93, 47.1 7.69 C51.8 11.44, 55.45 16.92, 56.73 22.64 C58.01 28.35, 57.9 36.52, 54.78 41.96 C51.67 47.41, 44.06 53.32, 38.03 55.28 C32.01 57.24, 24.23 55.87, 18.62 53.7 C13 51.54, 7.27 47.45, 4.36 42.29 C1.45 37.14, -0.02 28.72, 1.16 22.77 C2.34 16.83, 6.04 10.42, 11.43 6.59 C16.82 2.76, 29.3 0.78, 33.48 -0.2 C37.67 -1.19, 36.79 -0.02, 36.56 0.66 M34.88 -0.35 C40.66 0.4, 47.21 6.12, 51.12 11.01 C55.04 15.91, 58.28 22.93, 58.35 29.01 C58.43 35.1, 56 43.2, 51.57 47.54 C47.13 51.89, 38.18 54.4, 31.73 55.08 C25.27 55.77, 17.91 54.95, 12.81 51.66 C7.71 48.36, 2.8 41.03, 1.13 35.33 C-0.55 29.63, 0.27 22.69, 2.75 17.44 C5.23 12.19, 10.74 6.6, 16.02 3.82 C21.29 1.04, 31.46 1.09, 34.4 0.74 C37.34 0.38, 33.75 1.05, 33.67 1.67" stroke="none" stroke-width="0" fill="#b2f2bb"></path><path d="M28.45 -0.56 C34.33 -1.17, 41.88 1.84, 46.64 5.59 C51.41 9.34, 55.82 15.87, 57.03 21.94 C58.24 28.02, 56.94 36.7, 53.91 42.02 C50.88 47.34, 44.71 51.71, 38.85 53.88 C32.99 56.05, 24.52 56.85, 18.75 55.04 C12.98 53.24, 7.34 48.18, 4.23 43.05 C1.12 37.92, -0.8 30.27, 0.09 24.28 C0.98 18.29, 3.93 10.99, 9.57 7.12 C15.21 3.25, 28.83 1.77, 33.92 1.07 C39.02 0.38, 40.18 2.47, 40.14 2.93 M30.32 0.72 C35.99 0.71, 42.44 4.64, 47.08 8.71 C51.72 12.79, 56.99 19.34, 58.15 25.19 C59.31 31.04, 57.51 38.91, 54.04 43.81 C50.57 48.7, 43.25 52.71, 37.34 54.57 C31.42 56.42, 23.97 57.37, 18.52 54.96 C13.08 52.55, 7.63 45.65, 4.67 40.11 C1.71 34.57, -0.24 27.27, 0.77 21.71 C1.78 16.15, 5.79 10.3, 10.73 6.76 C15.67 3.22, 27.23 1.32, 30.4 0.47 C33.57 -0.37, 29.85 1.32, 29.75 1.7" stroke="#1e1e1e" stroke-width="2" fill="none"></path></g><g stroke-linecap="round" transform="translate(253.7140724798428 113.02989060814434) rotate(0 7.500038146972656 7.749996185302734)"><path d="M7.26 -0.4 C8.93 -0.55, 11.67 0.57, 12.91 1.82 C14.14 3.07, 14.5 5.46, 14.65 7.09 C14.81 8.72, 14.57 10.23, 13.83 11.62 C13.09 13.01, 11.66 14.89, 10.2 15.44 C8.74 16, 6.55 15.62, 5.07 14.97 C3.58 14.33, 2.06 13.08, 1.3 11.58 C0.54 10.08, 0.2 7.68, 0.51 5.97 C0.81 4.26, 1.93 2.23, 3.13 1.31 C4.33 0.39, 6.88 0.66, 7.73 0.45 C8.57 0.24, 8.15 0.01, 8.21 0.05 M6.46 0.09 C8.11 -0.22, 10.61 0.67, 11.86 1.48 C13.12 2.28, 13.6 3.39, 13.98 4.89 C14.37 6.4, 14.66 9, 14.17 10.51 C13.68 12.02, 12.35 13.12, 11.06 13.93 C9.77 14.75, 7.94 15.57, 6.42 15.41 C4.9 15.25, 3.1 14.26, 1.97 12.98 C0.83 11.7, -0.24 9.4, -0.38 7.73 C-0.52 6.05, 0.06 4.13, 1.12 2.96 C2.18 1.78, 5.17 1.01, 5.97 0.67 C6.78 0.33, 5.98 0.76, 5.94 0.91" stroke="none" stroke-width="0" fill="#1e1e1e"></path><path d="M6.24 -0.25 C7.75 -0.47, 9.89 0.53, 11.24 1.45 C12.59 2.37, 13.88 3.69, 14.35 5.28 C14.82 6.87, 14.59 9.37, 14.04 10.98 C13.49 12.59, 12.43 14.16, 11.06 14.94 C9.69 15.72, 7.42 16.05, 5.81 15.67 C4.2 15.29, 2.38 13.96, 1.4 12.65 C0.41 11.34, -0.24 9.44, -0.09 7.8 C0.07 6.16, 1.18 4.05, 2.33 2.82 C3.48 1.58, 6.03 0.82, 6.84 0.38 C7.64 -0.06, 7.1 0.1, 7.14 0.18 M8.58 0.55 C10.27 0.6, 12.19 1.78, 13.22 2.9 C14.24 4.03, 14.65 5.63, 14.74 7.3 C14.83 8.98, 14.58 11.7, 13.77 12.96 C12.96 14.22, 11.49 14.61, 9.9 14.88 C8.3 15.14, 5.78 15.13, 4.19 14.53 C2.59 13.93, 0.97 12.74, 0.35 11.27 C-0.28 9.81, -0.03 7.32, 0.44 5.75 C0.92 4.17, 1.89 2.79, 3.19 1.83 C4.5 0.88, 7.4 0.31, 8.27 0.01 C9.15 -0.29, 8.44 -0.19, 8.45 0.02" stroke="#1e1e1e" stroke-width="2" fill="none"></path></g><g stroke-linecap="round" transform="translate(37.418740966171754 95.94699141827004) rotate(0 29.000523327625615 27.945959848695566)"><path d="M25.09 -0.14 C31.09 -1.28, 39.86 1.77, 45.23 5.06 C50.6 8.34, 55.42 13.92, 57.31 19.57 C59.2 25.21, 58.95 33.46, 56.58 38.92 C54.21 44.37, 48.65 49.69, 43.11 52.29 C37.57 54.89, 29.54 55.57, 23.31 54.5 C17.08 53.42, 9.54 50.52, 5.73 45.85 C1.92 41.18, 0.05 32.64, 0.46 26.48 C0.86 20.32, 3.42 13.39, 8.16 8.89 C12.9 4.38, 24.61 0.74, 28.91 -0.54 C33.2 -1.82, 33.83 0.53, 33.93 1.21 M35.94 1.07 C41.89 2.13, 48.84 5.98, 52.59 10.91 C56.35 15.83, 58.91 24.35, 58.46 30.61 C58.02 36.86, 54.56 44.2, 49.92 48.42 C45.27 52.63, 37.12 55.42, 30.62 55.9 C24.11 56.37, 15.92 54.53, 10.88 51.25 C5.83 47.96, 1.83 41.82, 0.36 36.16 C-1.11 30.51, -0.46 22.68, 2.07 17.31 C4.6 11.94, 9.99 6.77, 15.56 3.93 C21.13 1.09, 32.24 0.57, 35.48 0.29 C38.73 0.02, 34.75 1.61, 35.03 2.29" stroke="none" stroke-width="0" fill="#b2f2bb"></path><path d="M35.97 1.7 C41.86 3.03, 49.41 7.91, 53.01 12.85 C56.61 17.8, 58.28 25.48, 57.6 31.36 C56.91 37.25, 53.33 43.99, 48.9 48.17 C44.47 52.35, 37.03 55.95, 31.04 56.45 C25.04 56.95, 17.92 54.64, 12.92 51.17 C7.92 47.69, 2.7 41.46, 1.03 35.58 C-0.63 29.7, 0.18 21.39, 2.93 15.9 C5.68 10.4, 11.48 5.14, 17.53 2.6 C23.59 0.07, 35.29 0.6, 39.28 0.69 C43.27 0.79, 41.63 2.54, 41.5 3.19 M38.44 2.51 C44.47 3.78, 51.68 7.44, 54.91 12.27 C58.14 17.1, 59 25.28, 57.84 31.51 C56.67 37.73, 52.5 45.46, 47.91 49.6 C43.32 53.74, 36.49 56.07, 30.3 56.32 C24.12 56.58, 15.78 54.88, 10.8 51.11 C5.82 47.34, 1.65 39.82, 0.44 33.71 C-0.77 27.61, 0.6 19.62, 3.55 14.48 C6.5 9.35, 12.46 5.31, 18.14 2.91 C23.81 0.51, 34.32 0.45, 37.61 0.07 C40.91 -0.31, 37.78 0.21, 37.91 0.65" stroke="#1e1e1e" stroke-width="2" fill="none"></path></g><g stroke-linecap="round" transform="translate(10 10) rotate(0 57.473772458618896 12.391134705952936)"><path d="M6.2 0 C29.42 1.72, 58.24 1.54, 108.75 0 C114.35 -1.83, 115.18 -1.22, 114.95 6.2 C113.8 12.26, 112.89 16.48, 114.95 18.59 C112.14 21.04, 109.37 26.61, 108.75 24.78 C67.92 21.71, 27.88 21.17, 6.2 24.78 C0.15 25.26, 3.25 19.76, 0 18.59 C-0.41 15.61, 2.22 12.85, 0 6.2 C-0.37 1.62, -0.87 3.42, 6.2 0" stroke="none" stroke-width="0" fill="#ced4da"></path><path d="M6.2 0 C29.19 -0.86, 52.77 0.78, 108.75 0 M6.2 0 C38.43 -0.12, 69.56 0.09, 108.75 0 M108.75 0 C114.16 1.62, 115.95 2.31, 114.95 6.2 M108.75 0 C114.47 0.18, 115.02 3.23, 114.95 6.2 M114.95 6.2 C116.2 10.39, 115.83 14.33, 114.95 18.59 M114.95 6.2 C115.12 11.16, 115.46 14.84, 114.95 18.59 M114.95 18.59 C115.1 22.33, 112.18 26, 108.75 24.78 M114.95 18.59 C115.33 23.41, 112.3 26.5, 108.75 24.78 M108.75 24.78 C78.86 24.96, 51.14 24.49, 6.2 24.78 M108.75 24.78 C87.69 23.04, 63.98 24.79, 6.2 24.78 M6.2 24.78 C1.54 23.71, 1.91 22.48, 0 18.59 M6.2 24.78 C1.19 26.29, 1.57 24.22, 0 18.59 M0 18.59 C0.78 14.28, 0.62 10.16, 0 6.2 M0 18.59 C-0.27 15.54, -0.23 11.4, 0 6.2 M0 6.2 C-1.08 2.29, 2.57 -0.05, 6.2 0 M0 6.2 C1.69 3.29, 0.26 -0.85, 6.2 0" stroke="#1e1e1e" stroke-width="2" fill="none"></path></g><g stroke-linecap="round"><g transform="translate(67.37377245861899 39.78226941190587) rotate(0 -0.5272540824107637 25.48505808518712)"><path d="M0 0 C0 -0.03, 0 -0.07, 0 -0.1 M0 0 C0 -0.04, 0 -0.07, 0 -0.1 M0 -0.1 C0.22 0.77, -1.94 1.73, -0.1 -0.19 M0 -0.1 C0.64 1.37, 0.76 1.24, -0.1 -0.19 M-0.1 -0.19 C-0.18 -0.15, -0.35 -0.19, -0.53 -0.19 M-0.1 -0.19 C-0.21 -0.19, -0.34 -0.18, -0.53 -0.19 M-0.53 -0.19 C-1.15 -0.31, -0.82 -0.53, -1.05 0.33 M-0.53 -0.19 C-0.82 1.13, -1.53 -1.99, -1.05 0.33 M-1.05 0.33 C-3.25 14.53, 0.23 31.43, -1.05 51.16 M-1.05 0.33 C-0.95 13.51, 0.11 26.03, -1.05 51.16" stroke="#1e1e1e" stroke-width="2" fill="none"></path></g><g transform="translate(67.37377245861899 39.78226941190587) rotate(0 -0.5272540824107637 25.48505808518712)"><path d="M-8.96 27.45 C-6.88 36.65, -3.55 46.18, -1.05 51.16 M-8.96 27.45 C-5.14 36.55, -2.78 46.02, -1.05 51.16" stroke="#1e1e1e" stroke-width="2" fill="none"></path></g><g transform="translate(67.37377245861899 39.78226941190587) rotate(0 -0.5272540824107637 25.48505808518712)"><path d="M8.13 27.91 C3.9 37.06, 0.92 46.42, -1.05 51.16 M8.13 27.91 C5.44 36.87, 1.28 46.15, -1.05 51.16" stroke="#1e1e1e" stroke-width="2" fill="none"></path></g></g><mask></mask></svg>