<?xml version="1.0" standalone="no"?>
<!DOCTYPE svg PUBLIC "-//W3C//DTD SVG 1.1//EN" "http://www.w3.org/Graphics/SVG/1.1/DTD/svg11.dtd">
<svg version="1.1" xmlns="http://www.w3.org/2000/svg" viewBox="0 0 886.593559160403 802.4989184739279" width="886.593559160403" height="802.4989184739279"><!-- svg-source:excalidraw --><metadata></metadata><defs><style class="style-fonts">
      </style></defs><rect x="0" y="0" width="886.593559160403" height="802.4989184739279" fill="#ffffff"></rect><g stroke-linecap="round" transform="translate(326.12193801082503 341.6609029353058) rotate(0 29.00052332762516 27.945959848695566)"><path d="M35.62 1.41 C41.53 2.52, 48.55 7.14, 52.3 11.91 C56.05 16.69, 58.53 24.24, 58.1 30.04 C57.68 35.83, 54.09 42.24, 49.76 46.66 C45.43 51.08, 38.39 55.67, 32.13 56.56 C25.87 57.45, 17.25 55.54, 12.2 52.01 C7.14 48.48, 3.3 41.4, 1.82 35.37 C0.33 29.34, 1.01 21.26, 3.28 15.85 C5.55 10.44, 9.2 4.96, 15.44 2.89 C21.68 0.83, 35.81 3.06, 40.73 3.47 C45.64 3.88, 44.91 5.12, 44.93 5.35 M17.73 1.38 C23.09 -1.49, 30.74 -0.11, 36.54 1.55 C42.34 3.22, 49.14 6.55, 52.54 11.35 C55.94 16.16, 57.36 24.43, 56.93 30.38 C56.51 36.33, 54.26 42.58, 50.01 47.06 C45.77 51.54, 37.59 56.57, 31.47 57.24 C25.34 57.91, 18.19 54.71, 13.23 51.07 C8.27 47.42, 3.54 41.27, 1.72 35.35 C-0.1 29.43, -0.4 20.79, 2.31 15.55 C5.02 10.32, 15.38 5.91, 17.98 3.94 C20.58 1.96, 17.66 3.38, 17.89 3.69" stroke="none" stroke-width="0" fill="#b2f2bb"></path><path d="M33.26 1.41 C39.08 2.18, 46.2 6.13, 50.43 10.51 C54.67 14.89, 58.58 21.64, 58.65 27.69 C58.71 33.74, 54.93 42.2, 50.81 46.79 C46.68 51.38, 39.84 54.4, 33.89 55.22 C27.94 56.03, 20.61 54.71, 15.12 51.68 C9.63 48.65, 3.05 42.76, 0.94 37.05 C-1.17 31.33, 0.05 22.97, 2.46 17.39 C4.87 11.81, 9.17 6.04, 15.4 3.55 C21.63 1.06, 34.81 2.11, 39.84 2.46 C44.88 2.81, 45.69 5.28, 45.61 5.63 M17 3.14 C22.23 0.13, 30.51 -0.02, 36.37 1.35 C42.23 2.72, 48.4 6.82, 52.17 11.36 C55.94 15.91, 59.09 22.84, 58.99 28.62 C58.89 34.4, 55.85 41.72, 51.56 46.05 C47.26 50.38, 39.5 53.75, 33.22 54.61 C26.94 55.46, 19.2 54.1, 13.9 51.2 C8.59 48.3, 3.23 43.14, 1.38 37.2 C-0.48 31.26, 0.16 21.41, 2.77 15.55 C5.39 9.69, 14.93 3.96, 17.07 2.02 C19.22 0.08, 15.57 3.27, 15.62 3.91" stroke="#1e1e1e" stroke-width="2" fill="none"></path></g><g stroke-linecap="round" transform="translate(226.60142757709036 95.94699141827732) rotate(0 29.00052332762516 27.945959848695566)"><path d="M27.78 0.34 C33.78 -0.3, 42.12 2.47, 47.04 5.98 C51.97 9.49, 56.04 15.39, 57.33 21.38 C58.62 27.36, 57.79 36.32, 54.8 41.89 C51.8 47.46, 45.02 52.74, 39.35 54.81 C33.67 56.89, 26.45 56.45, 20.75 54.33 C15.05 52.21, 8.7 47.13, 5.13 42.1 C1.56 37.07, -1.35 29.82, -0.65 24.15 C0.04 18.49, 4.25 12.16, 9.28 8.11 C14.31 4.07, 25.64 1.15, 29.53 -0.12 C33.42 -1.39, 32.75 0.11, 32.64 0.49 M41.87 3.48 C47.12 5.79, 53 10.74, 55.34 16.12 C57.68 21.51, 57.51 30.03, 55.89 35.77 C54.27 41.51, 50.64 46.97, 45.62 50.54 C40.6 54.11, 31.9 57.69, 25.78 57.19 C19.66 56.68, 13.08 52.04, 8.91 47.5 C4.75 42.96, 1.41 36.06, 0.79 29.95 C0.17 23.83, 1.44 15.47, 5.2 10.83 C8.96 6.19, 17.08 3.35, 23.34 2.11 C29.6 0.88, 39.46 3.1, 42.73 3.42 C46 3.73, 43.2 3.68, 42.98 4.02" stroke="none" stroke-width="0" fill="#b2f2bb"></path><path d="M24.58 0.67 C30.65 -0.6, 40.1 0.83, 45.4 4.15 C50.7 7.46, 54.66 14.82, 56.37 20.55 C58.08 26.29, 57.9 33.25, 55.65 38.56 C53.41 43.87, 48.55 49.69, 42.9 52.4 C37.25 55.11, 27.8 56.23, 21.74 54.81 C15.68 53.39, 10.03 48.62, 6.55 43.88 C3.07 39.14, 0.72 32.15, 0.86 26.37 C1.01 20.6, 2.83 13.6, 7.42 9.22 C12.01 4.83, 24.43 1.54, 28.38 0.07 C32.34 -1.39, 31.33 -0.04, 31.15 0.42 M42.41 3.4 C47.7 5.56, 52.85 11.45, 55.44 16.67 C58.03 21.89, 59.41 29.14, 57.95 34.71 C56.49 40.28, 51.89 46.75, 46.7 50.07 C41.51 53.4, 33.11 55.14, 26.82 54.68 C20.53 54.21, 13.38 51.21, 8.94 47.29 C4.51 43.37, 0.7 37.32, 0.19 31.14 C-0.31 24.95, 2.1 15.39, 5.91 10.17 C9.72 4.96, 17.2 1.02, 23.07 -0.16 C28.93 -1.33, 38.01 2.5, 41.09 3.12 C44.16 3.75, 41.54 3.19, 41.51 3.59" stroke="#1e1e1e" stroke-width="2" fill="none"></path></g><g stroke-linecap="round" transform="translate(199.1826866109186 10) rotate(0 57.47377245861935 12.391134705952936)"><path d="M6.2 0 C36.18 -2.07, 68.82 1.38, 108.75 0 C111.4 -0.25, 118.44 4.06, 114.95 6.2 C114.47 9.16, 116.94 15.91, 114.95 18.59 C117.2 24.04, 116.34 26.34, 108.75 24.78 C73.94 26.72, 36.4 27.24, 6.2 24.78 C4.33 25.71, 0.39 22.16, 0 18.59 C-1.18 15.11, -0.4 7.5, 0 6.2 C-2.38 3.24, -1.19 3.08, 6.2 0" stroke="none" stroke-width="0" fill="#ced4da"></path><path d="M6.2 0 C38.88 2.2, 73.34 1.17, 108.75 0 M6.2 0 C44.39 0.3, 80.68 1.05, 108.75 0 M108.75 0 C112.03 -1.56, 114.19 3.43, 114.95 6.2 M108.75 0 C110.76 1.89, 114.6 1.28, 114.95 6.2 M114.95 6.2 C115.34 10.04, 113.81 14.38, 114.95 18.59 M114.95 6.2 C115.39 11.29, 115.05 15.95, 114.95 18.59 M114.95 18.59 C116.32 21.67, 114.68 23.51, 108.75 24.78 M114.95 18.59 C116 21.07, 113.94 24.5, 108.75 24.78 M108.75 24.78 C75.28 26.75, 44.37 24.46, 6.2 24.78 M108.75 24.78 C75.9 25.16, 42.74 24.23, 6.2 24.78 M6.2 24.78 C1.93 23.8, 1.11 22.28, 0 18.59 M6.2 24.78 C2.8 25.2, 0.11 22.63, 0 18.59 M0 18.59 C-0.65 17, 0.87 12.82, 0 6.2 M0 18.59 C0.15 13.77, 0.66 9.14, 0 6.2 M0 6.2 C-0.26 4.02, 1.69 -1.75, 6.2 0 M0 6.2 C-1.41 4.17, 3.63 -1.93, 6.2 0" stroke="#1e1e1e" stroke-width="2" fill="none"></path></g><g stroke-linecap="round" transform="translate(310.96662657680645 235.41314853488439) rotate(0 57.47377245861935 12.391134705952936)"><path d="M6.2 0 C35.75 2.32, 63.64 0.93, 108.75 0 C116.38 2, 115.44 3.81, 114.95 6.2 C116.78 11.96, 116.28 14.67, 114.95 18.59 C118.41 24.27, 115 24.96, 108.75 24.78 C80.51 28.59, 52.05 26.83, 6.2 24.78 C2.46 24.23, 2.59 25.43, 0 18.59 C-0.13 12.58, -1.37 11.04, 0 6.2 C-3.25 5.14, 5.01 0.51, 6.2 0" stroke="none" stroke-width="0" fill="#ced4da"></path><path d="M6.2 0 C32.75 -0.08, 63.94 -1.67, 108.75 0 M6.2 0 C33.09 0.75, 60.09 -0.72, 108.75 0 M108.75 0 C112.12 1.37, 113.11 3.71, 114.95 6.2 M108.75 0 C112.53 -0.78, 115.63 2.59, 114.95 6.2 M114.95 6.2 C113.82 10, 116.09 14.74, 114.95 18.59 M114.95 6.2 C115.02 10.09, 115.44 13.47, 114.95 18.59 M114.95 18.59 C116.75 21.45, 113.8 23.35, 108.75 24.78 M114.95 18.59 C116.01 22.44, 113.05 26.44, 108.75 24.78 M108.75 24.78 C73.43 24.99, 41.33 25.88, 6.2 24.78 M108.75 24.78 C76.27 24.17, 42.72 24.46, 6.2 24.78 M6.2 24.78 C3.18 24.34, 0.64 23.08, 0 18.59 M6.2 24.78 C2.17 24.7, -1.76 23.17, 0 18.59 M0 18.59 C0.96 13.63, 0.97 8.34, 0 6.2 M0 18.59 C0.57 15.83, -0.09 14.08, 0 6.2 M0 6.2 C-0.38 0.31, 0.84 1.83, 6.2 0 M0 6.2 C1.57 0.13, 2.18 0.94, 6.2 0" stroke="#1e1e1e" stroke-width="2" fill="none"></path></g><g stroke-linecap="round"><g transform="translate(258.23836211631715 156.7231923583604) rotate(0 43.237168007342916 36.844978088261996)"><path d="M0 0 C1.11 7.63, -0.88 18.25, 0 20.9 M0 0 C-0.48 5.36, -0.43 12.97, 0 20.9 M0 20.9 C-1.84 33.22, 5.03 36.22, 16 36.9 M0 20.9 C0.69 32.1, 5.47 37.58, 16 36.9 M16 36.9 C33.06 38.45, 46.67 38.02, 70.47 36.9 M16 36.9 C35.34 36.29, 54.22 36.18, 70.47 36.9 M70.47 36.9 C82.06 35.47, 87.4 41.99, 86.47 52.9 M70.47 36.9 C81.31 38.57, 87.19 39.97, 86.47 52.9 M86.47 52.9 C86.82 61.11, 86.76 69.61, 86.47 73.69 M86.47 52.9 C86.51 58.98, 87.13 65.82, 86.47 73.69" stroke="#1e1e1e" stroke-width="2" fill="none"></path></g><g transform="translate(258.23836211631715 156.7231923583604) rotate(0 43.237168007342916 36.844978088261996)"><path d="M80.94 56.15 C84.18 62.47, 84.54 71.57, 86.47 73.69 M80.94 56.15 C82.13 60.55, 83.8 67.05, 86.47 73.69" stroke="#1e1e1e" stroke-width="2" fill="none"></path></g><g transform="translate(258.23836211631715 156.7231923583604) rotate(0 43.237168007342916 36.844978088261996)"><path d="M93.51 56.7 C91.76 62.86, 87.13 71.74, 86.47 73.69 M93.51 56.7 C91.01 61.02, 88.98 67.36, 86.47 73.69" stroke="#1e1e1e" stroke-width="2" fill="none"></path></g></g><mask></mask><g stroke-linecap="round"><g transform="translate(444.2690097468185 153.67506459428841) rotate(0 -37.964305355696524 38.369041970297985)"><path d="M0 0 C-0.56 9.37, 0.02 14.95, 0 22.37 M0 0 C-0.48 8.94, -1.02 17.34, 0 22.37 M0 22.37 C-0.3 32.36, -4.74 38.83, -16 38.37 M0 22.37 C0.14 33.71, -5.79 36.2, -16 38.37 M-16 38.37 C-29.1 39.84, -41.62 38.73, -59.93 38.37 M-16 38.37 C-28.96 37.5, -43.26 37.42, -59.93 38.37 M-59.93 38.37 C-69.67 38.13, -75.78 45.15, -75.93 54.37 M-59.93 38.37 C-69.88 36.11, -74.03 42.13, -75.93 54.37 M-75.93 54.37 C-75.44 61.17, -75.56 67.35, -75.93 76.74 M-75.93 54.37 C-75.39 59.13, -75.63 64.5, -75.93 76.74" stroke="#1e1e1e" stroke-width="2" fill="none"></path></g><g transform="translate(444.2690097468185 153.67506459428841) rotate(0 -37.964305355696524 38.369041970297985)"><path d="M-82.03 58.55 C-80.48 66.43, -77.81 70.65, -75.93 76.74 M-82.03 58.55 C-80.22 65.97, -78.49 72.82, -75.93 76.74" stroke="#1e1e1e" stroke-width="2" fill="none"></path></g><g transform="translate(444.2690097468185 153.67506459428841) rotate(0 -37.964305355696524 38.369041970297985)"><path d="M-68.91 58.88 C-71.9 66.6, -73.77 70.71, -75.93 76.74 M-68.91 58.88 C-71.94 66.08, -75.05 72.8, -75.93 76.74" stroke="#1e1e1e" stroke-width="2" fill="none"></path></g></g><mask></mask><g stroke-linecap="round"><g transform="translate(256.5564590695376 39.78226941190587) rotate(0 -0.5272540824107637 25.485058085196215)"><path d="M0 0 C0 -0.03, 0.01 -0.06, 0 -0.1 M0 0 C0 -0.02, 0 -0.04, 0 -0.1 M0 -0.1 C0.6 0.3, 0.09 0.39, -0.1 -0.19 M0 -0.1 C-0.45 -2.33, 0 1.87, -0.1 -0.19 M-0.1 -0.19 C-0.24 -0.19, -0.42 -0.16, -0.53 -0.19 M-0.1 -0.19 C-0.19 -0.21, -0.3 -0.2, -0.53 -0.19 M-0.53 -0.19 C-0.73 1.25, -0.43 -1.99, -1.05 0.33 M-0.53 -0.19 C1.02 -1.77, -1.79 0.54, -1.05 0.33 M-1.05 0.33 C-0.63 17.22, -2.5 31.99, -1.05 51.16 M-1.05 0.33 C-0.45 13.27, -0.72 25.82, -1.05 51.16" stroke="#1e1e1e" stroke-width="2" fill="none"></path></g><g transform="translate(256.5564590695376 39.78226941190587) rotate(0 -0.5272540824107637 25.485058085196215)"><path d="M-9.3 27.56 C-7.31 33.25, -3.61 39.21, -1.05 51.16 M-9.3 27.56 C-8.48 33.57, -5.88 37.64, -1.05 51.16" stroke="#1e1e1e" stroke-width="2" fill="none"></path></g><g transform="translate(256.5564590695376 39.78226941190587) rotate(0 -0.5272540824107637 25.485058085196215)"><path d="M7.8 27.79 C5.24 33.55, 4.39 39.45, -1.05 51.16 M7.8 27.79 C4.83 33.86, 3.63 37.88, -1.05 51.16" stroke="#1e1e1e" stroke-width="2" fill="none"></path></g></g><mask></mask><g stroke-linecap="round" transform="translate(420.6214765797158 92.47281295628636) rotate(0 29.00052332762516 27.945959848695566)"><path d="M43 2.45 C48.14 4.79, 52.57 11.45, 54.8 17.24 C57.03 23.02, 58.12 31.49, 56.38 37.17 C54.64 42.84, 49.37 48.26, 44.36 51.31 C39.36 54.37, 32.58 56.32, 26.33 55.48 C20.07 54.65, 11.07 50.56, 6.84 46.31 C2.61 42.06, 1.24 35.85, 0.95 29.98 C0.65 24.11, 1.4 15.99, 5.07 11.09 C8.75 6.18, 16.41 1.75, 23 0.56 C29.59 -0.62, 40.58 2.88, 44.6 3.97 C48.62 5.07, 47.39 6.66, 47.12 7.14 M43.26 3.36 C48.45 5.56, 53.02 11.03, 55.46 16.77 C57.9 22.51, 59.56 31.9, 57.88 37.8 C56.2 43.69, 50.62 49.07, 45.39 52.15 C40.16 55.23, 32.66 57.17, 26.5 56.28 C20.33 55.39, 12.84 51.19, 8.39 46.79 C3.95 42.38, 0.07 35.75, -0.17 29.84 C-0.4 23.93, 2.97 16.04, 6.99 11.33 C11.02 6.62, 18.01 2.9, 24 1.57 C29.99 0.25, 39.92 2.86, 42.92 3.39 C45.93 3.93, 42.13 4.33, 42.03 4.8" stroke="none" stroke-width="0" fill="#b2f2bb"></path><path d="M23.55 -0.29 C29.51 -1.8, 38.01 0.07, 43.34 3.07 C48.67 6.06, 53.26 12.1, 55.51 17.68 C57.76 23.26, 58.64 30.92, 56.85 36.54 C55.05 42.16, 50.21 48.21, 44.75 51.39 C39.3 54.58, 30.19 56.3, 24.13 55.65 C18.08 55, 12.43 51.84, 8.42 47.5 C4.41 43.16, 0.41 35.7, 0.09 29.59 C-0.23 23.48, 1.78 15.65, 6.51 10.83 C11.23 6.02, 24.01 2.2, 28.44 0.69 C32.88 -0.81, 33.24 1.4, 33.12 1.83 M18.92 2.87 C24.28 0.32, 33.07 -1.52, 39.11 0.12 C45.16 1.76, 52.21 7.24, 55.21 12.7 C58.21 18.17, 58.32 26.76, 57.13 32.89 C55.94 39.02, 52.59 45.62, 48.05 49.5 C43.51 53.37, 36.02 56.32, 29.89 56.13 C23.77 55.94, 16.24 52.33, 11.32 48.37 C6.41 44.4, 1.51 38.09, 0.39 32.34 C-0.74 26.59, 1.43 18.93, 4.58 13.89 C7.73 8.84, 16.87 3.99, 19.29 2.05 C21.71 0.11, 19.19 1.81, 19.09 2.25" stroke="#1e1e1e" stroke-width="2" fill="none"></path></g><g stroke-linecap="round" transform="translate(609.38853542182 89.30913257660723) rotate(0 29.00052332762516 27.945959848695566)"><path d="M25.34 0.23 C31.01 -0.4, 39.94 2.52, 45.15 5.89 C50.37 9.25, 54.76 14.81, 56.63 20.4 C58.49 25.98, 59.02 34.03, 56.34 39.4 C53.67 44.76, 46.18 49.87, 40.56 52.58 C34.94 55.29, 28.61 57.07, 22.6 55.67 C16.59 54.27, 8.2 49.2, 4.52 44.18 C0.84 39.16, -0.08 31.66, 0.5 25.57 C1.08 19.49, 2.25 11.79, 8 7.68 C13.75 3.57, 29.25 1.53, 34.98 0.91 C40.71 0.29, 42.34 3.45, 42.4 3.94 M30.6 -0.55 C36.61 -0.32, 45.7 4.78, 50.4 9.13 C55.09 13.48, 58.09 19.7, 58.78 25.55 C59.46 31.39, 57.98 39.31, 54.5 44.2 C51.02 49.09, 44.15 53.19, 37.9 54.87 C31.66 56.56, 22.72 56.67, 17.04 54.31 C11.37 51.96, 6.36 46.1, 3.85 40.74 C1.34 35.38, 0.56 28.03, 1.98 22.16 C3.39 16.28, 7.52 9.02, 12.32 5.52 C17.12 2.02, 27.47 1.88, 30.77 1.14 C34.06 0.41, 32.19 0.72, 32.09 1.13" stroke="none" stroke-width="0" fill="#a5d8ff"></path><path d="M24.35 0.35 C29.91 -0.87, 37.44 0.88, 42.77 3.83 C48.1 6.78, 54.01 12.53, 56.33 18.05 C58.65 23.56, 58.92 31.25, 56.69 36.9 C54.46 42.55, 48.17 48.71, 42.94 51.94 C37.71 55.18, 31.27 57.17, 25.3 56.31 C19.33 55.46, 11.28 51.45, 7.14 46.8 C2.99 42.14, 0.51 34.35, 0.43 28.38 C0.35 22.42, 2.64 15.54, 6.66 11 C10.67 6.46, 21.3 2.81, 24.52 1.16 C27.74 -0.49, 25.95 0.73, 25.98 1.11 M27.71 -1.42 C33.76 -2.48, 42.66 0.59, 47.5 4.46 C52.33 8.33, 55.45 15.75, 56.72 21.79 C57.99 27.84, 57.73 35.41, 55.14 40.75 C52.55 46.08, 46.77 51.68, 41.16 53.82 C35.55 55.95, 27.57 55.44, 21.5 53.58 C15.42 51.71, 8.12 47.48, 4.71 42.63 C1.3 37.77, 0.22 30.23, 1.02 24.44 C1.82 18.66, 5.14 12.01, 9.52 7.94 C13.9 3.87, 24.54 1.17, 27.31 0 C30.08 -1.18, 25.9 0.56, 26.12 0.9" stroke="#1e1e1e" stroke-width="2" fill="none"></path></g><g stroke-linecap="round" transform="translate(504.9866755794337 231.93897007289343) rotate(0 57.47377245861935 12.391134705952936)"><path d="M6.2 0 C37.4 0.69, 63.67 1.9, 108.75 0 C114.44 2.12, 115.12 1.61, 114.95 6.2 C116.75 12, 115.66 15.24, 114.95 18.59 C114.39 25.3, 115.6 25.99, 108.75 24.78 C79.6 22.21, 57.66 21.33, 6.2 24.78 C5.14 27.73, 0.51 24.11, 0 18.59 C-1.5 15.31, -0.68 8.76, 0 6.2 C1.36 -1.42, 1.95 3.26, 6.2 0" stroke="none" stroke-width="0" fill="#ced4da"></path><path d="M6.2 0 C33.96 -1.45, 60.63 0.08, 108.75 0 M6.2 0 C33.54 0.06, 60.57 -1.18, 108.75 0 M108.75 0 C112.91 1.79, 116.5 2.2, 114.95 6.2 M108.75 0 C114.18 0.98, 114.97 2.42, 114.95 6.2 M114.95 6.2 C114.1 11.33, 113.99 15.9, 114.95 18.59 M114.95 6.2 C115.15 9.15, 115.47 12.9, 114.95 18.59 M114.95 18.59 C114.31 23.2, 113.14 25.21, 108.75 24.78 M114.95 18.59 C115.88 23.08, 114.02 23, 108.75 24.78 M108.75 24.78 C78.25 25.99, 49 25.45, 6.2 24.78 M108.75 24.78 C79.18 24.48, 48.94 25.7, 6.2 24.78 M6.2 24.78 C1.69 26.24, -1.29 20.84, 0 18.59 M6.2 24.78 C2.31 24.04, 2.16 21.95, 0 18.59 M0 18.59 C-1.21 14.27, 1.01 12.32, 0 6.2 M0 18.59 C-0.08 15.69, -0.4 13.25, 0 6.2 M0 6.2 C0.63 1.24, 1.93 1.94, 6.2 0 M0 6.2 C1.28 2.38, 3.18 0.21, 6.2 0" stroke="#1e1e1e" stroke-width="2" fill="none"></path></g><g stroke-linecap="round"><g transform="translate(452.2584111189444 153.24901389636943) rotate(0 43.237168007343826 36.844978088263815)"><path d="M0 0 C1.79 5.17, -0.54 11.55, 0 20.9 M0 0 C-0.18 5.81, 0.03 14.4, 0 20.9 M0 20.9 C1.55 31.7, 6.46 37.75, 16 36.9 M0 20.9 C0.02 31.93, 6.91 35.7, 16 36.9 M16 36.9 C35.81 37.57, 58.24 36.8, 70.47 36.9 M16 36.9 C37.11 36.75, 56.24 37.68, 70.47 36.9 M70.47 36.9 C81.4 37.33, 87.28 42.55, 86.47 52.9 M70.47 36.9 C82.28 35.12, 86.32 41.11, 86.47 52.9 M86.47 52.9 C86.79 60.39, 86.35 66.16, 86.47 73.69 M86.47 52.9 C87.59 60.27, 86.46 66.92, 86.47 73.69" stroke="#1e1e1e" stroke-width="2" fill="none"></path></g><g transform="translate(452.2584111189444 153.24901389636943) rotate(0 43.237168007343826 36.844978088263815)"><path d="M80.76 56.21 C83.89 60.56, 83.25 65.97, 86.47 73.69 M80.76 56.21 C82.44 60.97, 84.47 68.31, 86.47 73.69" stroke="#1e1e1e" stroke-width="2" fill="none"></path></g><g transform="translate(452.2584111189444 153.24901389636943) rotate(0 43.237168007343826 36.844978088263815)"><path d="M93.34 56.63 C93.17 60.75, 89.23 66.05, 86.47 73.69 M93.34 56.63 C90.95 61.29, 88.93 68.49, 86.47 73.69" stroke="#1e1e1e" stroke-width="2" fill="none"></path></g></g><mask></mask><g stroke-linecap="round"><g transform="translate(638.2890587494458 150.20088613229382) rotate(0 -37.964305355696524 38.369041970299804)"><path d="M0 0 C-0.49 4.5, 0.59 7.99, 0 18.93 M0 0 C-0.03 7.08, 0.7 12.53, 0 18.93 M0 18.93 C1.13 30.45, -5.32 35.24, -16 34.93 M0 18.93 C1.58 28.39, -3.26 33.47, -16 34.93 M-16 34.93 C-31.44 35.28, -44.94 35.76, -59.93 34.93 M-16 34.93 C-25.18 34.88, -33.59 34.85, -59.93 34.93 M-59.93 34.93 C-69.79 35.25, -74.94 38.72, -75.93 50.93 M-59.93 34.93 C-70.75 33.81, -74.65 39.76, -75.93 50.93 M-75.93 50.93 C-75.96 57.97, -75.49 69.69, -75.93 76.74 M-75.93 50.93 C-75.87 58.1, -76.33 62.86, -75.93 76.74" stroke="#1e1e1e" stroke-width="2" fill="none"></path></g><g transform="translate(638.2890587494458 150.20088613229382) rotate(0 -37.964305355696524 38.369041970299804)"><path d="M-83.39 57.21 C-82.36 61.88, -79.67 65.47, -75.93 76.74 M-83.39 57.21 C-80.96 64.61, -77.74 70.21, -75.93 76.74" stroke="#1e1e1e" stroke-width="2" fill="none"></path></g><g transform="translate(638.2890587494458 150.20088613229382) rotate(0 -37.964305355696524 38.369041970299804)"><path d="M-69.1 56.98 C-71.03 61.68, -71.31 65.31, -75.93 76.74 M-69.1 56.98 C-71.37 64.32, -72.86 70, -75.93 76.74" stroke="#1e1e1e" stroke-width="2" fill="none"></path></g></g><mask></mask><g stroke-linecap="round" transform="translate(324.279395397838 566.7599198819662) rotate(0 29.00052332762516 27.945959848695566)"><path d="M26.23 -0.55 C32.08 -1.14, 42.04 2.44, 47.06 6.09 C52.08 9.74, 54.94 15.67, 56.33 21.35 C57.72 27.03, 58.09 34.92, 55.42 40.18 C52.75 45.43, 46.08 50.4, 40.33 52.88 C34.58 55.37, 26.89 56.67, 20.91 55.09 C14.94 53.51, 7.77 48.34, 4.48 43.4 C1.18 38.47, 0.38 31.32, 1.14 25.46 C1.91 19.6, 4.08 12.52, 9.08 8.24 C14.09 3.97, 26.95 0.85, 31.18 -0.19 C35.42 -1.23, 34.42 1.39, 34.51 2.01 M35.17 0.54 C40.77 1.26, 47.23 6.3, 51.19 10.99 C55.15 15.69, 58.74 22.7, 58.9 28.71 C59.07 34.71, 56.3 42.54, 52.17 47.04 C48.05 51.53, 40.53 54.66, 34.18 55.67 C27.82 56.68, 19.28 56.09, 14.05 53.1 C8.82 50.12, 4.94 43.48, 2.79 37.78 C0.65 32.08, -0.8 24.82, 1.16 18.92 C3.12 13.02, 9.2 5.36, 14.56 2.36 C19.92 -0.63, 30.25 0.97, 33.29 0.96 C36.34 0.94, 32.54 1.89, 32.82 2.3" stroke="none" stroke-width="0" fill="#a5d8ff"></path><path d="M28.94 0.03 C34.95 0, 44.4 3.79, 49.21 7.87 C54.01 11.95, 56.95 18.7, 57.77 24.5 C58.58 30.29, 57.34 37.54, 54.09 42.66 C50.83 47.77, 44.3 53.15, 38.24 55.17 C32.18 57.2, 23.64 57.06, 17.73 54.8 C11.83 52.55, 5.79 46.98, 2.82 41.63 C-0.15 36.29, -1.46 28.65, -0.11 22.72 C1.24 16.79, 4.93 9.7, 10.92 6.07 C16.92 2.44, 31.19 1.37, 35.86 0.94 C40.54 0.52, 39.32 3.16, 38.99 3.51 M33.11 0.44 C39.11 0.53, 46.81 3.49, 50.93 7.7 C55.06 11.92, 57.51 19.6, 57.86 25.72 C58.2 31.84, 56.65 39.46, 53.01 44.41 C49.38 49.37, 42.21 54.04, 36.03 55.44 C29.85 56.84, 21.74 55.51, 15.93 52.8 C10.12 50.09, 3.41 44.81, 1.17 39.18 C-1.07 33.56, 0.24 24.64, 2.48 19.04 C4.72 13.44, 9.65 8.56, 14.61 5.6 C19.57 2.65, 29.41 2.34, 32.22 1.3 C35.04 0.26, 31.45 -0.85, 31.47 -0.65" stroke="#1e1e1e" stroke-width="2" fill="none"></path></g><g stroke-linecap="round" transform="translate(538.409149299232 566.8032970593049) rotate(0 29.00052332762516 27.945959848695566)"><path d="M27.19 0.81 C33.04 0.03, 39.61 1.73, 44.63 5 C49.66 8.26, 55.64 14.75, 57.37 20.4 C59.1 26.06, 57.66 33.43, 55.01 38.95 C52.36 44.46, 47.08 50.85, 41.46 53.51 C35.84 56.17, 27.13 56.39, 21.27 54.92 C15.42 53.45, 9.83 49.47, 6.33 44.68 C2.82 39.89, -0.12 32.29, 0.23 26.18 C0.58 20.08, 3.07 12.24, 8.45 8.06 C13.82 3.88, 27.22 1.95, 32.48 1.1 C37.73 0.25, 39.89 2.49, 39.96 2.97 M35.03 1.48 C40.88 2.42, 48.86 6.64, 52.88 11.4 C56.89 16.17, 59.44 24.13, 59.1 30.05 C58.75 35.98, 55.22 42.5, 50.81 46.95 C46.4 51.39, 38.65 55.87, 32.61 56.72 C26.58 57.57, 19.92 55.31, 14.6 52.05 C9.28 48.79, 2.78 43.17, 0.68 37.17 C-1.41 31.16, -0.29 21.63, 2.03 16.04 C4.34 10.46, 9.26 6.02, 14.57 3.67 C19.87 1.32, 30.24 2.31, 33.86 1.93 C37.49 1.56, 36.1 0.96, 36.32 1.41" stroke="none" stroke-width="0" fill="#a5d8ff"></path><path d="M27.05 0.91 C33.05 0.09, 40.38 2.19, 45.44 5.44 C50.49 8.69, 55.66 14.63, 57.35 20.42 C59.04 26.21, 58.29 34.56, 55.57 40.16 C52.85 45.76, 46.76 51.49, 41.02 54.04 C35.29 56.59, 27.22 57.04, 21.17 55.48 C15.12 53.92, 8.25 49.62, 4.71 44.69 C1.18 39.76, -0.75 31.89, -0.04 25.89 C0.68 19.9, 3.95 12.88, 8.99 8.72 C14.03 4.55, 25.83 2.18, 30.22 0.91 C34.62 -0.36, 35.19 0.74, 35.36 1.09 M32.87 -1 C38.66 -0.91, 45.5 3.4, 49.82 7.86 C54.14 12.32, 58.26 19.61, 58.77 25.75 C59.28 31.9, 56.68 39.84, 52.89 44.71 C49.09 49.59, 42.3 53.59, 36 55.03 C29.69 56.46, 20.44 56.08, 15.06 53.32 C9.67 50.56, 5.77 43.82, 3.69 38.47 C1.61 33.12, 1.09 26.68, 2.57 21.24 C4.06 15.8, 7.81 9.57, 12.58 5.82 C17.34 2.08, 27.88 -0.31, 31.15 -1.24 C34.43 -2.17, 31.87 -0.38, 32.22 0.23" stroke="#1e1e1e" stroke-width="2" fill="none"></path></g><g stroke-linecap="round"><g transform="translate(356.5574892997065 506.559432644528) rotate(0 -0.5272540824107637 25.48505808520349)"><path d="M0 0 C-0.01 -0.03, 0.01 -0.05, 0 -0.1 M0 0 C0 -0.03, 0 -0.06, 0 -0.1 M0 -0.1 C1.8 -1.43, 0.88 -1.63, -0.1 -0.19 M0 -0.1 C1.06 -0.44, 0.13 1.47, -0.1 -0.19 M-0.1 -0.19 C-0.27 -0.21, -0.37 -0.19, -0.53 -0.19 M-0.1 -0.19 C-0.22 -0.21, -0.38 -0.2, -0.53 -0.19 M-0.53 -0.19 C0.23 -0.63, -0.42 0.34, -1.05 0.33 M-0.53 -0.19 C-0.77 -0.28, -2.82 0.43, -1.05 0.33 M-1.05 0.33 C0.13 19.34, 0.15 37.82, -1.05 51.16 M-1.05 0.33 C-0.06 10.49, -1.13 22.28, -1.05 51.16" stroke="#1e1e1e" stroke-width="2" fill="none"></path></g><g transform="translate(356.5574892997065 506.559432644528) rotate(0 -0.5272540824107637 25.48505808520349)"><path d="M-9.44 27.61 C-8.69 34.86, -2.44 43.6, -1.05 51.16 M-9.44 27.61 C-6.73 34.95, -3.48 41.49, -1.05 51.16" stroke="#1e1e1e" stroke-width="2" fill="none"></path></g><g transform="translate(356.5574892997065 506.559432644528) rotate(0 -0.5272540824107637 25.48505808520349)"><path d="M7.66 27.73 C3.18 34.91, 4.19 43.61, -1.05 51.16 M7.66 27.73 C5.13 35.11, 3.13 41.61, -1.05 51.16" stroke="#1e1e1e" stroke-width="2" fill="none"></path></g></g><mask></mask><g stroke-linecap="round"><g transform="translate(564.096356318707 506.0640963241094) rotate(0 -0.5272540824107637 25.48505808520349)"><path d="M0 0 C0.01 -0.02, 0 -0.05, 0 -0.1 M0 0 C0 -0.04, 0 -0.07, 0 -0.1 M0 -0.1 C0.92 -1.6, 0.89 -0.44, -0.1 -0.19 M0 -0.1 C0.17 1.5, 0.68 -2.46, -0.1 -0.19 M-0.1 -0.19 C-0.25 -0.19, -0.42 -0.18, -0.53 -0.19 M-0.1 -0.19 C-0.23 -0.21, -0.36 -0.2, -0.53 -0.19 M-0.53 -0.19 C-0.24 0.17, -0.96 -0.09, -1.05 0.33 M-0.53 -0.19 C-2.64 0.26, 0.82 -1.19, -1.05 0.33 M-1.05 0.33 C0.77 19.12, -2.56 40.71, -1.05 51.16 M-1.05 0.33 C-0.71 14.92, -0.76 26.68, -1.05 51.16" stroke="#1e1e1e" stroke-width="2" fill="none"></path></g><g transform="translate(564.096356318707 506.0640963241094) rotate(0 -0.5272540824107637 25.48505808520349)"><path d="M-9.37 27.59 C-5.47 35.75, -4.8 41.93, -1.05 51.16 M-9.37 27.59 C-5.83 35.12, -2.77 43.09, -1.05 51.16" stroke="#1e1e1e" stroke-width="2" fill="none"></path></g><g transform="translate(564.096356318707 506.0640963241094) rotate(0 -0.5272540824107637 25.48505808520349)"><path d="M7.73 27.76 C6.84 35.87, 2.72 42.01, -1.05 51.16 M7.73 27.76 C5.41 35.27, 2.62 43.17, -1.05 51.16" stroke="#1e1e1e" stroke-width="2" fill="none"></path></g></g><mask></mask><g stroke-linecap="round" transform="translate(612.0659728113424 705.3558782315813) rotate(0 57.47377245861935 12.391134705952936)"><path d="M6.2 0 C45.02 -1.03, 85.65 2.24, 108.75 0 C114.09 -1.63, 116.77 1.68, 114.95 6.2 C112.79 10.78, 116.63 11.87, 114.95 18.59 C116.34 25.73, 115.36 26.84, 108.75 24.78 C83.65 25.7, 56.08 24.23, 6.2 24.78 C5.32 21.82, 2.8 20.33, 0 18.59 C-2.26 12.41, -0.73 11.59, 0 6.2 C0.88 2.43, 2.7 -0.81, 6.2 0" stroke="none" stroke-width="0" fill="#ced4da"></path><path d="M6.2 0 C37.22 0.33, 68.83 -0.78, 108.75 0 M6.2 0 C39.45 -0.1, 71.36 -0.18, 108.75 0 M108.75 0 C113.8 -0.24, 115.09 3.51, 114.95 6.2 M108.75 0 C113.6 -2.26, 116.85 0.49, 114.95 6.2 M114.95 6.2 C115.24 10.01, 115.17 13.45, 114.95 18.59 M114.95 6.2 C115.28 8.82, 115.14 11.82, 114.95 18.59 M114.95 18.59 C115.04 22.64, 111.35 25.17, 108.75 24.78 M114.95 18.59 C116.82 21.55, 115.07 26.44, 108.75 24.78 M108.75 24.78 C78.04 24.33, 50.43 26, 6.2 24.78 M108.75 24.78 C81.2 24.91, 53.41 26.7, 6.2 24.78 M6.2 24.78 C3.43 23.1, 0.1 23.53, 0 18.59 M6.2 24.78 C1.77 23.97, -1.47 22.78, 0 18.59 M0 18.59 C1.25 15.16, 0.22 10.97, 0 6.2 M0 18.59 C0.56 15.3, 0.42 11.16, 0 6.2 M0 6.2 C1.92 2.93, 3.24 0.1, 6.2 0 M0 6.2 C-0.29 3.33, 3.45 0.79, 6.2 0" stroke="#1e1e1e" stroke-width="2" fill="none"></path></g><g stroke-linecap="round" transform="translate(639.3710098295542 562.1871127050108) rotate(0 29.00052332762516 27.945959848695566)"><path d="M27.18 0.37 C33.04 -0.25, 40.62 1.78, 45.78 5.37 C50.94 8.96, 56.6 16, 58.15 21.91 C59.71 27.82, 58.03 35.61, 55.12 40.84 C52.22 46.07, 46.5 50.82, 40.72 53.28 C34.94 55.75, 26.25 57.15, 20.42 55.61 C14.59 54.07, 9.04 49.02, 5.73 44.05 C2.41 39.09, -0.07 31.77, 0.54 25.81 C1.16 19.86, 4.08 12.6, 9.42 8.31 C14.76 4.02, 27.8 1.06, 32.59 0.08 C37.38 -0.89, 38.18 1.85, 38.17 2.45 M37.75 2.45 C43.6 3.93, 51.52 8.63, 54.73 13.65 C57.95 18.68, 58.12 26.98, 57.04 32.61 C55.96 38.25, 52.91 43.51, 48.24 47.46 C43.56 51.42, 35.42 55.73, 29.01 56.36 C22.6 56.99, 14.3 54.98, 9.78 51.24 C5.25 47.51, 2.82 39.82, 1.86 33.95 C0.89 28.09, 1.09 21.25, 3.98 16.07 C6.87 10.89, 13.67 5.17, 19.18 2.88 C24.7 0.6, 34.03 2.57, 37.07 2.37 C40.12 2.17, 37.35 1.66, 37.44 1.69" stroke="none" stroke-width="0" fill="#a5d8ff"></path><path d="M28.59 0.9 C34.36 0.53, 42.38 3.27, 47.09 7.07 C51.81 10.86, 55.72 17.83, 56.86 23.66 C58 29.5, 56.82 36.94, 53.94 42.09 C51.05 47.23, 45.53 52.4, 39.54 54.55 C33.54 56.71, 24.06 57.17, 17.99 54.99 C11.93 52.82, 6.02 46.82, 3.14 41.5 C0.26 36.19, -0.55 28.88, 0.7 23.11 C1.96 17.34, 4.82 10.52, 10.66 6.87 C16.51 3.22, 30.76 1.83, 35.77 1.23 C40.79 0.64, 40.97 2.83, 40.75 3.29 M25.89 0.11 C31.45 -0.86, 38.58 1.79, 43.94 4.99 C49.3 8.2, 55.88 13.46, 58.06 19.34 C60.23 25.22, 59.73 34.47, 56.98 40.26 C54.23 46.05, 47.54 51.86, 41.57 54.09 C35.6 56.33, 27.13 55.37, 21.16 53.69 C15.2 52.01, 9.07 48.68, 5.79 44.01 C2.5 39.33, 1.13 31.29, 1.47 25.64 C1.81 19.99, 3.83 14.57, 7.84 10.11 C11.85 5.64, 22.68 0.19, 25.54 -1.14 C28.39 -2.48, 24.69 1.62, 24.96 2.09" stroke="#1e1e1e" stroke-width="2" fill="none"></path></g><g stroke-linecap="round" transform="translate(742.8338927095592 555.9637744871798) rotate(0 29.00052332762516 27.945959848695566)"><path d="M19.47 1.35 C25.11 -0.74, 34.81 0.23, 40.68 2.53 C46.54 4.83, 51.86 10.03, 54.66 15.17 C57.47 20.3, 58.84 27.41, 57.49 33.33 C56.14 39.26, 51.32 46.85, 46.57 50.71 C41.83 54.58, 35.11 56.66, 29.03 56.51 C22.94 56.35, 14.8 53.77, 10.09 49.78 C5.37 45.8, 1.69 38.69, 0.74 32.58 C-0.22 26.48, 0.63 18.37, 4.37 13.15 C8.1 7.93, 19.59 3.23, 23.17 1.29 C26.75 -0.65, 25.72 1.12, 25.84 1.52 M31.72 0.55 C37.56 0.45, 43.83 4.52, 48.15 8.32 C52.47 12.12, 56.94 17.45, 57.64 23.35 C58.33 29.25, 55.89 38.27, 52.29 43.71 C48.7 49.15, 41.63 54.28, 36.06 55.97 C30.48 57.66, 24.22 56.21, 18.83 53.86 C13.44 51.5, 6.55 47.06, 3.71 41.83 C0.87 36.59, 0.63 28.32, 1.79 22.45 C2.96 16.57, 5.96 10.35, 10.7 6.58 C15.44 2.81, 26.83 1.07, 30.23 -0.17 C33.64 -1.41, 31.1 -1.58, 31.12 -0.85" stroke="none" stroke-width="0" fill="#a5d8ff"></path><path d="M38.11 2.08 C43.77 3.59, 50.08 9.18, 53.31 14.28 C56.53 19.38, 58.27 26.82, 57.47 32.7 C56.67 38.58, 53.38 45.55, 48.5 49.55 C43.63 53.55, 34.65 56.78, 28.2 56.72 C21.75 56.65, 14.39 53.08, 9.81 49.15 C5.23 45.21, 1.68 38.87, 0.72 33.1 C-0.25 27.33, 0.95 19.67, 4.01 14.53 C7.07 9.39, 12.72 4.11, 19.07 2.24 C25.42 0.38, 37.65 2.58, 42.11 3.34 C46.57 4.1, 45.97 6.32, 45.83 6.79 M30.47 0.41 C36.58 0.45, 45.98 3.11, 50.79 7.49 C55.6 11.87, 59.05 20.4, 59.32 26.68 C59.6 32.96, 56.4 40.66, 52.42 45.14 C48.44 49.62, 41.38 52.29, 35.45 53.56 C29.52 54.83, 22.05 55.15, 16.82 52.75 C11.59 50.36, 6.76 44.29, 4.09 39.18 C1.42 34.07, -0.53 28.01, 0.82 22.09 C2.16 16.18, 7.18 7.12, 12.16 3.69 C17.14 0.25, 27.29 2.2, 30.7 1.48 C34.1 0.77, 32.47 -0.93, 32.59 -0.59" stroke="#1e1e1e" stroke-width="2" fill="none"></path></g><g stroke-linecap="round"><g transform="translate(771.7344160371849 616.85552804287) rotate(0 -37.964305355695615 38.369041970297985)"><path d="M0 0 C-0.96 7.4, -1.17 12.26, 0 18.93 M0 0 C0.16 5, 0.38 7.71, 0 18.93 M0 18.93 C1.65 28.23, -5.98 35.42, -16 34.93 M0 18.93 C0.29 30.1, -4.41 35.3, -16 34.93 M-16 34.93 C-32.33 36.02, -47.15 35.54, -59.93 34.93 M-16 34.93 C-30.74 35.11, -43.13 34.41, -59.93 34.93 M-59.93 34.93 C-68.69 36.38, -76.3 41.73, -75.93 50.93 M-59.93 34.93 C-72.08 32.78, -75.69 39.53, -75.93 50.93 M-75.93 50.93 C-74.06 60.73, -77.77 70.04, -75.93 76.74 M-75.93 50.93 C-75.7 61.44, -75.88 70.78, -75.93 76.74" stroke="#1e1e1e" stroke-width="2" fill="none"></path></g><g transform="translate(771.7344160371849 616.85552804287) rotate(0 -37.964305355695615 38.369041970297985)"><path d="M-82.87 57.02 C-81.81 64.71, -79.94 69.75, -75.93 76.74 M-82.87 57.02 C-81.13 62.25, -79.3 65.05, -75.93 76.74" stroke="#1e1e1e" stroke-width="2" fill="none"></path></g><g transform="translate(771.7344160371849 616.85552804287) rotate(0 -37.964305355695615 38.369041970297985)"><path d="M-68.58 57.17 C-71.81 64.91, -74.24 69.91, -75.93 76.74 M-68.58 57.17 C-70.09 62.35, -71.53 65.11, -75.93 76.74" stroke="#1e1e1e" stroke-width="2" fill="none"></path></g></g><mask></mask><g stroke-linecap="round"><g transform="translate(673.1157703241079 628.5740804990637) rotate(0 -1.011475141608571 32.62658035961795)"><path d="M0 0 C-0.11 0.64, -0.12 1.22, 0 1.55 M0 0 C0.03 0.37, 0.07 0.84, 0 1.55 M0 1.55 C-0.64 2.71, -0.08 2.99, -1.01 2.56 M0 1.55 C0.93 2.59, 0.8 0.78, -1.01 2.56 M-1.01 2.56 C-1.01 2.56, -1.01 2.56, -1.01 2.56 M-1.01 2.56 C-1.01 2.56, -1.01 2.56, -1.01 2.56 M-1.01 2.56 C-2.06 4.02, -3.31 1.03, -2.02 3.57 M-1.01 2.56 C-1.44 1.82, 0.14 2.14, -2.02 3.57 M-2.02 3.57 C-3.17 20.04, 0.41 40.33, -2.02 65.25 M-2.02 3.57 C-2.12 16.55, -2.63 30.25, -2.02 65.25" stroke="#1e1e1e" stroke-width="2" fill="none"></path></g><g transform="translate(673.1157703241079 628.5740804990637) rotate(0 -1.011475141608571 32.62658035961795)"><path d="M-10.83 41.86 C-8.98 51.32, -5.9 59.94, -2.02 65.25 M-10.83 41.86 C-7.97 47.54, -4.92 54.58, -2.02 65.25" stroke="#1e1e1e" stroke-width="2" fill="none"></path></g><g transform="translate(673.1157703241079 628.5740804990637) rotate(0 -1.011475141608571 32.62658035961795)"><path d="M6.27 41.67 C1.82 51.35, -1.4 60.05, -2.02 65.25 M6.27 41.67 C4.21 47.53, 2.34 54.62, -2.02 65.25" stroke="#1e1e1e" stroke-width="2" fill="none"></path></g></g><mask></mask><g stroke-linecap="round"><g transform="translate(567.3096726268577 627.6950506149915) rotate(0 38.73465131352077 32.60564434274784)"><path d="M0 0 C-0.99 5.55, -0.24 10.01, 0 12.72 M0 0 C0.56 4.3, -0.16 9.63, 0 12.72 M0 12.72 C0.26 21.63, 5.05 25.76, 12.72 25.44 M0 12.72 C1.14 19.42, 4.08 24.32, 12.72 25.44 M12.72 25.44 C30.42 25.38, 47.32 23.75, 61.47 25.44 M12.72 25.44 C29.25 26.41, 43.69 26.42, 61.47 25.44 M61.47 25.44 C70.85 23.57, 77.68 30.13, 77.47 41.44 M61.47 25.44 C74.3 24.68, 77.17 33.03, 77.47 41.44 M77.47 41.44 C79.09 49.49, 75.58 54.91, 77.47 65.21 M77.47 41.44 C76.8 49.57, 77.76 57.23, 77.47 65.21" stroke="#1e1e1e" stroke-width="2" fill="none"></path></g><g transform="translate(567.3096726268577 627.6950506149915) rotate(0 38.73465131352077 32.60564434274784)"><path d="M70.67 46.53 C71.77 54.7, 75.61 61.21, 77.47 65.21 M70.67 46.53 C74.08 52.87, 75.47 60.75, 77.47 65.21" stroke="#1e1e1e" stroke-width="2" fill="none"></path></g><g transform="translate(567.3096726268577 627.6950506149915) rotate(0 38.73465131352077 32.60564434274784)"><path d="M84.27 46.53 C80.07 54.76, 78.61 61.27, 77.47 65.21 M84.27 46.53 C82.62 52.73, 78.95 60.61, 77.47 65.21" stroke="#1e1e1e" stroke-width="2" fill="none"></path></g></g><mask></mask><g stroke-linecap="round"><g transform="translate(669.4397452699613 735.1381476434835) rotate(0 102.65478005181649 -46.070667471094566)"><path d="M0 0 C-0.51 13, 1.18 26.33, 0 37.16 M0 0 C-0.01 7.74, 0.43 15.2, 0 37.16 M0 37.16 C0.81 48.15, 6.32 51.61, 16 53.16 M0 37.16 C-0.16 46.7, 6.61 52.65, 16 53.16 M16 53.16 C73.45 51.55, 131.43 54.71, 189.31 53.16 M16 53.16 C59 52.64, 101.74 50.97, 189.31 53.16 M189.31 53.16 C200.19 52.52, 207.19 47.16, 205.31 37.16 M189.31 53.16 C199.67 55.41, 204.88 45.81, 205.31 37.16 M205.31 37.16 C202.11 -2.46, 204.6 -42.52, 205.31 -129.3 M205.31 37.16 C206.69 -7.28, 206.31 -49.93, 205.31 -129.3 M205.31 -129.3 C206.42 -139.69, 200.94 -145.12, 189.31 -145.3 M205.31 -129.3 C204.71 -140.92, 201.92 -143.31, 189.31 -145.3 M189.31 -145.3 C176.17 -143.76, 161.4 -145.18, 150.68 -145.3 M189.31 -145.3 C176.34 -144.54, 162.14 -145.06, 150.68 -145.3" stroke="#1e1e1e" stroke-width="2" fill="none"></path></g><g transform="translate(669.4397452699613 735.1381476434835) rotate(0 102.65478005181649 -46.070667471094566)"><path d="M174.36 -153.31 C165.87 -150.29, 159.37 -147.04, 150.68 -145.3 M174.36 -153.31 C169.33 -151.62, 165.01 -150.03, 150.68 -145.3" stroke="#1e1e1e" stroke-width="2" fill="none"></path></g><g transform="translate(669.4397452699613 735.1381476434835) rotate(0 102.65478005181649 -46.070667471094566)"><path d="M173.97 -136.21 C165.74 -139.11, 159.37 -141.77, 150.68 -145.3 M173.97 -136.21 C168.88 -137.96, 164.63 -139.82, 150.68 -145.3" stroke="#1e1e1e" stroke-width="2" fill="none"></path></g></g><mask></mask><g stroke-linecap="round" transform="translate(303.66315168401707 474.6625912925447) rotate(0 57.47377245861935 12.391134705952936)"><path d="M6.2 0 C28.21 -0.12, 52.22 0.96, 108.75 0 C114.94 -2.17, 117.34 1.21, 114.95 6.2 C114.96 11.76, 113.2 15.02, 114.95 18.59 C112.56 23.57, 113.82 24.35, 108.75 24.78 C89.77 25.11, 67.84 24.86, 6.2 24.78 C1.25 22.62, 3.24 22.66, 0 18.59 C-0.16 14.38, 0.82 14.67, 0 6.2 C2.87 5.06, 0.76 3.02, 6.2 0" stroke="none" stroke-width="0" fill="#ced4da"></path><path d="M6.2 0 C43.13 0.55, 75.21 1.58, 108.75 0 M6.2 0 C30.06 -0.03, 54.08 -0.09, 108.75 0 M108.75 0 C113.87 -1.55, 114.81 1.09, 114.95 6.2 M108.75 0 C114.16 -0.51, 115.68 2.48, 114.95 6.2 M114.95 6.2 C115.19 10.98, 114.31 14.93, 114.95 18.59 M114.95 6.2 C114.52 10.23, 114.99 15.22, 114.95 18.59 M114.95 18.59 C116.83 22.05, 112.62 26.74, 108.75 24.78 M114.95 18.59 C114.52 20.7, 111.47 26.88, 108.75 24.78 M108.75 24.78 C71.81 24.58, 32.52 23.55, 6.2 24.78 M108.75 24.78 C77.65 25.33, 47.25 24.5, 6.2 24.78 M6.2 24.78 C3.03 24.96, -0.52 21.89, 0 18.59 M6.2 24.78 C4.01 26.78, 1.44 23.56, 0 18.59 M0 18.59 C0.01 13.52, 0.63 9.52, 0 6.2 M0 18.59 C0.07 14.51, -0.19 10.74, 0 6.2 M0 6.2 C1.51 2.74, 1.16 1.01, 6.2 0 M0 6.2 C-0.24 0.13, 0.55 0.75, 6.2 0" stroke="#1e1e1e" stroke-width="2" fill="none"></path></g><g stroke-linecap="round" transform="translate(497.68320068664434 471.1884128305537) rotate(0 57.47377245861935 12.391134705952936)"><path d="M6.2 0 C48.37 1.76, 86.57 -2.88, 108.75 0 C115.27 -0.85, 114.45 3.42, 114.95 6.2 C113.1 10.45, 113.46 11.76, 114.95 18.59 C115.88 22.29, 109.33 21.3, 108.75 24.78 C81.43 25.87, 52.57 23.07, 6.2 24.78 C5.31 24.72, -2.8 26.12, 0 18.59 C1.02 15.81, 1.77 11.71, 0 6.2 C-1.31 5.08, 0.03 -1.82, 6.2 0" stroke="none" stroke-width="0" fill="#ced4da"></path><path d="M6.2 0 C35.74 1.33, 67.84 -0.96, 108.75 0 M6.2 0 C39.85 -0.06, 73.2 -1, 108.75 0 M108.75 0 C112.74 -0.98, 116.06 1.63, 114.95 6.2 M108.75 0 C113.62 0.42, 115.06 1.98, 114.95 6.2 M114.95 6.2 C114.34 10.14, 115.87 11.5, 114.95 18.59 M114.95 6.2 C114.93 10.62, 115.45 15.23, 114.95 18.59 M114.95 18.59 C114.69 24.67, 112.51 23.03, 108.75 24.78 M114.95 18.59 C113.53 24.82, 114.45 22.85, 108.75 24.78 M108.75 24.78 C76.78 23.37, 46.27 25.29, 6.2 24.78 M108.75 24.78 C82.77 25.92, 56.17 25.87, 6.2 24.78 M6.2 24.78 C1.54 23.96, 1.69 24.45, 0 18.59 M6.2 24.78 C3.5 25.63, 2.21 23.71, 0 18.59 M0 18.59 C0.68 14.89, 0.42 10.62, 0 6.2 M0 18.59 C-0.13 14.53, 0.44 9.8, 0 6.2 M0 6.2 C-0.9 3.08, 1.85 -1.68, 6.2 0 M0 6.2 C-1.52 2.81, -0.01 1.97, 6.2 0" stroke="#1e1e1e" stroke-width="2" fill="none"></path></g><g stroke-linecap="round" transform="translate(533.6781145059631 341.30815040245943) rotate(0 29.00052332762516 27.945959848695566)"><path d="M38.36 1.94 C44.04 3.17, 50.3 7.9, 53.62 12.98 C56.94 18.06, 59.08 26.33, 58.27 32.4 C57.47 38.48, 53.38 45.48, 48.78 49.44 C44.18 53.39, 36.93 56.07, 30.68 56.13 C24.43 56.2, 16.17 53.43, 11.29 49.84 C6.4 46.24, 2.62 40.45, 1.36 34.55 C0.1 28.64, 0.84 19.84, 3.71 14.41 C6.59 8.97, 11.7 3.57, 18.61 1.94 C25.52 0.32, 39.55 3.15, 45.16 4.64 C50.77 6.13, 52.27 10.25, 52.27 10.88 M32.1 0.93 C37.76 0.93, 44.04 4.88, 48.27 8.87 C52.51 12.86, 56.61 19.31, 57.49 24.85 C58.38 30.4, 57.02 36.93, 53.59 42.15 C50.16 47.37, 43.18 54.1, 36.91 56.18 C30.63 58.26, 21.76 57.24, 15.93 54.63 C10.1 52.02, 4.37 46.13, 1.92 40.52 C-0.52 34.91, -0.17 27.08, 1.26 20.97 C2.69 14.86, 5.61 7.23, 10.51 3.86 C15.4 0.49, 27.13 1.27, 30.61 0.76 C34.09 0.25, 31.31 0.49, 31.39 0.78" stroke="none" stroke-width="0" fill="#a5d8ff"></path><path d="M24.58 0.76 C30.34 -0.44, 38.84 1.45, 44.01 4.44 C49.18 7.43, 53.68 13.02, 55.61 18.69 C57.55 24.35, 57.73 32.77, 55.62 38.43 C53.51 44.09, 48.24 49.83, 42.93 52.66 C37.61 55.5, 29.82 56.75, 23.74 55.44 C17.67 54.14, 10.41 49.35, 6.49 44.84 C2.56 40.33, 0.19 34.07, 0.2 28.37 C0.21 22.67, 2 15.38, 6.54 10.63 C11.08 5.89, 23.56 1.69, 27.43 -0.1 C31.31 -1.89, 30.04 -0.6, 29.8 -0.09 M24.15 1.83 C29.64 0.43, 38.34 -0.43, 43.56 2.62 C48.77 5.67, 53.2 14.45, 55.46 20.11 C57.73 25.78, 59.18 31.13, 57.14 36.6 C55.1 42.07, 48.86 49.9, 43.23 52.95 C37.61 55.99, 29.67 56.08, 23.39 54.87 C17.11 53.65, 9.39 50.31, 5.58 45.66 C1.76 41, 0.25 32.7, 0.48 26.95 C0.7 21.2, 2.82 15.55, 6.94 11.15 C11.05 6.75, 22.14 2.25, 25.18 0.57 C28.22 -1.12, 25.3 0.73, 25.17 1.05" stroke="#1e1e1e" stroke-width="2" fill="none"></path></g><g stroke-linecap="round"><g transform="translate(356.19305933954274 272.0753879647673) rotate(0 -0.5272540824107637 25.48505808520349)"><path d="M0 0 C0 -0.04, 0 -0.07, 0 -0.1 M0 0 C0 -0.03, 0 -0.06, 0 -0.1 M0 -0.1 C0.64 0.2, 0.06 -0.27, -0.1 -0.19 M0 -0.1 C-1.76 0.29, 1.84 -1.36, -0.1 -0.19 M-0.1 -0.19 C-0.24 -0.22, -0.48 -0.19, -0.53 -0.19 M-0.1 -0.19 C-0.22 -0.18, -0.33 -0.22, -0.53 -0.19 M-0.53 -0.19 C-2.11 1.63, 0.31 -1.7, -1.05 0.33 M-0.53 -0.19 C-0.77 0.74, -1.35 -0.84, -1.05 0.33 M-1.05 0.33 C-1.87 12.19, 0.9 25.44, -1.05 51.16 M-1.05 0.33 C-1.07 15.87, 0.04 33.1, -1.05 51.16" stroke="#1e1e1e" stroke-width="2" fill="none"></path></g><g transform="translate(356.19305933954274 272.0753879647673) rotate(0 -0.5272540824107637 25.48505808520349)"><path d="M-8.9 27.43 C-5.58 36.79, -2.63 46.42, -1.05 51.16 M-8.9 27.43 C-6.37 34.5, -3.27 42.27, -1.05 51.16" stroke="#1e1e1e" stroke-width="2" fill="none"></path></g><g transform="translate(356.19305933954274 272.0753879647673) rotate(0 -0.5272540824107637 25.48505808520349)"><path d="M8.19 27.94 C4.98 37.05, 1.39 46.49, -1.05 51.16 M8.19 27.94 C5.32 34.71, 3.02 42.32, -1.05 51.16" stroke="#1e1e1e" stroke-width="2" fill="none"></path></g></g><mask></mask><g stroke-linecap="round"><g transform="translate(559.1653703535612 272.8355647931312) rotate(0 -0.5272540824107637 25.48505808520349)"><path d="M0 0 C0 -0.02, 0 -0.05, 0 -0.1 M0 0 C0 -0.02, 0 -0.04, 0 -0.1 M0 -0.1 C0.09 -0.24, -1.57 0.2, -0.1 -0.19 M0 -0.1 C1.87 -1.33, 2.15 1.46, -0.1 -0.19 M-0.1 -0.19 C-0.26 -0.19, -0.35 -0.16, -0.53 -0.19 M-0.1 -0.19 C-0.22 -0.21, -0.34 -0.17, -0.53 -0.19 M-0.53 -0.19 C0.49 -1.87, -0.96 0.8, -1.05 0.33 M-0.53 -0.19 C-1.17 -1.01, -2.53 0.04, -1.05 0.33 M-1.05 0.33 C0.68 18.3, -0.99 35.02, -1.05 51.16 M-1.05 0.33 C-0.34 16.91, -0.56 32.11, -1.05 51.16" stroke="#1e1e1e" stroke-width="2" fill="none"></path></g><g transform="translate(559.1653703535612 272.8355647931312) rotate(0 -0.5272540824107637 25.48505808520349)"><path d="M-9.09 27.49 C-6.45 34.63, -4.41 41.16, -1.05 51.16 M-9.09 27.49 C-6.77 32.58, -5.21 38.24, -1.05 51.16" stroke="#1e1e1e" stroke-width="2" fill="none"></path></g><g transform="translate(559.1653703535612 272.8355647931312) rotate(0 -0.5272540824107637 25.48505808520349)"><path d="M8 27.86 C6.06 34.92, 3.52 41.35, -1.05 51.16 M8 27.86 C6.53 32.78, 4.28 38.37, -1.05 51.16" stroke="#1e1e1e" stroke-width="2" fill="none"></path></g></g><mask></mask><g stroke-linecap="round"><g transform="translate(359.0352057840173 407.0699624705085) rotate(0 -0.5272540824107637 25.48505808520349)"><path d="M0 0 C0 -0.03, -0.01 -0.06, 0 -0.1 M0 0 C0 -0.02, 0 -0.05, 0 -0.1 M0 -0.1 C-1.53 0.23, 1.6 -1.21, -0.1 -0.19 M0 -0.1 C2.19 1.5, -0.47 1.48, -0.1 -0.19 M-0.1 -0.19 C-0.21 -0.15, -0.31 -0.2, -0.53 -0.19 M-0.1 -0.19 C-0.28 -0.18, -0.42 -0.22, -0.53 -0.19 M-0.53 -0.19 C-0.78 0.62, -1.31 -0.73, -1.05 0.33 M-0.53 -0.19 C-2.35 -0.14, -0.33 -0.97, -1.05 0.33 M-1.05 0.33 C-0.29 16.2, -0.38 29.61, -1.05 51.16 M-1.05 0.33 C0 13.85, 0.34 27.07, -1.05 51.16" stroke="#1e1e1e" stroke-width="2" fill="none"></path></g><g transform="translate(359.0352057840173 407.0699624705085) rotate(0 -0.5272540824107637 25.48505808520349)"><path d="M-8.6 27.33 C-5.87 35.74, -5.38 42.07, -1.05 51.16 M-8.6 27.33 C-6.25 33.51, -4.63 39.28, -1.05 51.16" stroke="#1e1e1e" stroke-width="2" fill="none"></path></g><g transform="translate(359.0352057840173 407.0699624705085) rotate(0 -0.5272540824107637 25.48505808520349)"><path d="M8.49 28.06 C5.87 36.31, 1.02 42.41, -1.05 51.16 M8.49 28.06 C6.54 34.02, 3.87 39.6, -1.05 51.16" stroke="#1e1e1e" stroke-width="2" fill="none"></path></g></g><mask></mask><g stroke-linecap="round"><g transform="translate(562.007516798034 407.8301392988724) rotate(0 -0.5272540824107637 25.48505808520349)"><path d="M0 0 C-0.01 -0.03, 0 -0.06, 0 -0.1 M0 0 C0 -0.03, 0 -0.05, 0 -0.1 M0 -0.1 C1.63 -1.18, 1.87 1.25, -0.1 -0.19 M0 -0.1 C-0.43 1.52, -1.52 -2.35, -0.1 -0.19 M-0.1 -0.19 C-0.25 -0.2, -0.32 -0.2, -0.53 -0.19 M-0.1 -0.19 C-0.17 -0.21, -0.28 -0.18, -0.53 -0.19 M-0.53 -0.19 C-1.13 -0.9, -2.33 0.03, -1.05 0.33 M-0.53 -0.19 C-0.15 -1.14, -1.21 2.21, -1.05 0.33 M-1.05 0.33 C-0.81 17.88, -1.81 38.17, -1.05 51.16 M-1.05 0.33 C0.22 20.43, -0.15 39.7, -1.05 51.16" stroke="#1e1e1e" stroke-width="2" fill="none"></path></g><g transform="translate(562.007516798034 407.8301392988724) rotate(0 -0.5272540824107637 25.48505808520349)"><path d="M-8.36 27.26 C-7.39 35.22, -4.33 44.61, -1.05 51.16 M-8.36 27.26 C-6.21 33.85, -4.99 40.73, -1.05 51.16" stroke="#1e1e1e" stroke-width="2" fill="none"></path></g><g transform="translate(562.007516798034 407.8301392988724) rotate(0 -0.5272540824107637 25.48505808520349)"><path d="M8.71 28.15 C3.87 35.89, 1.12 44.98, -1.05 51.16 M8.71 28.15 C6.12 34.53, 2.59 41.16, -1.05 51.16" stroke="#1e1e1e" stroke-width="2" fill="none"></path></g></g><mask></mask><g stroke-linecap="round" transform="translate(232.50518727364033 562.3362520755836) rotate(0 29.00052332762516 27.945959848695566)"><path d="M39.7 1.77 C45.34 3.6, 52.17 10.12, 55.18 15.33 C58.19 20.53, 59.03 27.3, 57.76 33.02 C56.5 38.75, 52.65 45.98, 47.6 49.68 C42.54 53.38, 33.69 55.5, 27.45 55.22 C21.21 54.94, 14.52 51.72, 10.14 48 C5.77 44.29, 2.14 38.64, 1.18 32.94 C0.22 27.23, 1.16 18.9, 4.39 13.77 C7.63 8.64, 13.7 3.75, 20.59 2.15 C27.49 0.54, 40.81 3.04, 45.75 4.15 C50.69 5.26, 50.64 8.28, 50.25 8.83 M14.27 4.38 C19.17 1.25, 27.83 -0.05, 34.17 1 C40.51 2.04, 48.61 6.23, 52.33 10.67 C56.05 15.1, 56.88 21.47, 56.5 27.6 C56.11 33.73, 53.88 42.74, 50.01 47.43 C46.14 52.13, 39.31 55.16, 33.27 55.79 C27.23 56.42, 19.25 54.23, 13.78 51.24 C8.32 48.24, 2.42 43.65, 0.48 37.81 C-1.46 31.97, -0.6 21.82, 2.14 16.19 C4.88 10.55, 14.65 6.24, 16.92 4 C19.2 1.75, 15.7 2.27, 15.81 2.73" stroke="none" stroke-width="0" fill="#a5d8ff"></path><path d="M37.15 1.12 C42.95 2.16, 49.51 6.44, 52.99 11.53 C56.47 16.62, 58.76 25.41, 58.04 31.65 C57.32 37.89, 53.04 44.98, 48.66 48.98 C44.28 52.98, 37.77 55.48, 31.77 55.63 C25.78 55.79, 18.02 53.39, 12.71 49.93 C7.4 46.46, 1.62 40.38, -0.07 34.84 C-1.75 29.3, -0.22 22.09, 2.6 16.66 C5.42 11.24, 10.56 4.8, 16.85 2.3 C23.13 -0.21, 36.38 1.59, 40.32 1.65 C44.27 1.72, 40.7 2.11, 40.52 2.69 M16.99 1.89 C22.06 -0.85, 29.93 -0.52, 36.01 1.11 C42.1 2.75, 49.88 6.48, 53.5 11.68 C57.13 16.88, 58.33 26.21, 57.74 32.3 C57.16 38.39, 54.32 44.3, 50 48.24 C45.67 52.18, 38.18 55.67, 31.77 55.96 C25.37 56.24, 16.52 53.27, 11.58 49.95 C6.64 46.63, 3.42 41.64, 2.14 36.03 C0.85 30.42, 1.12 21.76, 3.86 16.27 C6.61 10.77, 16.22 5.28, 18.62 3.07 C21.03 0.86, 18.38 2.55, 18.3 3.01" stroke="#1e1e1e" stroke-width="2" fill="none"></path></g><g stroke-linecap="round"><g transform="translate(342.19491973686854 504.44486070445055) rotate(0 -40.39460456780216 26.445695685570172)"><path d="M0 0 C-0.19 2.36, 0.1 4.28, 0 7.25 M0 0 C0.24 1.96, 0.29 4.56, 0 7.25 M0 7.25 C-0.38 13.54, -3.71 12.62, -7.25 14.49 M0 7.25 C0.24 11.34, -0.25 13.73, -7.25 14.49 M-7.25 14.49 C-25.51 13.16, -38.44 15.75, -64.79 14.49 M-7.25 14.49 C-19.81 14.37, -32.75 14.75, -64.79 14.49 M-64.79 14.49 C-74.82 13.67, -80.93 21.77, -80.79 30.49 M-64.79 14.49 C-74.18 14.81, -79.68 20.03, -80.79 30.49 M-80.79 30.49 C-79.15 37.88, -80.15 44.68, -80.79 52.89 M-80.79 30.49 C-80.78 38.73, -80.05 46.21, -80.79 52.89" stroke="#1e1e1e" stroke-width="2" fill="none"></path></g><g transform="translate(342.19491973686854 504.44486070445055) rotate(0 -40.39460456780216 26.445695685570172)"><path d="M-86.41 34.53 C-85.27 40.49, -82.86 45.35, -80.79 52.89 M-86.41 34.53 C-84.1 39.47, -82.31 46.09, -80.79 52.89" stroke="#1e1e1e" stroke-width="2" fill="none"></path></g><g transform="translate(342.19491973686854 504.44486070445055) rotate(0 -40.39460456780216 26.445695685570172)"><path d="M-73.29 35.22 C-76 41.05, -77.43 45.71, -80.79 52.89 M-73.29 35.22 C-74.87 39.98, -76.96 46.4, -80.79 52.89" stroke="#1e1e1e" stroke-width="2" fill="none"></path></g></g><mask></mask><g stroke-linecap="round"><g transform="translate(261.40571060126604 623.2281717729711) rotate(0 -110.71065355659357 -104.35079704236705)"><path d="M0 0 C0.03 54.33, -0.41 106.93, 0 152.49 M0 0 C2.19 49.46, 1.05 98.2, 0 152.49 M0 152.49 C-1.29 161.28, -5.12 167.85, -16 168.49 M0 152.49 C2.16 162.4, -5.63 170.74, -16 168.49 M-16 168.49 C-75.89 168.51, -140.42 167.41, -234.63 168.49 M-16 168.49 C-91.07 167.84, -164.75 167.46, -234.63 168.49 M-234.63 168.49 C-245.44 170.43, -249.52 163.43, -250.63 152.49 M-234.63 168.49 C-244.19 168.7, -251.24 162.21, -250.63 152.49 M-250.63 152.49 C-252.12 -44.33, -252.07 -242.22, -250.63 -361.19 M-250.63 152.49 C-250.14 -3.95, -250.08 -160.42, -250.63 -361.19 M-250.63 -361.19 C-250.12 -371.64, -245.61 -375.76, -234.63 -377.19 M-250.63 -361.19 C-248.9 -371.09, -246.34 -376.03, -234.63 -377.19 M-234.63 -377.19 C-157.75 -377.25, -80.54 -374.51, 29.21 -377.19 M-234.63 -377.19 C-151.18 -378.5, -69.29 -378.42, 29.21 -377.19" stroke="#1e1e1e" stroke-width="2" fill="none"></path></g><g transform="translate(261.40571060126604 623.2281717729711) rotate(0 -110.71065355659357 -104.35079704236705)"><path d="M5.64 -368.86 C14.41 -371.81, 22.35 -376.4, 29.21 -377.19 M5.64 -368.86 C14.06 -370.68, 20.45 -373.34, 29.21 -377.19" stroke="#1e1e1e" stroke-width="2" fill="none"></path></g><g transform="translate(261.40571060126604 623.2281717729711) rotate(0 -110.71065355659357 -104.35079704236705)"><path d="M5.8 -385.96 C14.47 -382.82, 22.36 -381.33, 29.21 -377.19 M5.8 -385.96 C14.31 -382.32, 20.65 -379.51, 29.21 -377.19" stroke="#1e1e1e" stroke-width="2" fill="none"></path></g></g><mask></mask><g stroke-linecap="round" transform="translate(443.4558328187559 113.1068665986968) rotate(0 7.500038146972656 7.749996185302734)"><path d="M9.16 0.08 C10.58 0.27, 11.89 1.3, 12.89 2.52 C13.89 3.74, 15.04 5.62, 15.16 7.41 C15.28 9.19, 14.67 11.86, 13.61 13.22 C12.54 14.59, 10.36 15.34, 8.77 15.59 C7.18 15.85, 5.42 15.68, 4.08 14.75 C2.73 13.82, 1.25 11.64, 0.7 10 C0.16 8.35, 0.31 6.35, 0.82 4.88 C1.33 3.41, 2.44 1.95, 3.77 1.17 C5.1 0.39, 7.75 0.39, 8.8 0.21 C9.85 0.02, 9.95 -0.01, 10.06 0.06 M7.21 -0.71 C8.66 -0.65, 11.11 1.19, 12.43 2.46 C13.75 3.74, 14.89 5.37, 15.13 6.94 C15.38 8.5, 14.88 10.36, 13.89 11.85 C12.9 13.33, 10.76 15.45, 9.19 15.85 C7.63 16.26, 5.79 14.99, 4.51 14.28 C3.23 13.57, 2.22 13.08, 1.5 11.61 C0.79 10.14, -0.09 7.06, 0.22 5.46 C0.53 3.87, 1.99 2.87, 3.37 2.06 C4.76 1.26, 7.83 0.85, 8.54 0.64 C9.26 0.43, 7.84 0.84, 7.67 0.8" stroke="none" stroke-width="0" fill="#1e1e1e"></path><path d="M5.82 0.62 C7.34 0.14, 9.99 0.21, 11.5 0.88 C13.01 1.55, 14.43 3.08, 14.87 4.65 C15.31 6.23, 14.73 8.63, 14.12 10.33 C13.51 12.03, 12.53 14.03, 11.2 14.86 C9.87 15.7, 7.64 15.69, 6.16 15.34 C4.68 14.98, 3.43 14.03, 2.33 12.74 C1.23 11.44, -0.4 9.16, -0.44 7.58 C-0.47 5.99, 1.07 4.45, 2.13 3.21 C3.19 1.97, 5.15 0.63, 5.94 0.11 C6.73 -0.4, 6.81 0.07, 6.87 0.14 M7.5 0.73 C9.05 0.71, 11.48 0.98, 12.77 1.95 C14.07 2.91, 15.09 4.95, 15.26 6.52 C15.42 8.09, 14.54 9.83, 13.77 11.36 C13.01 12.89, 12.06 15.04, 10.66 15.7 C9.25 16.36, 6.85 15.92, 5.36 15.29 C3.87 14.66, 2.5 13.39, 1.7 11.91 C0.9 10.42, 0.41 8.01, 0.56 6.39 C0.72 4.77, 1.38 3.22, 2.62 2.19 C3.86 1.17, 7.09 0.52, 8 0.26 C8.91 0, 8.15 0.53, 8.11 0.63" stroke="#1e1e1e" stroke-width="2" fill="none"></path></g><g stroke-linecap="round" transform="translate(631.6224893128965 109.19020883298799) rotate(0 7.500038146972656 7.749996185302734)"><path d="M6.23 -0.28 C7.73 -0.62, 10.32 -0.2, 11.81 0.84 C13.29 1.88, 14.68 4.26, 15.12 5.96 C15.56 7.66, 15.09 9.53, 14.45 11.04 C13.8 12.55, 12.67 14.37, 11.26 15.03 C9.86 15.69, 7.61 15.45, 6.03 14.98 C4.45 14.52, 2.82 13.49, 1.8 12.24 C0.79 10.98, -0.02 9.1, -0.06 7.46 C-0.09 5.82, 0.31 3.71, 1.58 2.4 C2.85 1.09, 6.49 0.03, 7.55 -0.4 C8.61 -0.83, 7.99 -0.4, 7.94 -0.18 M7.05 0.35 C8.73 0.34, 11.01 0.8, 12.33 1.74 C13.65 2.69, 14.76 4.28, 14.98 6.01 C15.2 7.73, 14.44 10.71, 13.65 12.1 C12.87 13.49, 11.56 13.8, 10.26 14.37 C8.96 14.94, 7.37 16.01, 5.85 15.5 C4.33 15, 2.04 12.72, 1.13 11.33 C0.23 9.94, 0.09 8.62, 0.42 7.17 C0.75 5.71, 2.01 3.68, 3.11 2.59 C4.21 1.5, 6.38 1.1, 7.01 0.63 C7.63 0.16, 6.9 -0.36, 6.86 -0.22" stroke="none" stroke-width="0" fill="#1e1e1e"></path><path d="M9.38 0.07 C10.99 0.15, 12.89 1.29, 13.75 2.62 C14.61 3.95, 14.66 6.24, 14.53 8.03 C14.39 9.82, 13.96 12.15, 12.94 13.37 C11.92 14.59, 9.9 15.21, 8.42 15.35 C6.94 15.5, 5.47 15.16, 4.05 14.25 C2.64 13.34, 0.45 11.39, -0.06 9.88 C-0.57 8.38, 0.39 6.72, 0.99 5.23 C1.58 3.74, 2.11 1.8, 3.52 0.95 C4.93 0.11, 8.49 0.29, 9.45 0.15 C10.41 0.01, 9.32 -0.06, 9.26 0.1 M7.14 0.14 C8.72 -0.23, 10.84 0.54, 12.07 1.4 C13.29 2.26, 14.03 3.62, 14.52 5.32 C15 7.01, 15.53 9.95, 14.98 11.56 C14.44 13.18, 12.68 14.32, 11.25 15 C9.82 15.67, 7.96 16.04, 6.39 15.59 C4.83 15.15, 2.94 13.66, 1.87 12.33 C0.79 11, -0.19 9.23, -0.07 7.61 C0.04 5.99, 1.34 3.8, 2.57 2.62 C3.79 1.43, 6.56 0.9, 7.29 0.51 C8.02 0.12, 7.04 0.14, 6.94 0.28" stroke="#1e1e1e" stroke-width="2" fill="none"></path></g><g stroke-linecap="round"><g transform="translate(515.1680134247326 515.1255876481446) rotate(0 -119.00001525878906 137.39281381879664)"><path d="M0 0 C-0.02 0.01, -0.03 0, -0.07 0 M0 0 C-0.03 0, -0.05 0, -0.07 0 M-0.07 0 C-0.38 1.96, -0.52 -1.73, -0.14 0.07 M-0.07 0 C-1.53 2.1, 1.43 -1.91, -0.14 0.07 M-0.14 0.07 C0.13 77.92, 0.74 158.33, -0.14 258.79 M-0.14 0.07 C0.16 67.12, 0.1 134.02, -0.14 258.79 M-0.14 258.79 C-0.67 268.63, -3.78 276.52, -16.14 274.79 M-0.14 258.79 C1.3 270.3, -3.27 275.78, -16.14 274.79 M-16.14 274.79 C-89.02 275.63, -163.24 275.89, -222 274.79 M-16.14 274.79 C-90.99 275.63, -164.9 275.29, -222 274.79 M-222 274.79 C-233.57 275.8, -238.21 267.77, -238 258.79 M-222 274.79 C-234.18 275.53, -240.08 271.42, -238 258.79 M-238 258.79 C-236.55 200.94, -237.08 139.13, -238 103.68 M-238 258.79 C-237.26 200.98, -237.66 146.01, -238 103.68" stroke="#1e1e1e" stroke-width="2" fill="none"></path></g><g transform="translate(515.1680134247326 515.1255876481446) rotate(0 -119.00001525878906 137.39281381879664)"><path d="M-229.29 127.11 C-232.29 123.85, -231.78 116.34, -238 103.68 M-229.29 127.11 C-232.28 117.96, -234.69 109.21, -238 103.68" stroke="#1e1e1e" stroke-width="2" fill="none"></path></g><g transform="translate(515.1680134247326 515.1255876481446) rotate(0 -119.00001525878906 137.39281381879664)"><path d="M-246.39 127.23 C-245.57 123.8, -241.24 116.26, -238 103.68 M-246.39 127.23 C-243 118.2, -239.04 109.41, -238 103.68" stroke="#1e1e1e" stroke-width="2" fill="none"></path></g></g><mask></mask></svg>