<?xml version="1.0" standalone="no"?>
<!DOCTYPE svg PUBLIC "-//W3C//DTD SVG 1.1//EN" "http://www.w3.org/Graphics/SVG/1.1/DTD/svg11.dtd">
<svg version="1.1" xmlns="http://www.w3.org/2000/svg" viewBox="0 0 134.9475449172378 161.83891111566118" width="134.9475449172378" height="161.83891111566118"><!-- svg-source:excalidraw --><metadata></metadata><defs><style class="style-fonts">
      </style></defs><rect x="0" y="0" width="134.9475449172378" height="161.83891111566118" fill="#ffffff"></rect><g stroke-linecap="round" transform="translate(37.418740966171754 95.94699141827004) rotate(0 29.000523327625615 27.945959848695566)"><path d="M39.18 1.92 C45.03 3.7, 52.1 8.89, 55.12 14.03 C58.14 19.17, 58.49 26.94, 57.3 32.76 C56.11 38.58, 52.65 45.17, 47.98 48.95 C43.31 52.73, 35.58 55.36, 29.26 55.42 C22.93 55.48, 14.71 53.19, 10.03 49.31 C5.34 45.43, 2.04 38.18, 1.13 32.15 C0.22 26.11, 1.31 18.12, 4.56 13.11 C7.81 8.11, 14.11 3.62, 20.62 2.1 C27.13 0.59, 39.35 3.32, 43.61 4.01 C47.87 4.7, 46.65 5.8, 46.17 6.25 M33.05 -0.53 C38.87 0.24, 46.79 5.58, 51.11 10.34 C55.43 15.1, 58.95 21.99, 58.96 28.03 C58.98 34.06, 55.6 41.95, 51.2 46.55 C46.81 51.15, 38.69 54.63, 32.59 55.62 C26.49 56.61, 19.91 55.62, 14.62 52.48 C9.34 49.34, 3 42.58, 0.87 36.77 C-1.26 30.96, -0.57 23.21, 1.85 17.64 C4.26 12.08, 10.05 6.47, 15.37 3.39 C20.68 0.31, 30.7 -0.68, 33.74 -0.85 C36.78 -1.03, 33.57 1.52, 33.6 2.33" stroke="none" stroke-width="0" fill="#b2f2bb"></path><path d="M19.15 2.16 C24.47 -0.01, 32.71 -0.83, 38.71 1.39 C44.72 3.62, 51.9 10.29, 55.17 15.5 C58.44 20.71, 59.84 26.92, 58.34 32.65 C56.85 38.38, 51.13 45.99, 46.2 49.87 C41.28 53.75, 34.96 55.97, 28.79 55.95 C22.61 55.92, 13.86 53.68, 9.17 49.72 C4.48 45.76, 1.52 38.18, 0.63 32.19 C-0.27 26.19, -0.13 19.08, 3.81 13.74 C7.75 8.4, 20.26 2.24, 24.27 0.15 C28.27 -1.95, 27.9 0.61, 27.84 1.17 M19.6 1.52 C25.08 -0.88, 34.05 -1.34, 39.95 0.66 C45.84 2.66, 52.04 7.76, 54.97 13.52 C57.9 19.28, 59.12 29.28, 57.53 35.21 C55.94 41.13, 50.17 45.48, 45.43 49.08 C40.68 52.68, 35.09 57.03, 29.09 56.8 C23.08 56.58, 13.97 51.85, 9.41 47.72 C4.85 43.6, 2.81 37.65, 1.74 32.06 C0.67 26.48, -0.17 19.57, 3 14.21 C6.16 8.86, 17.97 1.81, 20.72 -0.08 C23.46 -1.96, 19.6 2.21, 19.49 2.91" stroke="#1e1e1e" stroke-width="2" fill="none"></path></g><g stroke-linecap="round" transform="translate(10 10) rotate(0 57.473772458618896 12.391134705952936)"><path d="M6.2 0 C27.58 2.77, 47.97 1.05, 108.75 0 C113.69 -2.51, 115.16 3.2, 114.95 6.2 C114.78 9.79, 115.6 14.28, 114.95 18.59 C113.28 19.48, 111.14 27.86, 108.75 24.78 C79.14 20.34, 44.3 26.63, 6.2 24.78 C0.84 21.2, 1.83 21.04, 0 18.59 C-0.92 17.6, -1.09 13.04, 0 6.2 C0.11 1.08, 1.73 2.35, 6.2 0" stroke="none" stroke-width="0" fill="#ced4da"></path><path d="M6.2 0 C45.34 -0.18, 82.94 2.06, 108.75 0 M6.2 0 C29.08 0.18, 49.27 -1.63, 108.75 0 M108.75 0 C113.06 0.97, 115.07 0.75, 114.95 6.2 M108.75 0 C114.73 0.69, 115.07 1.06, 114.95 6.2 M114.95 6.2 C114.08 11.09, 114.14 14.9, 114.95 18.59 M114.95 6.2 C114.77 9.2, 114.99 11.51, 114.95 18.59 M114.95 18.59 C115.41 20.94, 113.11 26.67, 108.75 24.78 M114.95 18.59 C112.79 21.33, 114.61 26.21, 108.75 24.78 M108.75 24.78 C79.44 23.88, 50.92 26.65, 6.2 24.78 M108.75 24.78 C87.19 25.54, 67.65 25.17, 6.2 24.78 M6.2 24.78 C3.55 23.62, -1.59 22.05, 0 18.59 M6.2 24.78 C2.1 26.38, -1.1 22.38, 0 18.59 M0 18.59 C1 15.09, 0.08 13.18, 0 6.2 M0 18.59 C-0.2 14.47, 0.39 9.5, 0 6.2 M0 6.2 C0.96 2.24, 2.45 -1.88, 6.2 0 M0 6.2 C1.74 2.93, 1.93 -0.38, 6.2 0" stroke="#1e1e1e" stroke-width="2" fill="none"></path></g><g stroke-linecap="round"><g transform="translate(67.37377245861899 39.78226941190587) rotate(0 -0.5272540824107637 25.48505808518894)"><path d="M0 0 C-0.01 -0.02, -0.01 -0.05, 0 -0.1 M0 0 C0 -0.04, 0 -0.07, 0 -0.1 M0 -0.1 C0.12 -1.48, 1.57 0.4, -0.1 -0.19 M0 -0.1 C0.12 -1.16, 0.76 0.22, -0.1 -0.19 M-0.1 -0.19 C-0.24 -0.18, -0.36 -0.19, -0.53 -0.19 M-0.1 -0.19 C-0.24 -0.21, -0.38 -0.21, -0.53 -0.19 M-0.53 -0.19 C-0.65 1.7, -2.93 -1.22, -1.05 0.33 M-0.53 -0.19 C0.85 1.23, -1.31 -1.51, -1.05 0.33 M-1.05 0.33 C0.5 21.41, -2.88 39.75, -1.05 51.16 M-1.05 0.33 C-0.56 18.73, -0.62 37.15, -1.05 51.16" stroke="#1e1e1e" stroke-width="2" fill="none"></path></g><g transform="translate(67.37377245861899 39.78226941190587) rotate(0 -0.5272540824107637 25.48505808518894)"><path d="M-9.12 27.5 C-8.37 34.49, -7.03 37.6, -1.05 51.16 M-9.12 27.5 C-6.71 35.32, -2.82 45.49, -1.05 51.16" stroke="#1e1e1e" stroke-width="2" fill="none"></path></g><g transform="translate(67.37377245861899 39.78226941190587) rotate(0 -0.5272540824107637 25.48505808518894)"><path d="M7.98 27.85 C4.71 34.69, 2.04 37.71, -1.05 51.16 M7.98 27.85 C4.03 35.7, 1.58 45.73, -1.05 51.16" stroke="#1e1e1e" stroke-width="2" fill="none"></path></g></g><mask></mask></svg>