<?xml version="1.0" standalone="no"?>
<!DOCTYPE svg PUBLIC "-//W3C//DTD SVG 1.1//EN" "http://www.w3.org/Graphics/SVG/1.1/DTD/svg11.dtd">
<svg version="1.1" xmlns="http://www.w3.org/2000/svg" viewBox="0 0 488.3440650420507 802.2022075531604" width="488.3440650420507" height="802.2022075531604"><!-- svg-source:excalidraw --><metadata></metadata><defs><style class="style-fonts">
      </style></defs><rect x="0" y="0" width="488.3440650420507" height="802.2022075531604" fill="#ffffff"></rect><g stroke-linecap="round" transform="translate(420.3430183868004 92.39583696572663) rotate(0 29.000523327625615 27.945959848695566)"><path d="M35.84 -0.17 C41.68 0.74, 48.44 5.1, 52.12 10.14 C55.8 15.19, 58.12 23.93, 57.95 30.08 C57.78 36.23, 55.46 42.63, 51.1 47.04 C46.75 51.45, 38.18 55.91, 31.82 56.54 C25.46 57.18, 18.11 54.18, 12.93 50.86 C7.76 47.53, 2.47 42.32, 0.76 36.6 C-0.94 30.88, 0.27 21.97, 2.69 16.53 C5.11 11.1, 9.4 6.45, 15.28 3.99 C21.15 1.53, 34.03 2.12, 37.94 1.78 C41.85 1.43, 39.17 1.74, 38.75 1.92 M21.38 2.61 C27.23 1.08, 35.27 1.42, 40.85 3.53 C46.43 5.64, 52.21 9.94, 54.86 15.24 C57.52 20.54, 58.02 29.58, 56.78 35.33 C55.54 41.08, 52.52 46.54, 47.41 49.74 C42.31 52.94, 32.27 54.72, 26.13 54.56 C19.98 54.39, 15.07 52.5, 10.54 48.73 C6.02 44.96, 0.15 37.87, -1.03 31.93 C-2.21 25.99, -0.12 18.36, 3.47 13.09 C7.06 7.82, 17.85 2.41, 20.49 0.32 C23.13 -1.77, 19.09 -0.2, 19.3 0.53" stroke="none" stroke-width="0" fill="#b2f2bb"></path><path d="M36.39 1.6 C42.02 2.38, 47.7 6.38, 51.17 10.86 C54.63 15.34, 57.42 22.32, 57.18 28.47 C56.94 34.63, 53.81 43.16, 49.74 47.77 C45.67 52.38, 38.91 55.49, 32.76 56.12 C26.61 56.74, 17.93 54.83, 12.83 51.5 C7.72 48.18, 3.94 42.02, 2.14 36.16 C0.34 30.3, -0.14 21.91, 2.02 16.32 C4.18 10.74, 8.99 5.08, 15.12 2.63 C21.24 0.18, 34.37 1.4, 38.78 1.62 C43.19 1.84, 41.61 3.37, 41.58 3.96 M22.25 1.01 C27.56 -1.03, 34.39 0.29, 39.93 2.63 C45.47 4.98, 52.68 9.72, 55.49 15.08 C58.3 20.43, 58.54 28.99, 56.8 34.75 C55.06 40.51, 50.21 46.25, 45.03 49.64 C39.84 53.04, 31.47 55.12, 25.7 55.12 C19.92 55.12, 14.64 53.4, 10.37 49.64 C6.09 45.87, 0.72 38.71, 0.03 32.54 C-0.65 26.36, 2.63 17.87, 6.24 12.59 C9.86 7.32, 19.29 2.78, 21.72 0.9 C24.16 -0.97, 20.88 1.1, 20.86 1.34" stroke="#1e1e1e" stroke-width="2" fill="none"></path></g><g stroke-linecap="round" transform="translate(443.17737462584046 113.02989060813707) rotate(0 7.500038146972656 7.749996185302734)"><path d="M5.9 0.59 C7.43 0.24, 10.03 0.18, 11.38 0.96 C12.74 1.74, 13.5 3.78, 14.01 5.25 C14.52 6.73, 14.9 8.27, 14.44 9.81 C13.98 11.34, 12.52 13.59, 11.23 14.47 C9.94 15.36, 8.29 15.29, 6.71 15.11 C5.13 14.93, 2.78 14.52, 1.74 13.4 C0.7 12.28, 0.47 10.15, 0.46 8.4 C0.46 6.65, 0.83 4.36, 1.71 2.91 C2.59 1.45, 4.99 0.2, 5.72 -0.32 C6.45 -0.84, 6.08 -0.46, 6.1 -0.22 M9.24 0.17 C10.67 0.42, 12.25 2.36, 13.3 3.65 C14.34 4.94, 15.66 6.47, 15.5 7.93 C15.33 9.39, 13.38 11.15, 12.31 12.43 C11.23 13.72, 10.64 15.29, 9.04 15.65 C7.45 16, 4.31 15.45, 2.75 14.54 C1.19 13.63, 0.05 11.89, -0.32 10.17 C-0.68 8.45, -0.05 5.89, 0.57 4.23 C1.19 2.57, 1.94 0.82, 3.42 0.21 C4.89 -0.39, 8.41 0.5, 9.41 0.61 C10.4 0.71, 9.39 0.67, 9.39 0.84" stroke="none" stroke-width="0" fill="#1e1e1e"></path><path d="M8.76 -0.27 C10.31 0.06, 12.17 2, 13.23 3.44 C14.29 4.87, 15.17 6.73, 15.1 8.33 C15.03 9.94, 13.86 11.88, 12.82 13.06 C11.78 14.25, 10.47 15.31, 8.89 15.45 C7.3 15.6, 4.79 14.85, 3.31 13.92 C1.82 12.98, 0.45 11.38, -0.02 9.85 C-0.48 8.32, -0.14 6.19, 0.52 4.73 C1.17 3.27, 2.32 1.73, 3.91 1.07 C5.5 0.41, 9.06 0.79, 10.05 0.76 C11.05 0.74, 9.93 0.8, 9.87 0.94 M7.6 -0.22 C9.15 -0.35, 10.89 0.82, 12 1.83 C13.11 2.84, 14.04 4.29, 14.26 5.84 C14.48 7.39, 13.89 9.48, 13.33 11.12 C12.77 12.76, 12.28 14.91, 10.9 15.7 C9.51 16.48, 6.53 16.47, 5.01 15.82 C3.49 15.18, 2.53 13.38, 1.79 11.82 C1.04 10.26, 0.43 8.13, 0.55 6.45 C0.67 4.77, 1.37 2.95, 2.5 1.75 C3.63 0.56, 6.43 -0.36, 7.32 -0.73 C8.2 -1.1, 7.77 -0.72, 7.83 -0.46" stroke="#1e1e1e" stroke-width="2" fill="none"></path></g><g stroke-linecap="round" transform="translate(326.40255354590226 341.6609029352985) rotate(0 29.00052332762516 27.945959848695566)"><path d="M2.48 15.41 C2.48 15.41, 2.48 15.41, 2.48 15.41 M2.48 15.41 C2.48 15.41, 2.48 15.41, 2.48 15.41 M0.65 29.71 C8.59 21.77, 14.34 15.79, 24.92 1.79 M0.65 29.71 C9.28 20.13, 18.63 9.63, 24.92 1.79 M4.06 37.98 C12.39 30.63, 19.98 19.7, 36.21 1 M4.06 37.98 C17.25 22.32, 30.19 8.96, 36.21 1 M8.13 45.49 C17.31 35.85, 24.51 26.73, 42.9 5.49 M8.13 45.49 C15.8 38.09, 22.37 28.44, 42.9 5.49 M13.51 51.5 C27.15 35.55, 41.06 23.64, 48.94 10.74 M13.51 51.5 C22.76 40.72, 30.99 31.42, 48.94 10.74 M22.18 53.73 C28.8 47.11, 37.03 36.49, 53.67 17.5 M22.18 53.73 C31.63 41.28, 41.14 30.74, 53.67 17.5 M30.18 56.71 C37.78 49.35, 43.77 42.25, 56.42 26.52 M30.18 56.71 C38.72 46.06, 49.25 36.35, 56.42 26.52 M46.06 50.64 C48.59 47.9, 50.18 44.52, 51.96 43.85 M46.06 50.64 C47.99 48.23, 50.82 45.28, 51.96 43.85 M10.82 50.05 C10.82 50.05, 10.82 50.05, 10.82 50.05 M10.82 50.05 C10.82 50.05, 10.82 50.05, 10.82 50.05 M29.65 55.82 C18.4 47.36, 9.74 38.11, 0.98 30.89 M29.65 55.82 C18.06 46.06, 7.74 36.52, 0.98 30.89 M38.68 53.06 C25.39 41.07, 13.64 32.69, 2.45 21.57 M38.68 53.06 C29.73 44.57, 20.62 36.96, 2.45 21.57 M46.94 49.65 C33.31 39.72, 20.65 26.38, 4.68 12.91 M46.94 49.65 C37.76 42.12, 25.97 33.32, 4.68 12.91 M51.44 42.95 C36.2 32.02, 24.71 17.24, 11.44 8.18 M51.44 42.95 C37.6 32.2, 24.73 20.01, 11.44 8.18 M55.18 35.6 C47.13 27.86, 35.14 20.86, 17.44 2.8 M55.18 35.6 C42.77 24.16, 30.37 13.71, 17.44 2.8 M56.65 26.29 C47.16 20.26, 39.69 11.97, 27.22 0.7 M56.65 26.29 C50.69 21.34, 42.3 15.08, 27.22 0.7" stroke="#b2f2bb" stroke-width="1" fill="none"></path><path d="M18.81 1.36 C23.93 -1.31, 31.94 -1.56, 37.63 0.49 C43.31 2.55, 49.63 8.51, 52.93 13.69 C56.24 18.87, 58.32 25.59, 57.46 31.59 C56.6 37.59, 52.36 45.59, 47.76 49.68 C43.16 53.78, 35.99 56.06, 29.86 56.14 C23.74 56.23, 15.92 53.98, 11 50.2 C6.08 46.42, 1.73 39.27, 0.34 33.44 C-1.05 27.6, -0.59 20.38, 2.68 15.19 C5.95 10, 16.93 4.49, 19.96 2.3 C22.99 0.11, 20.92 1.72, 20.87 2.04" stroke="#1e1e1e" stroke-width="2.5" fill="none" stroke-dasharray="8 10"></path></g><g stroke-linecap="round" transform="translate(226.8820431121694 95.94699141827004) rotate(0 29.00052332762516 27.945959848695566)"><path d="M40.68 1.23 C46.35 2.78, 52.8 8.47, 55.58 13.91 C58.36 19.34, 58.97 27.78, 57.35 33.83 C55.74 39.88, 50.72 46.61, 45.88 50.2 C41.05 53.8, 34.55 55.56, 28.35 55.41 C22.16 55.26, 13.38 53.17, 8.71 49.29 C4.03 45.42, 1.14 38.06, 0.29 32.17 C-0.56 26.29, 0.48 18.96, 3.61 13.98 C6.75 9, 12.67 3.95, 19.1 2.28 C25.53 0.62, 37.85 3.51, 42.18 3.98 C46.5 4.46, 45.37 4.77, 45.06 5.15 M36.19 2.48 C42.38 3.51, 50.78 6.9, 54.44 11.75 C58.1 16.61, 58.93 25.6, 58.12 31.58 C57.31 37.57, 54.2 43.45, 49.56 47.66 C44.93 51.87, 36.78 56.52, 30.3 56.85 C23.82 57.18, 15.57 53.46, 10.71 49.65 C5.85 45.85, 2.21 39.65, 1.13 34.01 C0.06 28.38, 1.65 21.06, 4.26 15.83 C6.87 10.6, 11.08 4.93, 16.8 2.65 C22.52 0.37, 35.28 2.49, 38.58 2.17 C41.87 1.85, 37.16 0.34, 36.57 0.72" stroke="none" stroke-width="0" fill="#b2f2bb"></path><path d="M35.65 -0.06 C41.25 1.17, 48.12 7.09, 51.79 12.04 C55.46 16.99, 58.11 23.57, 57.68 29.62 C57.26 35.66, 53.54 43.91, 49.25 48.31 C44.95 52.71, 38.01 55.5, 31.92 56.01 C25.82 56.52, 17.84 54.81, 12.66 51.37 C7.48 47.93, 2.65 41.1, 0.83 35.36 C-0.98 29.63, -0.93 22.28, 1.77 16.96 C4.47 11.65, 10.51 5.89, 17.01 3.49 C23.51 1.08, 36.32 2.31, 40.75 2.53 C45.19 2.75, 43.88 4.33, 43.62 4.83 M41.63 1.51 C46.83 3.68, 52.08 9.58, 54.68 15.29 C57.28 21, 58.84 30, 57.23 35.77 C55.62 41.55, 50.46 46.37, 45.02 49.92 C39.59 53.47, 30.9 57.4, 24.62 57.09 C18.35 56.78, 11.43 52.37, 7.39 48.07 C3.34 43.77, 0.77 37.19, 0.36 31.29 C-0.05 25.38, 1.3 17.55, 4.95 12.63 C8.59 7.71, 16.1 3.57, 22.23 1.77 C28.37 -0.03, 38.59 1.47, 41.76 1.84 C44.92 2.21, 41.34 3.36, 41.21 3.97" stroke="#1e1e1e" stroke-width="2" fill="none"></path></g><g stroke-linecap="round" transform="translate(199.46330214599766 10) rotate(0 57.47377245861935 12.391134705952936)"><path d="M6.2 0 C28.59 -0.88, 55.68 -0.29, 108.75 0 C111.66 -1.32, 117.39 -0.57, 114.95 6.2 C116.84 9.68, 114.16 12.76, 114.95 18.59 C118.35 25.21, 111.85 22.52, 108.75 24.78 C84.26 22.34, 66.5 23.67, 6.2 24.78 C2.94 25.25, 1.84 20.99, 0 18.59 C1.29 17.01, 2.11 12.99, 0 6.2 C1.63 3.14, 1.72 -1.7, 6.2 0" stroke="none" stroke-width="0" fill="#ced4da"></path><path d="M6.2 0 C30.27 -1.75, 51.24 -2.34, 108.75 0 M6.2 0 C29.04 -0.3, 53.52 0.23, 108.75 0 M108.75 0 C113.41 -0.08, 115.58 1.54, 114.95 6.2 M108.75 0 C112.45 -1.8, 116.04 3.51, 114.95 6.2 M114.95 6.2 C114.25 10.8, 114.79 16.21, 114.95 18.59 M114.95 6.2 C114.95 10.49, 114.66 15.33, 114.95 18.59 M114.95 18.59 C115.44 22.8, 112.7 23.14, 108.75 24.78 M114.95 18.59 C112.98 24.79, 111.8 25.94, 108.75 24.78 M108.75 24.78 C77.53 24.6, 44.47 24.33, 6.2 24.78 M108.75 24.78 C85.25 25.28, 60.33 25.09, 6.2 24.78 M6.2 24.78 C3.6 25.94, 1.1 24.33, 0 18.59 M6.2 24.78 C0.2 27.02, -2.12 22.69, 0 18.59 M0 18.59 C0.58 14.2, -0.98 11.7, 0 6.2 M0 18.59 C0.48 14.28, 0.52 11.06, 0 6.2 M0 6.2 C1.76 3.64, 2.65 -1.27, 6.2 0 M0 6.2 C1.53 3.38, 0.15 1.01, 6.2 0" stroke="#1e1e1e" stroke-width="2" fill="none"></path></g><g stroke-linecap="round" transform="translate(311.2472421118837 235.4131485348771) rotate(0 57.473772458618896 12.391134705952936)"><path d="M1.65 1.43 C1.65 1.43, 1.65 1.43, 1.65 1.43 M1.65 1.43 C1.65 1.43, 1.65 1.43, 1.65 1.43 M0.47 14.98 C3.58 9.38, 10.21 2.11, 12.94 0.64 M0.47 14.98 C3.6 10.96, 8.48 6.11, 12.94 0.64 M3.23 24.01 C9.35 18.82, 13.76 15.45, 23.57 0.61 M3.23 24.01 C10.64 15.33, 17.21 7.81, 23.57 0.61 M13.2 24.73 C21.58 16.14, 30.09 5.31, 34.2 0.58 M13.2 24.73 C18.03 18.73, 23.75 12.99, 34.2 0.58 M23.83 24.69 C32.51 18.32, 36.75 7.98, 44.83 0.54 M23.83 24.69 C27.53 19.23, 33.2 14.43, 44.83 0.54 M34.46 24.66 C40.28 15.83, 46.42 8.55, 55.46 0.51 M34.46 24.66 C41.97 16.48, 49.28 7.48, 55.46 0.51 M45.09 24.62 C51.98 17.38, 54.22 13.42, 66.09 0.47 M45.09 24.62 C50.83 16.1, 58.03 9.96, 66.09 0.47 M55.72 24.59 C61.55 20.15, 65.39 12.29, 76.72 0.44 M55.72 24.59 C63.65 16.08, 71.6 6.62, 76.72 0.44 M65.7 25.31 C74.05 18.24, 78.39 8.88, 87.35 0.4 M65.7 25.31 C72.36 18.96, 78.9 10.21, 87.35 0.4 M76.33 25.27 C80.27 19.65, 87.29 15.09, 97.98 0.37 M76.33 25.27 C81.58 18.86, 86.79 13.45, 97.98 0.37 M86.96 25.24 C94.12 15.57, 104.72 7.1, 108.61 0.33 M86.96 25.24 C96.26 14.62, 104.02 4.27, 108.61 0.33 M97.59 25.2 C104.29 20.25, 109.55 11.07, 114.64 5.58 M97.59 25.2 C103.57 16.78, 110.31 10.38, 114.64 5.58 M108.22 25.17 C110.61 22.76, 112.54 20.06, 114.78 17.62 M108.22 25.17 C109.64 23.23, 111.37 21.83, 114.78 17.62 M3.76 24.63 C3.76 24.63, 3.76 24.63, 3.76 24.63 M3.76 24.63 C3.76 24.63, 3.76 24.63, 3.76 24.63 M15.8 24.5 C14.1 22.88, 10.38 21.11, 5.24 15.32 M15.8 24.5 C11.4 20.47, 7.29 17.66, 5.24 15.32 M27.84 24.37 C18.11 14.96, 10.21 8.19, 1.43 1.41 M27.84 24.37 C17.67 15.06, 7.92 6.3, 1.43 1.41 M39.88 24.24 C28.13 14.47, 20.43 4.85, 8.94 -2.66 M39.88 24.24 C32.03 17.87, 23.01 9.15, 8.94 -2.66 M52.68 24.76 C42.58 14.93, 32.92 10.11, 20.98 -2.8 M52.68 24.76 C42.88 15.04, 33.2 6.08, 20.98 -2.8 M64.72 24.62 C55.37 15.79, 41.85 5.06, 33.02 -2.93 M64.72 24.62 C53.02 15.11, 43.19 4.99, 33.02 -2.93 M76.76 24.49 C65.51 16.12, 50.93 3.81, 45.06 -3.06 M76.76 24.49 C64.53 13.9, 54.02 4.62, 45.06 -3.06 M89.56 25.01 C81.12 17.3, 75.68 10.92, 57.86 -2.54 M89.56 25.01 C78.6 15.67, 67.72 6.07, 57.86 -2.54 M101.6 24.88 C95.65 16.03, 86.2 11.58, 69.9 -2.67 M101.6 24.88 C93.88 17.1, 84.19 9.13, 69.9 -2.67 M110.62 22.12 C101.21 14.04, 88.12 4.97, 81.94 -2.81 M110.62 22.12 C102.97 15.95, 95.62 7.79, 81.94 -2.81 M117.38 17.4 C114.34 15.11, 106.46 7.94, 94.74 -2.28 M117.38 17.4 C111.5 13.91, 106.9 8.74, 94.74 -2.28 M117.34 6.77 C114.29 4.8, 111.52 2.73, 106.78 -2.42 M117.34 6.77 C113.93 3.88, 108.75 -0.29, 106.78 -2.42" stroke="#ced4da" stroke-width="1" fill="none"></path><path d="M6.2 0 C41.11 -1.19, 76.43 1.51, 108.75 0 M108.75 0 C112.4 -0.76, 113.86 3.83, 114.95 6.2 M114.95 6.2 C115.37 9.57, 114.75 12.63, 114.95 18.59 M114.95 18.59 C115.9 23.98, 114.29 25.36, 108.75 24.78 M108.75 24.78 C75.04 26.15, 43.79 25.75, 6.2 24.78 M6.2 24.78 C0.37 24.59, -1.8 21.59, 0 18.59 M0 18.59 C-0.14 14.97, -1.09 14.5, 0 6.2 M0 6.2 C-0.94 3.07, 2.46 1.94, 6.2 0" stroke="#1e1e1e" stroke-width="2.5" fill="none" stroke-dasharray="8 10"></path></g><g stroke-linecap="round"><g transform="translate(258.5189776513962 156.72319235835312) rotate(0 43.237168007342916 36.844978088263815)"><path d="M0 0 C-1.57 5.85, -0.58 9.19, 0 20.9 M0 20.9 C-1.08 33.33, 5.31 37.43, 16 36.9 M16 36.9 C31.74 35.48, 49.2 38.31, 70.47 36.9 M70.47 36.9 C82.54 37.48, 86.99 41.05, 86.47 52.9 M86.47 52.9 C88.27 60.12, 84.74 65.25, 86.47 73.69" stroke="#1e1e1e" stroke-width="2.5" fill="none" stroke-dasharray="8 10"></path></g><g transform="translate(258.5189776513962 156.72319235835312) rotate(0 43.237168007342916 36.844978088263815)"><path d="M79.13 56.83 C79.44 61.71, 82.1 64.22, 86.47 73.69" stroke="#1e1e1e" stroke-width="2.5" fill="none"></path></g><g transform="translate(258.5189776513962 156.72319235835312) rotate(0 43.237168007342916 36.844978088263815)"><path d="M91.68 56.05 C89.01 61.01, 88.68 63.7, 86.47 73.69" stroke="#1e1e1e" stroke-width="2.5" fill="none"></path></g></g><mask></mask><g stroke-linecap="round"><g transform="translate(444.5496252818957 153.67506459428114) rotate(0 -37.964305355696524 38.369041970297985)"><path d="M0 0 C-0.64 3.9, -1.25 11.09, 0 22.37 M0 22.37 C-0.02 33.56, -5.41 39, -16 38.37 M-16 38.37 C-27.06 39.29, -38.63 38.61, -59.93 38.37 M-59.93 38.37 C-70.08 37.18, -75.9 43.39, -75.93 54.37 M-75.93 54.37 C-77.42 62.4, -77.52 69.69, -75.93 76.74" stroke="#1e1e1e" stroke-width="2.5" fill="none" stroke-dasharray="8 10"></path></g><g transform="translate(444.5496252818957 153.67506459428114) rotate(0 -37.964305355696524 38.369041970297985)"><path d="M-85.15 59.91 C-83.81 62.65, -82.47 68.58, -75.93 76.74" stroke="#1e1e1e" stroke-width="2.5" fill="none"></path></g><g transform="translate(444.5496252818957 153.67506459428114) rotate(0 -37.964305355696524 38.369041970297985)"><path d="M-72.18 57.92 C-73.56 61.13, -74.92 67.48, -75.93 76.74" stroke="#1e1e1e" stroke-width="2.5" fill="none"></path></g></g><mask></mask><g stroke-linecap="round"><g transform="translate(256.83707460461665 39.78226941190587) rotate(0 -0.5272540824107637 25.48505808518712)"><path d="M0 0 C-0.01 -0.02, 0 -0.06, 0 -0.1 M0 0 C0 -0.03, 0 -0.05, 0 -0.1 M0 -0.1 C1.4 0.42, 0.48 -1.38, -0.1 -0.19 M0 -0.1 C0.04 -0.52, 1.52 1.9, -0.1 -0.19 M-0.1 -0.19 C-0.29 -0.22, -0.43 -0.18, -0.53 -0.19 M-0.1 -0.19 C-0.25 -0.18, -0.37 -0.19, -0.53 -0.19 M-0.53 -0.19 C-0.49 1.75, -1.89 1.53, -1.05 0.33 M-0.53 -0.19 C-0.6 1.27, -1.08 -1.58, -1.05 0.33 M-1.05 0.33 C-0.7 12.97, -1.07 30.27, -1.05 51.16 M-1.05 0.33 C-1.58 19.49, -1.7 36.68, -1.05 51.16" stroke="#1e1e1e" stroke-width="2" fill="none"></path></g><g transform="translate(256.83707460461665 39.78226941190587) rotate(0 -0.5272540824107637 25.48505808518712)"><path d="M-10.26 27.92 C-8.23 37.71, -4.01 44.47, -1.05 51.16 M-10.26 27.92 C-7.65 34.04, -4.26 42.33, -1.05 51.16" stroke="#1e1e1e" stroke-width="2" fill="none"></path></g><g transform="translate(256.83707460461665 39.78226941190587) rotate(0 -0.5272540824107637 25.48505808518712)"><path d="M6.84 27.44 C2.98 37.33, 1.33 44.25, -1.05 51.16 M6.84 27.44 C4.39 33.66, 2.72 42.09, -1.05 51.16" stroke="#1e1e1e" stroke-width="2" fill="none"></path></g></g><mask></mask><g stroke-linecap="round"><g transform="translate(356.47367487462 272.0753879647673) rotate(0 -0.5272540824107637 25.48505808520349)"><path d="M0 0 C0 -0.02, -0.01 -0.06, 0 -0.1 M0 -0.1 C1.81 -1.11, 0.97 0.2, -0.1 -0.19 M-0.1 -0.19 C-0.26 -0.16, -0.44 -0.22, -0.53 -0.19 M-0.53 -0.19 C-1.29 0.62, -0.42 0.13, -1.05 0.33 M-1.05 0.33 C0.04 12.71, 0.5 21.28, -1.05 51.16" stroke="#1e1e1e" stroke-width="2.5" fill="none" stroke-dasharray="8 10"></path></g><g transform="translate(356.47367487462 272.0753879647673) rotate(0 -0.5272540824107637 25.48505808520349)"><path d="M-8.64 27.34 C-6.92 32.95, -6.79 37.23, -1.05 51.16" stroke="#1e1e1e" stroke-width="2.5" fill="none"></path></g><g transform="translate(356.47367487462 272.0753879647673) rotate(0 -0.5272540824107637 25.48505808520349)"><path d="M8.45 28.04 C6.01 33.52, 1.97 37.63, -1.05 51.16" stroke="#1e1e1e" stroke-width="2.5" fill="none"></path></g></g><mask></mask><g stroke-linecap="round" transform="translate(232.78580280871938 562.3362520755763) rotate(0 29.00052332762516 27.945959848695566)"><path d="M6.22 10.71 C6.22 10.71, 6.22 10.71, 6.22 10.71 M6.22 10.71 C6.22 10.71, 6.22 10.71, 6.22 10.71 M1.76 28.03 C10.23 19.56, 17.22 8.22, 25.38 0.86 M1.76 28.03 C7.69 22.84, 12.47 16.49, 25.38 0.86 M4.52 37.06 C12.63 27.74, 25.82 13.36, 34.7 2.34 M4.52 37.06 C10.86 29.22, 16.28 21.25, 34.7 2.34 M7.93 45.32 C18.11 34.86, 26.62 26.17, 43.36 4.57 M7.93 45.32 C20.07 33.16, 30.59 20.34, 43.36 4.57 M14.63 49.82 C29.19 34.1, 43.67 19.2, 48.74 10.57 M14.63 49.82 C24.13 39.44, 33.26 30.01, 48.74 10.57 M21.98 53.56 C33.21 41.12, 44.34 27.2, 54.78 15.82 M21.98 53.56 C34.66 39.61, 46.51 25.16, 54.78 15.82 M30.64 55.79 C40.47 46.07, 46.82 35.72, 56.88 25.6 M30.64 55.79 C38.25 46.23, 48.47 34.71, 56.88 25.6 M43.89 52.73 C45.43 50.46, 46.87 50.4, 49.14 46.69 M43.89 52.73 C45.57 51.03, 46.76 48.83, 49.14 46.69 M8.03 45.64 C8.03 45.64, 8.03 45.64, 8.03 45.64 M8.03 45.64 C8.03 45.64, 8.03 45.64, 8.03 45.64 M30.63 54.69 C23.72 46.83, 16 42.95, 1.2 29.1 M30.63 54.69 C19.24 43.69, 6.58 33.78, 1.2 29.1 M40.41 52.59 C29.06 42.64, 16.29 30.91, 3.43 20.44 M40.41 52.59 C31.95 46.42, 23.8 38.23, 3.43 20.44 M47.17 47.86 C36.32 39.12, 22.75 25.75, 5.66 11.78 M47.17 47.86 C33.86 36.33, 21.6 25.7, 5.66 11.78 M52.42 41.83 C40.85 30.07, 24.78 18.21, 12.42 7.06 M52.42 41.83 C37.81 30.13, 24.43 17.44, 12.42 7.06 M56.91 35.13 C45.96 22.15, 30.99 11.54, 19.17 2.33 M56.91 35.13 C47.51 26.28, 37.44 17.28, 19.17 2.33 M56.88 24.5 C44.35 15.69, 36.5 6.14, 29.71 0.88 M56.88 24.5 C51.05 20.54, 44.6 14.24, 29.71 0.88" stroke="#a5d8ff" stroke-width="1" fill="none"></path><path d="M23.6 0.6 C29.05 -0.99, 36.48 0.2, 41.93 3.06 C47.38 5.92, 53.84 12.33, 56.29 17.78 C58.75 23.24, 58.67 30.02, 56.66 35.79 C54.66 41.56, 49.45 49.01, 44.27 52.41 C39.08 55.81, 31.55 57.27, 25.55 56.17 C19.55 55.08, 12.35 50.54, 8.26 45.84 C4.17 41.15, 1.35 33.84, 0.99 28.01 C0.64 22.17, 1.37 15.44, 6.13 10.82 C10.89 6.19, 24.2 1.83, 29.53 0.27 C34.87 -1.3, 38.14 0.9, 38.13 1.42 M30.39 -1.41 C36.44 -1.58, 44.36 2.15, 49.11 6.45 C53.86 10.75, 58 18.62, 58.9 24.39 C59.8 30.16, 57.68 35.95, 54.49 41.07 C51.31 46.19, 45.93 52.81, 39.81 55.1 C33.68 57.4, 23.88 56.82, 17.72 54.83 C11.56 52.84, 5.51 48.59, 2.85 43.17 C0.19 37.74, 0.44 28.3, 1.76 22.27 C3.08 16.25, 6.1 10.81, 10.75 7.01 C15.4 3.21, 26.7 0.4, 29.67 -0.51 C32.64 -1.42, 28.85 1.16, 28.57 1.57" stroke="#1e1e1e" stroke-width="2" fill="none"></path></g><g stroke-linecap="round"><g transform="translate(261.68632613634327 623.2281717729638) rotate(0 -110.71065355659357 -104.35079704236705)"><path d="M0 0 C2.46 39.33, -0.17 78.29, 0 152.49 M0 152.49 C0.82 163.79, -5.18 166.93, -16 168.49 M-16 168.49 C-78.23 170.99, -143.78 171.28, -234.63 168.49 M-234.63 168.49 C-247.15 168.47, -250.49 161.22, -250.63 152.49 M-250.63 152.49 C-252.1 -12.98, -251.39 -179.12, -250.63 -361.19 M-250.63 -361.19 C-252.22 -370.16, -247.19 -375.36, -234.63 -377.19 M-234.63 -377.19 C-157.92 -379.85, -81.08 -377.93, 29.21 -377.19" stroke="#1e1e1e" stroke-width="2.5" fill="none" stroke-dasharray="8 10"></path></g><g transform="translate(261.68632613634327 623.2281717729638) rotate(0 -110.71065355659357 -104.35079704236705)"><path d="M5.64 -368.86 C12.94 -371.06, 16.39 -373.6, 29.21 -377.19" stroke="#1e1e1e" stroke-width="2.5" fill="none"></path></g><g transform="translate(261.68632613634327 623.2281717729638) rotate(0 -110.71065355659357 -104.35079704236705)"><path d="M5.8 -385.96 C13.19 -383.75, 16.6 -381.88, 29.21 -377.19" stroke="#1e1e1e" stroke-width="2.5" fill="none"></path></g></g><mask></mask></svg>