<?xml version="1.0" standalone="no"?>
<!DOCTYPE svg PUBLIC "-//W3C//DTD SVG 1.1//EN" "http://www.w3.org/Graphics/SVG/1.1/DTD/svg11.dtd">
<svg version="1.1" xmlns="http://www.w3.org/2000/svg" viewBox="0 0 677.3046502463421 802.8949738045776" width="677.3046502463421" height="802.8949738045776"><!-- svg-source:excalidraw --><metadata></metadata><defs><style class="style-fonts">
      </style></defs><rect x="0" y="0" width="677.3046502463421" height="802.8949738045776" fill="#ffffff"></rect><g stroke-linecap="round" transform="translate(326.037006180095 341.6609029352985) rotate(0 29.00052332762516 27.945959848695566)"><path d="M26.32 -0.7 C31.93 -1.39, 40.08 1.99, 45.18 5.56 C50.29 9.13, 55.29 15.07, 56.96 20.72 C58.63 26.37, 57.79 33.9, 55.2 39.44 C52.62 44.99, 47.22 51.39, 41.45 54.01 C35.68 56.64, 26.73 57.04, 20.57 55.2 C14.41 53.35, 7.97 47.9, 4.46 42.93 C0.96 37.96, -1.04 31.16, -0.47 25.37 C0.11 19.58, 2.93 12.56, 7.9 8.2 C12.88 3.84, 25.21 0.51, 29.41 -0.79 C33.6 -2.09, 33 -0.31, 33.07 0.39 M42.27 1.61 C47.46 3.94, 53.14 11.91, 55.42 17.45 C57.69 22.99, 57.64 29.18, 55.94 34.87 C54.24 40.55, 50.29 48.25, 45.21 51.55 C40.12 54.84, 31.52 55.28, 25.42 54.63 C19.31 53.99, 12.59 51.98, 8.57 47.68 C4.55 43.38, 1.63 34.68, 1.29 28.82 C0.96 22.95, 2.93 17.32, 6.57 12.48 C10.21 7.63, 17 1.16, 23.11 -0.26 C29.22 -1.67, 40.29 3.4, 43.23 4 C46.16 4.59, 41.29 3.22, 40.75 3.32" stroke="none" stroke-width="0" fill="#b2f2bb"></path><path d="M33.51 0.62 C39.5 1.57, 47.37 6.5, 51.35 10.93 C55.33 15.35, 57.34 21.3, 57.36 27.17 C57.39 33.04, 55.39 41.39, 51.48 46.15 C47.58 50.91, 40.25 54.84, 33.93 55.72 C27.6 56.6, 18.72 54.32, 13.51 51.42 C8.29 48.51, 4.75 43.71, 2.64 38.28 C0.54 32.86, -1.16 24.63, 0.87 18.86 C2.9 13.1, 8.94 6.79, 14.81 3.7 C20.69 0.6, 32.37 0.67, 36.11 0.3 C39.84 -0.06, 37.24 0.98, 37.21 1.5 M39.16 -0.01 C44.68 1.56, 50.71 8.9, 53.95 14.42 C57.19 19.94, 59.34 27.53, 58.6 33.11 C57.85 38.69, 54.28 44.35, 49.48 47.9 C44.69 51.44, 36.37 54.16, 29.82 54.39 C23.26 54.62, 15.22 52.83, 10.17 49.27 C5.12 45.71, 0.59 38.85, -0.51 33.01 C-1.61 27.16, 0.51 19.51, 3.57 14.19 C6.63 8.88, 11.83 3.43, 17.86 1.12 C23.88 -1.19, 36.18 0.42, 39.7 0.34 C43.23 0.26, 39.26 -0.08, 39.02 0.63" stroke="#1e1e1e" stroke-width="2" fill="none"></path></g><g stroke-linecap="round" transform="translate(226.51649574636212 95.94699141827004) rotate(0 29.00052332762516 27.945959848695566)"><path d="M23 0.94 C28.76 -0.37, 37.54 0.66, 43.05 3.43 C48.56 6.21, 53.81 11.86, 56.08 17.59 C58.36 23.32, 58.87 32.04, 56.7 37.81 C54.53 43.59, 48.56 49.44, 43.06 52.24 C37.55 55.03, 29.76 55.6, 23.66 54.59 C17.57 53.58, 10.52 50.55, 6.46 46.2 C2.41 41.84, -0.61 34.56, -0.68 28.44 C-0.75 22.33, 0.94 14.3, 6.03 9.49 C11.12 4.67, 24.87 0.8, 29.88 -0.44 C34.88 -1.68, 35.91 1.36, 36.06 2.03 M28.85 0.39 C34.61 0.09, 42.1 1.51, 46.96 5.34 C51.83 9.17, 56.84 17.44, 58.02 23.38 C59.2 29.32, 57.1 35.73, 54.03 40.99 C50.96 46.25, 45.23 52.85, 39.59 54.95 C33.95 57.05, 26.05 55.56, 20.2 53.6 C14.36 51.64, 7.71 48.44, 4.52 43.18 C1.33 37.91, -0.09 27.96, 1.07 21.99 C2.23 16.03, 7.02 11.09, 11.5 7.39 C15.98 3.68, 25.17 1.06, 27.96 -0.24 C30.75 -1.54, 27.81 -0.79, 28.23 -0.4" stroke="none" stroke-width="0" fill="#b2f2bb"></path><path d="M16.46 3.75 C21.59 0.78, 29.37 -1.29, 35.42 0.06 C41.48 1.4, 49.03 6.77, 52.76 11.79 C56.49 16.81, 58.48 24.38, 57.82 30.19 C57.17 36, 53 42.27, 48.84 46.66 C44.69 51.05, 39.05 55.71, 32.88 56.53 C26.72 57.35, 17.11 55.07, 11.86 51.57 C6.62 48.08, 2.98 41.49, 1.42 35.56 C-0.15 29.63, -0.26 21.68, 2.48 15.98 C5.22 10.28, 14.64 3.77, 17.86 1.35 C21.08 -1.08, 21.37 0.78, 21.79 1.44 M34.05 1.41 C39.94 2.42, 47.83 6.59, 52.04 10.82 C56.25 15.04, 59.42 21.18, 59.33 26.76 C59.23 32.34, 55.77 39.6, 51.46 44.29 C47.15 48.99, 39.8 53.69, 33.48 54.94 C27.17 56.19, 18.84 54.73, 13.57 51.79 C8.29 48.86, 3.9 42.98, 1.82 37.3 C-0.26 31.63, -1.23 23.51, 1.1 17.74 C3.43 11.97, 10.16 5.81, 15.78 2.69 C21.4 -0.43, 31.65 -0.76, 34.8 -0.97 C37.94 -1.17, 35.15 0.66, 34.67 1.47" stroke="#1e1e1e" stroke-width="2" fill="none"></path></g><g stroke-linecap="round" transform="translate(199.09775478019037 10) rotate(0 57.47377245861935 12.391134705952936)"><path d="M6.2 0 C31.89 2.02, 64.09 0.93, 108.75 0 C110.36 1.92, 116.62 5.08, 114.95 6.2 C115.95 8.02, 116.58 14.09, 114.95 18.59 C112.1 22.15, 110.7 22.47, 108.75 24.78 C70.32 21.47, 31.82 21.57, 6.2 24.78 C2.3 22.8, -0.34 23.83, 0 18.59 C-2.26 14.05, 0.19 12.75, 0 6.2 C3.36 -0.57, -0.52 -1.09, 6.2 0" stroke="none" stroke-width="0" fill="#ced4da"></path><path d="M6.2 0 C39.48 1.32, 75.16 2.81, 108.75 0 M6.2 0 C30.67 -0.38, 54.92 -1.26, 108.75 0 M108.75 0 C111.43 1.8, 116.52 0.3, 114.95 6.2 M108.75 0 C113.99 0.71, 114.85 1.96, 114.95 6.2 M114.95 6.2 C115.46 9.04, 115.65 13.35, 114.95 18.59 M114.95 6.2 C115.09 10.75, 115.4 14.86, 114.95 18.59 M114.95 18.59 C116.72 21.34, 113.07 22.79, 108.75 24.78 M114.95 18.59 C113.86 21.95, 111.23 24.12, 108.75 24.78 M108.75 24.78 C76.83 26.27, 45.52 25.6, 6.2 24.78 M108.75 24.78 C86.32 25.63, 65.72 26.06, 6.2 24.78 M6.2 24.78 C1.31 24.23, -1.58 21.61, 0 18.59 M6.2 24.78 C3.07 24.58, -0.26 22.66, 0 18.59 M0 18.59 C-1.03 15.76, -0.92 11.04, 0 6.2 M0 18.59 C0.06 15.29, -0.5 12.6, 0 6.2 M0 6.2 C-0.91 2.07, 3.29 1.89, 6.2 0 M0 6.2 C1.79 2.09, 2.18 -2.22, 6.2 0" stroke="#1e1e1e" stroke-width="2" fill="none"></path></g><g stroke-linecap="round" transform="translate(310.8816947460764 235.4131485348771) rotate(0 57.47377245861935 12.391134705952936)"><path d="M6.2 0 C31.94 -0.58, 54.46 1.39, 108.75 0 C114.56 3.01, 113.6 3.77, 114.95 6.2 C116.57 12.44, 113.27 15.55, 114.95 18.59 C112.77 20.41, 116.21 23.1, 108.75 24.78 C87.1 21.38, 58.51 21.61, 6.2 24.78 C1.73 25.9, -1.32 23.77, 0 18.59 C0.47 15.5, 2.3 9.41, 0 6.2 C-2.59 0.98, -1.1 -1.47, 6.2 0" stroke="none" stroke-width="0" fill="#ced4da"></path><path d="M6.2 0 C27.95 1.68, 47.91 -1.77, 108.75 0 M6.2 0 C39.99 -0.88, 72.56 1, 108.75 0 M108.75 0 C114.46 -1.76, 115.91 2.68, 114.95 6.2 M108.75 0 C112.78 -0.11, 113.66 0.16, 114.95 6.2 M114.95 6.2 C115.82 10.43, 115.43 13.17, 114.95 18.59 M114.95 6.2 C115.35 9.08, 115.51 10.76, 114.95 18.59 M114.95 18.59 C115.13 20.72, 111.93 24.12, 108.75 24.78 M114.95 18.59 C113.3 22.06, 112.9 24.25, 108.75 24.78 M108.75 24.78 C80.53 26.98, 53.51 26.94, 6.2 24.78 M108.75 24.78 C74.25 26.22, 39.71 25.01, 6.2 24.78 M6.2 24.78 C0.48 23.67, 0.88 22.54, 0 18.59 M6.2 24.78 C1.81 24.72, -0.98 23.44, 0 18.59 M0 18.59 C-0.78 12.85, -0.63 9.43, 0 6.2 M0 18.59 C-0.51 15.7, -0.29 12.84, 0 6.2 M0 6.2 C1.23 3.95, 3.62 0.02, 6.2 0 M0 6.2 C0.12 -0.16, 1.62 0.61, 6.2 0" stroke="#1e1e1e" stroke-width="2" fill="none"></path></g><g stroke-linecap="round"><g transform="translate(258.1534302855889 156.72319235835312) rotate(0 43.237168007342916 36.844978088263815)"><path d="M0 0 C-1.25 5.11, 0.57 13.83, 0 20.9 M0 0 C-0.68 6.95, 0.84 11.23, 0 20.9 M0 20.9 C0.97 32.18, 5.25 36.81, 16 36.9 M0 20.9 C-1.29 29.67, 4.23 38.04, 16 36.9 M16 36.9 C32.24 37.59, 45.15 36.65, 70.47 36.9 M16 36.9 C36.9 35.87, 56.12 35.56, 70.47 36.9 M70.47 36.9 C80.19 36.24, 85.04 41.66, 86.47 52.9 M70.47 36.9 C81.16 36.37, 85.56 41.02, 86.47 52.9 M86.47 52.9 C84.5 62.29, 87.01 67.33, 86.47 73.69 M86.47 52.9 C86.06 59.89, 85.65 66.88, 86.47 73.69" stroke="#1e1e1e" stroke-width="2" fill="none"></path></g><g transform="translate(258.1534302855889 156.72319235835312) rotate(0 43.237168007342916 36.844978088263815)"><path d="M78.96 56.9 C80.22 60.75, 84.28 67.99, 86.47 73.69 M78.96 56.9 C80.51 62.66, 84.08 65.89, 86.47 73.69" stroke="#1e1e1e" stroke-width="2" fill="none"></path></g><g transform="translate(258.1534302855889 156.72319235835312) rotate(0 43.237168007342916 36.844978088263815)"><path d="M91.51 56 C88.76 60.26, 88.81 67.79, 86.47 73.69 M91.51 56 C89.43 61.9, 89.36 65.39, 86.47 73.69" stroke="#1e1e1e" stroke-width="2" fill="none"></path></g></g><mask></mask><g stroke-linecap="round"><g transform="translate(444.1840779160884 153.67506459428114) rotate(0 -37.964305355696524 38.369041970297985)"><path d="M0 0 C0.4 9.28, -0.35 18.12, 0 22.37 M0 0 C0.62 3.62, 0.32 9.32, 0 22.37 M0 22.37 C-0.09 32.94, -6.45 36.71, -16 38.37 M0 22.37 C-1.1 34.18, -5.66 39.87, -16 38.37 M-16 38.37 C-35.07 38.86, -48.85 39.86, -59.93 38.37 M-16 38.37 C-31.87 37.07, -48.41 37.73, -59.93 38.37 M-59.93 38.37 C-72.03 37.79, -75.91 43.24, -75.93 54.37 M-59.93 38.37 C-71.5 37.15, -73.75 41.97, -75.93 54.37 M-75.93 54.37 C-75.44 60.46, -75.14 70.2, -75.93 76.74 M-75.93 54.37 C-76.8 62.59, -75.57 71.84, -75.93 76.74" stroke="#1e1e1e" stroke-width="2" fill="none"></path></g><g transform="translate(444.1840779160884 153.67506459428114) rotate(0 -37.964305355696524 38.369041970297985)"><path d="M-82.52 58.72 C-79.52 66.32, -77.64 73.44, -75.93 76.74 M-82.52 58.72 C-80.57 61.44, -79.53 66.21, -75.93 76.74" stroke="#1e1e1e" stroke-width="2" fill="none"></path></g><g transform="translate(444.1840779160884 153.67506459428114) rotate(0 -37.964305355696524 38.369041970297985)"><path d="M-69.4 58.7 C-71.57 66.2, -74.85 73.34, -75.93 76.74 M-69.4 58.7 C-70.09 61.54, -71.7 66.32, -75.93 76.74" stroke="#1e1e1e" stroke-width="2" fill="none"></path></g></g><mask></mask><g stroke-linecap="round"><g transform="translate(256.47152723880754 39.78226941190587) rotate(0 -0.5272540824107637 25.48505808518894)"><path d="M0 0 C0 -0.02, -0.01 -0.05, 0 -0.1 M0 0 C0 -0.04, 0 -0.08, 0 -0.1 M0 -0.1 C-1.12 -1.82, -0.99 0.8, -0.1 -0.19 M0 -0.1 C-0.33 1.34, 2.02 0.58, -0.1 -0.19 M-0.1 -0.19 C-0.22 -0.17, -0.38 -0.16, -0.53 -0.19 M-0.1 -0.19 C-0.21 -0.21, -0.31 -0.21, -0.53 -0.19 M-0.53 -0.19 C-0.86 -0.66, -1.85 -1.08, -1.05 0.33 M-0.53 -0.19 C1.3 -1.93, 0.36 -2.11, -1.05 0.33 M-1.05 0.33 C0.11 18.26, 0.97 36.09, -1.05 51.16 M-1.05 0.33 C-1.02 14.08, -1.57 27.98, -1.05 51.16" stroke="#1e1e1e" stroke-width="2" fill="none"></path></g><g transform="translate(256.47152723880754 39.78226941190587) rotate(0 -0.5272540824107637 25.48505808518894)"><path d="M-9.88 27.78 C-8.07 33.43, -7.88 36.66, -1.05 51.16 M-9.88 27.78 C-5.77 37.28, -2.86 46.04, -1.05 51.16" stroke="#1e1e1e" stroke-width="2" fill="none"></path></g><g transform="translate(256.47152723880754 39.78226941190587) rotate(0 -0.5272540824107637 25.48505808518894)"><path d="M7.22 27.57 C5.24 33.32, 1.65 36.58, -1.05 51.16 M7.22 27.57 C4.66 37.01, 0.91 45.85, -1.05 51.16" stroke="#1e1e1e" stroke-width="2" fill="none"></path></g></g><mask></mask><g stroke-linecap="round" transform="translate(420.53654474898576 92.47281295628636) rotate(0 29.00052332762516 27.945959848695566)"><path d="M32.59 0.28 C38.49 0.92, 45.82 5.11, 49.97 9.45 C54.12 13.79, 57.2 20.42, 57.5 26.31 C57.79 32.2, 55.5 39.87, 51.73 44.81 C47.97 49.75, 40.81 54.5, 34.89 55.92 C28.96 57.34, 21.67 56.26, 16.2 53.33 C10.73 50.4, 4.68 44.06, 2.07 38.33 C-0.55 32.61, -1.49 24.76, 0.5 18.98 C2.49 13.2, 8.42 6.66, 14.02 3.65 C19.63 0.63, 30.35 1.24, 34.13 0.89 C37.91 0.54, 36.78 1.05, 36.7 1.55 M36.39 2.13 C42.11 3.02, 49.09 5.56, 52.86 10.29 C56.63 15.02, 59.64 24.4, 58.98 30.5 C58.32 36.6, 53.5 42.84, 48.91 46.88 C44.33 50.92, 37.21 54.12, 31.47 54.74 C25.73 55.36, 19.64 53.6, 14.46 50.6 C9.28 47.6, 2.59 42.1, 0.41 36.73 C-1.76 31.36, -1.04 23.99, 1.4 18.38 C3.84 12.77, 9.48 6.03, 15.05 3.07 C20.63 0.11, 31.36 1, 34.86 0.61 C38.35 0.22, 35.91 0.26, 36.01 0.75" stroke="none" stroke-width="0" fill="#a5d8ff"></path><path d="M17.79 2.32 C23.07 -0.18, 32.8 -0.29, 38.81 1.5 C44.82 3.29, 50.85 7.98, 53.85 13.05 C56.84 18.12, 57.7 25.92, 56.81 31.9 C55.91 37.88, 52.93 44.79, 48.47 48.94 C44.02 53.08, 36.33 56.57, 30.09 56.78 C23.85 56.99, 16.13 54.12, 11.04 50.21 C5.94 46.3, 0.65 39.21, -0.47 33.33 C-1.58 27.46, 0.88 20.12, 4.34 14.96 C7.8 9.8, 17.67 4.56, 20.3 2.37 C22.94 0.18, 20.27 1.59, 20.15 1.81 M24.22 0.04 C30.06 -1.32, 37.53 0.16, 43.12 3.07 C48.71 5.98, 55.43 11.93, 57.76 17.48 C60.08 23.03, 59.35 30.48, 57.09 36.36 C54.82 42.25, 49.98 49.49, 44.17 52.79 C38.36 56.09, 28.53 57.11, 22.23 56.17 C15.93 55.22, 10.18 51.93, 6.38 47.11 C2.58 42.3, -0.46 33.65, -0.57 27.29 C-0.67 20.93, 1.52 13.47, 5.76 8.97 C10 4.46, 21.8 1.59, 24.87 0.25 C27.93 -1.1, 24.27 0.34, 24.14 0.9" stroke="#1e1e1e" stroke-width="2" fill="none"></path></g><g stroke-linecap="round" transform="translate(609.30360359109 89.30913257659995) rotate(0 29.00052332762516 27.945959848695566)"><path d="M5.08 13.69 C5.08 13.69, 5.08 13.69, 5.08 13.69 M5.08 13.69 C5.08 13.69, 5.08 13.69, 5.08 13.69 M-0.03 31.77 C7.26 23.69, 14.31 12.59, 25.55 2.34 M-0.03 31.77 C7.66 22.62, 17.25 13.23, 25.55 2.34 M4.04 39.29 C13.11 27.99, 22.12 20.82, 36.18 2.3 M4.04 39.29 C10.56 32.24, 17.83 22.6, 36.18 2.3 M8.11 46.8 C19.8 32.01, 32.59 17.13, 44.19 5.29 M8.11 46.8 C20.25 31.97, 31.57 19.33, 44.19 5.29 M14.8 51.29 C24.71 37.46, 36.12 23.75, 50.23 10.54 M14.8 51.29 C23.27 41.99, 31.41 33.53, 50.23 10.54 M22.81 54.28 C33.14 41.55, 44.53 29.77, 54.95 17.3 M22.81 54.28 C30.55 46, 37.84 38.24, 54.95 17.3 M32.13 55.75 C37.45 48.81, 44.03 40.78, 55.74 28.58 M32.13 55.75 C39.13 48.18, 44.67 40.48, 55.74 28.58 M10.05 49.4 C10.05 49.4, 10.05 49.4, 10.05 49.4 M10.05 49.4 C10.05 49.4, 10.05 49.4, 10.05 49.4 M29.64 55.83 C20.9 48.98, 10.48 37.59, 0.21 30.24 M29.64 55.83 C20.83 49.67, 14.21 42.48, 0.21 30.24 M38.66 53.07 C25.07 42.43, 10.26 26.82, 2.44 21.58 M38.66 53.07 C24.74 40.73, 11.84 28.47, 2.44 21.58 M46.93 49.66 C32.06 36.78, 16.28 23.13, 5.42 13.58 M46.93 49.66 C31.6 36.28, 14.25 22.83, 5.42 13.58 M51.43 42.97 C39.14 30.59, 24.14 19.1, 12.18 8.85 M51.43 42.97 C36.81 30.62, 22.93 18.52, 12.18 8.85 M55.17 35.62 C44.33 25.77, 36.38 18.11, 18.94 4.13 M55.17 35.62 C47.86 29.35, 38.76 21.21, 18.94 4.13 M55.89 25.64 C48.67 19.58, 40.88 11.8, 28.72 2.02 M55.89 25.64 C47.65 17.81, 37.56 9.39, 28.72 2.02" stroke="#a5d8ff" stroke-width="1" fill="none"></path><path d="M40.44 2.1 C46.17 3.78, 52.02 9.27, 54.69 14.51 C57.37 19.76, 57.74 27.64, 56.48 33.55 C55.22 39.46, 51.81 46.13, 47.12 50 C42.43 53.86, 34.58 56.9, 28.35 56.76 C22.12 56.61, 14.57 53.29, 9.72 49.11 C4.87 44.93, 0 37.61, -0.74 31.68 C-1.49 25.74, 1.62 18.44, 5.24 13.52 C8.85 8.6, 14.56 3.71, 20.95 2.17 C27.34 0.63, 39.31 3.52, 43.6 4.29 C47.89 5.07, 46.87 6.56, 46.67 6.82 M24.26 -0.51 C30.28 -1.8, 40.16 0, 45.69 3.06 C51.23 6.11, 55.61 11.88, 57.47 17.84 C59.32 23.8, 59.53 32.92, 56.82 38.83 C54.11 44.74, 46.89 50.34, 41.23 53.31 C35.56 56.29, 28.76 58.11, 22.84 56.69 C16.91 55.28, 9.65 49.9, 5.65 44.82 C1.65 39.75, -1.57 32.19, -1.17 26.25 C-0.78 20.31, 3.72 13.53, 8.03 9.19 C12.34 4.86, 21.97 1.56, 24.68 0.25 C27.39 -1.06, 24.03 1.04, 24.3 1.31" stroke="#1e1e1e" stroke-width="2" fill="none"></path></g><g stroke-linecap="round" transform="translate(504.90174374870367 231.93897007289343) rotate(0 57.47377245861935 12.391134705952936)"><path d="M1.65 1.43 C1.65 1.43, 1.65 1.43, 1.65 1.43 M1.65 1.43 C1.65 1.43, 1.65 1.43, 1.65 1.43 M0.47 14.98 C3.67 10.68, 4.96 8.1, 12.94 0.64 M0.47 14.98 C4.54 11.99, 6.83 7.65, 12.94 0.64 M3.23 24.01 C6.36 17.49, 12.12 14.64, 23.57 0.61 M3.23 24.01 C9.94 17.74, 15.18 10.38, 23.57 0.61 M13.2 24.73 C22.7 16.65, 27.97 5.62, 34.2 0.58 M13.2 24.73 C17.92 18.21, 23.92 12.32, 34.2 0.58 M23.83 24.69 C31.27 14.84, 41.38 4.64, 44.83 0.54 M23.83 24.69 C30.16 17.06, 37.96 9.93, 44.83 0.54 M34.46 24.66 C37.64 18.42, 42.77 14.4, 55.46 0.51 M34.46 24.66 C39.56 19.94, 44.4 13.32, 55.46 0.51 M45.09 24.62 C49.41 19.9, 53.33 12.94, 66.09 0.47 M45.09 24.62 C51.65 18.09, 57.5 9.98, 66.09 0.47 M55.72 24.59 C63.18 15.02, 70.29 6.72, 76.72 0.44 M55.72 24.59 C60.21 18.29, 66.13 13.24, 76.72 0.44 M65.7 25.31 C73.27 18.17, 80.95 8.28, 87.35 0.4 M65.7 25.31 C73.24 17.34, 80.31 8.04, 87.35 0.4 M76.33 25.27 C86.65 16.42, 92.61 4.69, 97.98 0.37 M76.33 25.27 C84.42 17.26, 91.66 9.05, 97.98 0.37 M86.96 25.24 C93.62 19.36, 95.88 14.61, 108.61 0.33 M86.96 25.24 C92.57 19.43, 98.15 12.48, 108.61 0.33 M97.59 25.2 C101.86 18.06, 105.69 15.87, 114.64 5.58 M97.59 25.2 C102.53 18.98, 107.83 14.54, 114.64 5.58 M108.22 25.17 C109.44 22.95, 111.37 21.7, 114.78 17.62 M108.22 25.17 C110.97 22.59, 113.74 19.2, 114.78 17.62 M3.76 24.63 C3.76 24.63, 3.76 24.63, 3.76 24.63 M3.76 24.63 C3.76 24.63, 3.76 24.63, 3.76 24.63 M15.8 24.5 C13.21 21.96, 10.85 20.31, 5.24 15.32 M15.8 24.5 C12.78 21.74, 10.45 19.34, 5.24 15.32 M27.84 24.37 C20.6 18.55, 9.9 8.26, 1.43 1.41 M27.84 24.37 C20.35 18.95, 13.48 12.74, 1.43 1.41 M39.88 24.24 C29.01 16.05, 20.71 8.24, 8.94 -2.66 M39.88 24.24 C28.38 14.17, 15.7 3.63, 8.94 -2.66 M52.68 24.76 C41.07 12.92, 30.21 3.85, 20.98 -2.8 M52.68 24.76 C46.1 18.1, 38.04 11.29, 20.98 -2.8 M64.72 24.62 C55.8 19.51, 49.84 10.53, 33.02 -2.93 M64.72 24.62 C57.23 17.1, 50.08 12.18, 33.02 -2.93 M76.76 24.49 C67.74 15.38, 54.84 5.58, 45.06 -3.06 M76.76 24.49 C66.57 16.2, 59.03 7.91, 45.06 -3.06 M89.56 25.01 C83.14 20.21, 78.07 15.05, 57.86 -2.54 M89.56 25.01 C79.87 15.29, 69.35 7.32, 57.86 -2.54 M101.6 24.88 C88.05 12.25, 77.91 3.04, 69.9 -2.67 M101.6 24.88 C91.14 15.05, 81.25 5.92, 69.9 -2.67 M110.62 22.12 C103.45 17.67, 97.66 12.14, 81.94 -2.81 M110.62 22.12 C102.22 14.21, 93.92 6.41, 81.94 -2.81 M117.38 17.4 C109.07 10.9, 101.87 3.49, 94.74 -2.28 M117.38 17.4 C109.83 10.03, 102.5 3.48, 94.74 -2.28 M117.34 6.77 C115.49 4.73, 110.97 1.86, 106.78 -2.42 M117.34 6.77 C114.42 4.45, 110.53 0.68, 106.78 -2.42" stroke="#ced4da" stroke-width="1" fill="none"></path><path d="M6.2 0 C27.73 0.16, 53.4 -0.9, 108.75 0 M108.75 0 C112.79 -1.12, 113.29 1.11, 114.95 6.2 M114.95 6.2 C116.04 10.95, 115.65 13.64, 114.95 18.59 M114.95 18.59 C115.18 24.07, 114.12 26.05, 108.75 24.78 M108.75 24.78 C66.91 23.93, 28.4 23.44, 6.2 24.78 M6.2 24.78 C1.49 24.8, -0.46 21.93, 0 18.59 M0 18.59 C0.64 14.4, 0.62 12.9, 0 6.2 M0 6.2 C-1.99 3.06, 1.73 1.85, 6.2 0" stroke="#1e1e1e" stroke-width="2.5" fill="none" stroke-dasharray="8 10"></path></g><g stroke-linecap="round"><g transform="translate(452.17347928821437 153.24901389636943) rotate(0 43.237168007344735 36.844978088263815)"><path d="M0 0 C0.43 7.83, -0.28 14.72, 0 20.9 M0 20.9 C-1.66 30.61, 6.33 36.62, 16 36.9 M16 36.9 C37.06 34.75, 56.02 38.07, 70.47 36.9 M70.47 36.9 C82.38 38.17, 88.24 40.86, 86.47 52.9 M86.47 52.9 C85.6 57.9, 85.69 65.78, 86.47 73.69" stroke="#1e1e1e" stroke-width="2.5" fill="none" stroke-dasharray="8 10"></path></g><g transform="translate(452.17347928821437 153.24901389636943) rotate(0 43.237168007344735 36.844978088263815)"><path d="M78.95 56.91 C82.22 63.15, 84.42 68.56, 86.47 73.69" stroke="#1e1e1e" stroke-width="2.5" fill="none"></path></g><g transform="translate(452.17347928821437 153.24901389636943) rotate(0 43.237168007344735 36.844978088263815)"><path d="M91.5 56 C90.01 62.64, 87.45 68.4, 86.47 73.69" stroke="#1e1e1e" stroke-width="2.5" fill="none"></path></g></g><mask></mask><g stroke-linecap="round"><g transform="translate(638.2041269187157 150.20088613228654) rotate(0 -37.964305355696524 38.36904197030344)"><path d="M0 0 C-0.03 5.54, -1.51 12.29, 0 18.93 M0 18.93 C0.99 29.32, -4.03 36.72, -16 34.93 M-16 34.93 C-30.43 35.85, -44.09 35.77, -59.93 34.93 M-59.93 34.93 C-68.83 33.56, -75.74 38.27, -75.93 50.93 M-75.93 50.93 C-76.59 57.47, -76.48 63.18, -75.93 76.74" stroke="#1e1e1e" stroke-width="2.5" fill="none" stroke-dasharray="8 10"></path></g><g transform="translate(638.2041269187157 150.20088613228654) rotate(0 -37.964305355696524 38.36904197030344)"><path d="M-83.77 57.36 C-81.08 63, -79.9 69.91, -75.93 76.74" stroke="#1e1e1e" stroke-width="2.5" fill="none"></path></g><g transform="translate(638.2041269187157 150.20088613228654) rotate(0 -37.964305355696524 38.36904197030344)"><path d="M-69.48 56.85 C-71.76 62.66, -75.57 69.75, -75.93 76.74" stroke="#1e1e1e" stroke-width="2.5" fill="none"></path></g></g><mask></mask><g stroke-linecap="round" transform="translate(324.19446356710796 566.7599198819662) rotate(0 29.00052332762516 27.945959848695566)"><path d="M5.41 11.33 C5.41 11.33, 5.41 11.33, 5.41 11.33 M5.41 11.33 C5.41 11.33, 5.41 11.33, 5.41 11.33 M0.3 29.41 C4.69 22.83, 10.96 13.37, 23.91 2.24 M0.3 29.41 C6.09 22.53, 10.89 16.44, 23.91 2.24 M3.71 37.68 C13.28 30.2, 19.1 19.91, 33.89 2.96 M3.71 37.68 C9.39 29.68, 16.34 23.58, 33.89 2.96 M7.12 45.94 C19.13 35.01, 28.24 21.87, 43.21 4.43 M7.12 45.94 C21.78 30.54, 34.44 13.49, 43.21 4.43 M13.82 50.44 C21.47 39.46, 31.74 29.67, 48.59 10.44 M13.82 50.44 C27.41 34.33, 42.17 18.08, 48.59 10.44 M21.17 54.18 C30.8 42.3, 43.37 31.52, 53.97 16.44 M21.17 54.18 C28 45.3, 35.63 37.47, 53.97 16.44 M30.48 55.65 C37.01 50.51, 42.94 41.57, 56.07 26.22 M30.48 55.65 C36.15 49.36, 41.54 41.93, 56.07 26.22 M43.08 53.35 C47.81 50.11, 51.03 43.63, 57.52 36.75 M43.08 53.35 C48.23 46.95, 53.18 41.19, 57.52 36.75 M7.04 46.78 C7.04 46.78, 7.04 46.78, 7.04 46.78 M7.04 46.78 C7.04 46.78, 7.04 46.78, 7.04 46.78 M28.13 54.52 C20.99 45.07, 11.3 40.93, 0.21 30.24 M28.13 54.52 C19.29 46.3, 9.11 39.16, 0.21 30.24 M38.67 53.07 C27.89 43.44, 16.83 31.29, 2.44 21.58 M38.67 53.07 C24.6 40.35, 11.16 28.49, 2.44 21.58 M47.69 50.32 C37.31 38.92, 24.67 28.95, 4.67 12.92 M47.69 50.32 C31.82 36.33, 18.37 23.71, 4.67 12.92 M52.18 43.62 C35.64 32.26, 22.66 16.94, 11.43 8.19 M52.18 43.62 C35.59 28.96, 20.16 16.04, 11.43 8.19 M56.67 36.93 C48.25 30.25, 36.63 21.2, 18.94 4.12 M56.67 36.93 C48.9 29.38, 38.89 20.99, 18.94 4.12 M55.89 25.64 C47.2 18.71, 38.94 9.69, 27.96 1.37 M55.89 25.64 C48.81 19.38, 41.92 13.68, 27.96 1.37" stroke="#a5d8ff" stroke-width="1" fill="none"></path><path d="M22.79 1.69 C28.41 0.12, 36.89 0.95, 42.19 3.48 C47.49 6, 52.02 11.34, 54.57 16.83 C57.12 22.32, 58.98 30.54, 57.51 36.41 C56.03 42.29, 51.12 48.85, 45.72 52.08 C40.33 55.32, 31.58 56.7, 25.13 55.82 C18.68 54.93, 11.27 51.24, 7.04 46.78 C2.8 42.31, 0.01 34.92, -0.27 29.03 C-0.55 23.14, 1.42 16.23, 5.34 11.41 C9.26 6.59, 20.08 1.72, 23.26 0.11 C26.44 -1.49, 24.41 1.16, 24.41 1.79" stroke="#1e1e1e" stroke-width="2.5" fill="none" stroke-dasharray="8 10"></path></g><g stroke-linecap="round" transform="translate(538.3242174685038 566.8032970593049) rotate(0 29.00052332762516 27.945959848695566)"><path d="M8.6 7.47 C8.6 7.47, 8.6 7.47, 8.6 7.47 M8.6 7.47 C8.6 7.47, 8.6 7.47, 8.6 7.47 M0.86 28.57 C8.11 16.88, 16.81 9, 23.82 2.15 M0.86 28.57 C5.35 22.53, 11.03 16.43, 23.82 2.15 M3.61 37.59 C14.21 24.92, 23.16 11.88, 33.79 2.87 M3.61 37.59 C13.93 26.62, 23.48 14.49, 33.79 2.87 M7.68 45.1 C19.04 31.62, 33.91 17.34, 42.45 5.1 M7.68 45.1 C14.81 35.3, 23.2 25.39, 42.45 5.1 M14.38 49.6 C28.97 33.09, 43.34 17.74, 48.49 10.35 M14.38 49.6 C25.36 37.24, 35.79 25.62, 48.49 10.35 M20.41 54.85 C28.01 48.91, 32.68 37.83, 53.87 16.36 M20.41 54.85 C29.08 44.92, 38.09 34.65, 53.87 16.36 M31.7 54.06 C39.91 44.62, 45.01 35.86, 57.94 23.87 M31.7 54.06 C38.66 44.87, 47.03 36.75, 57.94 23.87 M44.95 51 C47.93 46.99, 53.54 41.57, 56.76 37.42 M44.95 51 C48.38 46.59, 51.75 43.05, 56.76 37.42 M4.91 43.12 C4.91 43.12, 4.91 43.12, 4.91 43.12 M4.91 43.12 C4.91 43.12, 4.91 43.12, 4.91 43.12 M29.03 53.49 C21.71 48.28, 13.55 40.99, 1.11 29.21 M29.03 53.49 C17.68 44.39, 7.43 33.65, 1.11 29.21 M40.32 52.7 C28.46 39.84, 14.62 29.73, 2.58 19.89 M40.32 52.7 C26.79 39.66, 11.46 27.39, 2.58 19.89 M47.07 47.97 C36.44 37.59, 25.11 27.67, 6.32 12.54 M47.07 47.97 C36.93 37.65, 25.46 28.7, 6.32 12.54 M53.08 42.59 C40.26 30.25, 27.37 19.85, 10.81 5.85 M53.08 42.59 C43.19 34.08, 31.47 24.11, 10.81 5.85 M56.06 34.58 C43.15 25.36, 29.96 12.99, 19.84 3.09 M56.06 34.58 C45.85 25.71, 37.24 19.18, 19.84 3.09 M57.54 25.27 C46.25 13.78, 34.69 6.4, 29.61 0.99 M57.54 25.27 C48.42 17.35, 38.34 9.72, 29.61 0.99" stroke="#a5d8ff" stroke-width="1" fill="none"></path><path d="M27.27 0.66 C32.85 -0.23, 39.93 1.91, 45.02 5.43 C50.11 8.94, 56.02 15.82, 57.8 21.76 C59.59 27.69, 58.66 35.74, 55.72 41.04 C52.78 46.34, 46.1 51.33, 40.15 53.55 C34.21 55.77, 25.97 56.12, 20.06 54.35 C14.14 52.57, 8.02 47.77, 4.65 42.9 C1.29 38.02, -0.79 30.98, -0.13 25.08 C0.52 19.18, 3.42 11.49, 8.59 7.48 C13.75 3.47, 26.48 1.97, 30.87 1.04 C35.25 0.12, 35.02 1.53, 34.91 1.94" stroke="#1e1e1e" stroke-width="2.5" fill="none" stroke-dasharray="8 10"></path></g><g stroke-linecap="round"><g transform="translate(356.47255746897645 506.559432644528) rotate(0 -0.5272540824107637 25.48505808520349)"><path d="M0 0 C0.01 -0.02, 0 -0.04, 0 -0.1 M0 -0.1 C-1.97 0.07, 1.32 1.04, -0.1 -0.19 M-0.1 -0.19 C-0.25 -0.24, -0.43 -0.21, -0.53 -0.19 M-0.53 -0.19 C-2.31 -0.77, -1.04 -0.48, -1.05 0.33 M-1.05 0.33 C-2.83 14.8, -3.14 27.99, -1.05 51.16" stroke="#1e1e1e" stroke-width="2.5" fill="none" stroke-dasharray="8 10"></path></g><g transform="translate(356.47255746897645 506.559432644528) rotate(0 -0.5272540824107637 25.48505808520349)"><path d="M-11.18 28.31 C-7.21 35.87, -5.28 41.02, -1.05 51.16" stroke="#1e1e1e" stroke-width="2.5" fill="none"></path></g><g transform="translate(356.47255746897645 506.559432644528) rotate(0 -0.5272540824107637 25.48505808520349)"><path d="M5.88 27.15 C5.55 34.98, 3.18 40.42, -1.05 51.16" stroke="#1e1e1e" stroke-width="2.5" fill="none"></path></g></g><mask></mask><g stroke-linecap="round"><g transform="translate(564.0114244879769 506.06409632410214) rotate(0 -0.5272540824107637 25.48505808520349)"><path d="M0 0 C0 -0.02, -0.01 -0.05, 0 -0.1 M0 -0.1 C1.35 1.08, 1.24 1.58, -0.1 -0.19 M-0.1 -0.19 C-0.22 -0.21, -0.33 -0.21, -0.53 -0.19 M-0.53 -0.19 C-0.86 -0.66, -1.85 -1.08, -1.05 0.33 M-1.05 0.33 C-3.26 21.58, -0.74 38.48, -1.05 51.16" stroke="#1e1e1e" stroke-width="2.5" fill="none" stroke-dasharray="8 10"></path></g><g transform="translate(564.0114244879769 506.06409632410214) rotate(0 -0.5272540824107637 25.48505808520349)"><path d="M-10.12 27.87 C-6.71 35.61, -6.76 41.33, -1.05 51.16" stroke="#1e1e1e" stroke-width="2.5" fill="none"></path></g><g transform="translate(564.0114244879769 506.06409632410214) rotate(0 -0.5272540824107637 25.48505808520349)"><path d="M6.97 27.49 C5.51 35.49, 0.57 41.32, -1.05 51.16" stroke="#1e1e1e" stroke-width="2.5" fill="none"></path></g></g><mask></mask><g stroke-linecap="round" transform="translate(303.578219853287 474.6625912925374) rotate(0 57.47377245861935 12.391134705952936)"><path d="M1.65 1.43 C1.65 1.43, 1.65 1.43, 1.65 1.43 M1.65 1.43 C1.65 1.43, 1.65 1.43, 1.65 1.43 M0.47 14.98 C6.6 10.63, 8.68 3.53, 12.94 0.64 M0.47 14.98 C3.1 10.92, 7.01 7.39, 12.94 0.64 M3.23 24.01 C10.4 14.46, 20.25 4.56, 23.57 0.61 M3.23 24.01 C9.34 16.62, 16.92 9.73, 23.57 0.61 M13.2 24.73 C16.38 18.49, 21.51 14.47, 34.2 0.58 M13.2 24.73 C18.3 20.01, 23.14 13.39, 34.2 0.58 M23.83 24.69 C28.15 19.96, 32.07 13.01, 44.83 0.54 M23.83 24.69 C30.39 18.16, 36.24 10.04, 44.83 0.54 M34.46 24.66 C41.92 15.08, 49.03 6.78, 55.46 0.51 M34.46 24.66 C38.95 18.36, 44.87 13.31, 55.46 0.51 M45.09 24.62 C52.46 17.72, 59.93 8.07, 66.09 0.47 M45.09 24.62 C52.41 16.92, 59.24 7.89, 66.09 0.47 M55.72 24.59 C65.78 16.04, 71.48 4.61, 76.72 0.44 M55.72 24.59 C63.59 16.83, 70.6 8.88, 76.72 0.44 M65.7 25.31 C72.36 19.43, 74.62 14.68, 87.35 0.4 M65.7 25.31 C71.31 19.5, 76.89 12.55, 87.35 0.4 M76.33 25.27 C81.87 16.65, 87 12.95, 97.98 0.37 M76.33 25.27 C82.52 17.54, 89.11 11.62, 97.98 0.37 M86.96 25.24 C91.63 18.07, 97.81 12.92, 108.61 0.33 M86.96 25.24 C95.81 16.26, 104.64 5.7, 108.61 0.33 M97.59 25.2 C102.9 19.71, 110 9.89, 114.64 5.58 M97.59 25.2 C102.22 20.7, 104.95 16.44, 114.64 5.58 M108.22 25.17 C109.96 23.71, 110.75 22.42, 114.78 17.62 M108.22 25.17 C110.49 22.52, 112.39 20.37, 114.78 17.62 M3.76 24.63 C3.76 24.63, 3.76 24.63, 3.76 24.63 M3.76 24.63 C3.76 24.63, 3.76 24.63, 3.76 24.63 M15.8 24.5 C9.49 20.34, 5.81 16.55, 0.71 11.38 M15.8 24.5 C10.35 19.6, 3.73 14.34, 0.71 11.38 M27.84 24.37 C18.1 14.22, 9.14 6.79, 1.43 1.41 M27.84 24.37 C22.52 18.76, 15.69 13.02, 1.43 1.41 M39.88 24.24 C31.72 19.78, 26.53 11.46, 11.2 -0.7 M39.88 24.24 C33.09 17.34, 26.65 13.04, 11.2 -0.7 M52.68 24.76 C44.41 16.3, 32.27 7.16, 23.25 -0.83 M52.68 24.76 C43.16 17.03, 36.28 9.32, 23.25 -0.83 M64.72 24.62 C58.91 20.33, 54.45 15.7, 36.04 -0.31 M64.72 24.62 C56 15.75, 46.46 8.64, 36.04 -0.31 M76.76 24.49 C64.41 12.93, 55.48 4.76, 48.08 -0.44 M76.76 24.49 C67.31 15.51, 58.41 7.25, 48.08 -0.44 M89.56 25.01 C82.22 20.41, 76.28 14.75, 60.12 -0.57 M89.56 25.01 C80.92 16.9, 72.4 8.91, 60.12 -0.57 M101.6 24.88 C91.06 16.45, 81.62 7.08, 72.92 -0.05 M101.6 24.88 C92.03 15.72, 82.68 7.42, 72.92 -0.05 M112.13 23.44 C106.19 17.83, 96.51 10.93, 84.96 -0.18 M112.13 23.44 C104.36 17.01, 95.23 8.51, 84.96 -0.18 M115.11 15.43 C109.43 10.42, 106.26 7.48, 97 -0.31 M115.11 15.43 C109.16 10.54, 102.55 4.29, 97 -0.31 M115.08 4.8 C113.61 2.2, 110.18 1.03, 109.04 -0.45 M115.08 4.8 C112.95 2.75, 110.33 0.73, 109.04 -0.45" stroke="#ced4da" stroke-width="1" fill="none"></path><path d="M6.2 0 C29.15 -0.8, 51.97 1.89, 108.75 0 M108.75 0 C111.37 1.23, 113.13 3.25, 114.95 6.2 M114.95 6.2 C114.62 11.49, 114.36 14.15, 114.95 18.59 M114.95 18.59 C113.36 21.61, 113.76 24.6, 108.75 24.78 M108.75 24.78 C79.77 25.72, 47.93 24.92, 6.2 24.78 M6.2 24.78 C0.65 22.9, -1.18 22.68, 0 18.59 M0 18.59 C-1.01 15.68, -0.57 12.84, 0 6.2 M0 6.2 C1.23 3.95, 3.62 0.02, 6.2 0" stroke="#1e1e1e" stroke-width="2.5" fill="none" stroke-dasharray="8 10"></path></g><g stroke-linecap="round" transform="translate(497.5982688559143 471.1884128305537) rotate(0 57.47377245861935 12.391134705952936)"><path d="M1.65 1.43 C1.65 1.43, 1.65 1.43, 1.65 1.43 M1.65 1.43 C1.65 1.43, 1.65 1.43, 1.65 1.43 M0.47 14.98 C1.81 11.22, 5.1 6.93, 12.94 0.64 M0.47 14.98 C5.91 8.81, 11.27 3.21, 12.94 0.64 M3.23 24.01 C10.21 16.12, 16.41 9.78, 23.57 0.61 M3.23 24.01 C7.78 20.2, 10.84 13.82, 23.57 0.61 M13.2 24.73 C17.69 18.94, 23.31 12.65, 34.2 0.58 M13.2 24.73 C19.5 17.38, 24.28 10.43, 34.2 0.58 M23.83 24.69 C28.55 16.91, 36.19 11.14, 44.83 0.54 M23.83 24.69 C30.11 16.97, 37.88 8.61, 44.83 0.54 M34.46 24.66 C40.47 16.67, 46.35 10.65, 55.46 0.51 M34.46 24.66 C40.62 18.51, 46.83 9.93, 55.46 0.51 M45.09 24.62 C52.56 16.12, 58.33 10.96, 66.09 0.47 M45.09 24.62 C49.28 19.14, 56.07 13.3, 66.09 0.47 M55.72 24.59 C62.61 14.69, 72.38 6.82, 76.72 0.44 M55.72 24.59 C60.52 20.12, 64.33 14.68, 76.72 0.44 M65.7 25.31 C71.25 18.62, 79.28 8.26, 87.35 0.4 M65.7 25.31 C71.48 18.56, 77.88 11.5, 87.35 0.4 M76.33 25.27 C81 20.21, 88.14 12.88, 97.98 0.37 M76.33 25.27 C85.01 16.72, 91.86 8.11, 97.98 0.37 M86.96 25.24 C94.16 17.7, 104.35 6.57, 108.61 0.33 M86.96 25.24 C94.47 17.06, 100.97 8.78, 108.61 0.33 M97.59 25.2 C102.4 18.4, 105.12 14.48, 114.64 5.58 M97.59 25.2 C103.67 17.82, 109.03 10.3, 114.64 5.58 M108.22 25.17 C110.07 23.13, 112.62 20.13, 114.78 17.62 M108.22 25.17 C110.54 22.53, 113.14 19.41, 114.78 17.62 M3.76 24.63 C3.76 24.63, 3.76 24.63, 3.76 24.63 M3.76 24.63 C3.76 24.63, 3.76 24.63, 3.76 24.63 M15.8 24.5 C11.91 21.58, 10.83 18.95, 5.24 15.32 M15.8 24.5 C11.54 21, 8.48 17.24, 5.24 15.32 M27.84 24.37 C21.49 17.55, 13.45 13.66, 1.43 1.41 M27.84 24.37 C18.8 15.6, 8.97 8, 1.43 1.41 M39.88 24.24 C30.53 15.07, 17.59 4.37, 8.94 -2.66 M39.88 24.24 C31.72 17.39, 23.62 9.48, 8.94 -2.66 M52.68 24.76 C41.37 15.17, 31.58 7.34, 20.98 -2.8 M52.68 24.76 C42.63 14.29, 29.56 5.12, 20.98 -2.8 M64.72 24.62 C54.47 15.63, 42.12 3.83, 33.02 -2.93 M64.72 24.62 C55.09 16.06, 45.99 7.33, 33.02 -2.93 M76.76 24.49 C71.2 18.3, 62.93 13.54, 45.06 -3.06 M76.76 24.49 C67.87 15.04, 56.9 8.4, 45.06 -3.06 M89.56 25.01 C82.27 20.12, 76.46 14.67, 57.86 -2.54 M89.56 25.01 C78.4 13.73, 66.16 3.68, 57.86 -2.54 M101.6 24.88 C92.66 16.82, 81.94 7.36, 69.9 -2.67 M101.6 24.88 C94.1 17.3, 85.74 11.83, 69.9 -2.67 M110.62 22.12 C98.21 12.24, 87.82 3.24, 81.94 -2.81 M110.62 22.12 C101.63 14.3, 93.63 8.47, 81.94 -2.81 M117.38 17.4 C110.78 11.14, 105.12 7.69, 94.74 -2.28 M117.38 17.4 C109.64 10.39, 103.83 4.18, 94.74 -2.28 M117.34 6.77 C112.43 3.3, 110.08 -1.27, 106.78 -2.42 M117.34 6.77 C114.27 4.32, 111.79 2.82, 106.78 -2.42" stroke="#ced4da" stroke-width="1" fill="none"></path><path d="M6.2 0 C36 2.3, 66.41 1.63, 108.75 0 M108.75 0 C111.06 1.18, 115.64 0.08, 114.95 6.2 M114.95 6.2 C114.46 10.18, 113.95 14.17, 114.95 18.59 M114.95 18.59 C115.83 22.54, 112.66 24.73, 108.75 24.78 M108.75 24.78 C80.75 26.06, 54.53 23.6, 6.2 24.78 M6.2 24.78 C0.89 24.75, -1.36 22.92, 0 18.59 M0 18.59 C-0.46 15.48, 0.86 13.54, 0 6.2 M0 6.2 C1.55 2.08, 2.17 -1.93, 6.2 0" stroke="#1e1e1e" stroke-width="2.5" fill="none" stroke-dasharray="8 10"></path></g><g stroke-linecap="round" transform="translate(533.593182675233 341.30815040245943) rotate(0 29.00052332762516 27.945959848695566)"><path d="M3.92 15.33 C3.92 15.33, 3.92 15.33, 3.92 15.33 M3.92 15.33 C3.92 15.33, 3.92 15.33, 3.92 15.33 M1.43 30.39 C8.21 22.03, 18.75 13.19, 26.36 1.72 M1.43 30.39 C8.24 21.99, 15.07 15.73, 26.36 1.72 M4.19 39.42 C10.5 32.8, 18.39 21.2, 38.3 0.17 M4.19 39.42 C15.79 25.38, 27.82 11.45, 38.3 0.17 M8.91 46.17 C20.88 30.62, 31.37 19.32, 44.34 5.42 M8.91 46.17 C19.54 32.64, 31.11 19.04, 44.34 5.42 M14.95 51.42 C24 41.78, 32.26 34.09, 51.03 9.91 M14.95 51.42 C27.09 37.27, 39.68 23.45, 51.03 9.91 M22.96 54.41 C31.1 46.18, 38.46 38.98, 55.76 16.67 M22.96 54.41 C30.91 44.66, 39.56 34.48, 55.76 16.67 M32.28 55.88 C40.18 47.57, 45.24 39.09, 57.86 26.45 M32.28 55.88 C38.74 47.03, 47.5 38.74, 57.86 26.45 M11.03 49.81 C11.03 49.81, 11.03 49.81, 11.03 49.81 M11.03 49.81 C11.03 49.81, 11.03 49.81, 11.03 49.81 M29.86 55.58 C20.67 50.39, 15.75 43.23, 1.94 31.31 M29.86 55.58 C19.2 46.95, 7.88 35.74, 1.94 31.31 M38.13 52.17 C24.91 40.37, 13.83 28.66, 4.17 22.64 M38.13 52.17 C26.08 41.77, 13.56 30.92, 4.17 22.64 M46.4 48.75 C32.02 35.93, 13.69 23.24, 5.64 13.33 M46.4 48.75 C33 36.43, 18.2 24.33, 5.64 13.33 M52.4 43.37 C37.35 30.91, 23.46 18.79, 11.64 7.94 M52.4 43.37 C40.62 32.85, 30.39 23.58, 11.64 7.94 M56.89 36.68 C49.61 30.75, 38.98 21.05, 17.65 2.56 M56.89 36.68 C46.23 27.21, 35.07 17, 17.65 2.56 M60.63 29.33 C51.52 20.08, 38.63 9.57, 28.18 1.12 M60.63 29.33 C49.67 18.68, 38.2 10.08, 28.18 1.12 M56.82 15.42 C52.98 12.71, 46.46 7.91, 38.71 -0.33 M56.82 15.42 C51.92 11.49, 46.95 7.53, 38.71 -0.33" stroke="#a5d8ff" stroke-width="1" fill="none"></path><path d="M38.1 0.31 C44.08 1.56, 50.54 7.64, 53.97 12.79 C57.4 17.95, 59.62 25.42, 58.67 31.25 C57.73 37.08, 53.12 43.6, 48.29 47.78 C43.46 51.96, 35.85 55.94, 29.68 56.31 C23.5 56.67, 16.07 53.78, 11.23 49.98 C6.39 46.19, 1.93 39.25, 0.65 33.54 C-0.62 27.82, 0.86 20.89, 3.61 15.7 C6.35 10.51, 11.23 4.85, 17.13 2.4 C23.04 -0.04, 35.09 0.9, 39.04 1.05 C42.99 1.2, 41.01 2.69, 40.83 3.3" stroke="#1e1e1e" stroke-width="2.5" fill="none" stroke-dasharray="8 10"></path></g><g stroke-linecap="round"><g transform="translate(356.1081275088127 272.0753879647673) rotate(0 -0.5272540824107637 25.48505808520349)"><path d="M0 0 C-0.01 -0.03, 0 -0.09, 0 -0.1 M0 0 C0 -0.04, 0 -0.07, 0 -0.1 M0 -0.1 C0.88 -0.34, -0.26 -0.25, -0.1 -0.19 M0 -0.1 C-0.98 0.56, 1.54 -2.03, -0.1 -0.19 M-0.1 -0.19 C-0.26 -0.2, -0.41 -0.19, -0.53 -0.19 M-0.1 -0.19 C-0.21 -0.19, -0.3 -0.17, -0.53 -0.19 M-0.53 -0.19 C0.67 -0.18, -0.95 -1.95, -1.05 0.33 M-0.53 -0.19 C-1.33 0.41, -2.26 -1.98, -1.05 0.33 M-1.05 0.33 C-2.4 18.14, -0.07 35.47, -1.05 51.16 M-1.05 0.33 C-0.41 13.04, -0.13 27.65, -1.05 51.16" stroke="#1e1e1e" stroke-width="2" fill="none"></path></g><g transform="translate(356.1081275088127 272.0753879647673) rotate(0 -0.5272540824107637 25.48505808520349)"><path d="M-8.95 27.44 C-7.83 37.94, -2.2 44.14, -1.05 51.16 M-8.95 27.44 C-6.6 35.38, -4.26 43.4, -1.05 51.16" stroke="#1e1e1e" stroke-width="2" fill="none"></path></g><g transform="translate(356.1081275088127 272.0753879647673) rotate(0 -0.5272540824107637 25.48505808520349)"><path d="M8.15 27.92 C2.52 38.34, 1.4 44.34, -1.05 51.16 M8.15 27.92 C4.52 35.85, 0.88 43.7, -1.05 51.16" stroke="#1e1e1e" stroke-width="2" fill="none"></path></g></g><mask></mask><g stroke-linecap="round"><g transform="translate(559.0804385228312 272.8355647931312) rotate(0 -0.5272540824107637 25.48505808520349)"><path d="M0 0 C0 -0.04, 0.01 -0.07, 0 -0.1 M0 -0.1 C1.85 -0.92, -0.59 -1.78, -0.1 -0.19 M-0.1 -0.19 C-0.21 -0.2, -0.33 -0.18, -0.53 -0.19 M-0.53 -0.19 C0.49 -1.79, -0.48 -1.43, -1.05 0.33 M-1.05 0.33 C-2.72 10.99, -2.34 19.65, -1.05 51.16" stroke="#1e1e1e" stroke-width="2.5" fill="none" stroke-dasharray="8 10"></path></g><g transform="translate(559.0804385228312 272.8355647931312) rotate(0 -0.5272540824107637 25.48505808520349)"><path d="M-10.5 28.02 C-6.6 34.34, -2.89 44.36, -1.05 51.16" stroke="#1e1e1e" stroke-width="2.5" fill="none"></path></g><g transform="translate(559.0804385228312 272.8355647931312) rotate(0 -0.5272540824107637 25.48505808520349)"><path d="M6.59 27.36 C4.3 34.02, 1.84 44.28, -1.05 51.16" stroke="#1e1e1e" stroke-width="2.5" fill="none"></path></g></g><mask></mask><g stroke-linecap="round"><g transform="translate(358.95027395328725 407.0699624705012) rotate(0 -0.5272540824107637 25.48505808520349)"><path d="M0 0 C0 -0.04, 0.01 -0.07, 0 -0.1 M0 -0.1 C-0.56 -1.75, -1.14 0.68, -0.1 -0.19 M-0.1 -0.19 C-0.24 -0.18, -0.32 -0.23, -0.53 -0.19 M-0.53 -0.19 C-0.3 -1.61, -2.94 -1.2, -1.05 0.33 M-1.05 0.33 C-2.39 13.89, -1.45 29.76, -1.05 51.16" stroke="#1e1e1e" stroke-width="2.5" fill="none" stroke-dasharray="8 10"></path></g><g transform="translate(358.95027395328725 407.0699624705012) rotate(0 -0.5272540824107637 25.48505808520349)"><path d="M-10.17 27.88 C-5.82 36.01, -1.69 43.94, -1.05 51.16" stroke="#1e1e1e" stroke-width="2.5" fill="none"></path></g><g transform="translate(358.95027395328725 407.0699624705012) rotate(0 -0.5272540824107637 25.48505808520349)"><path d="M6.93 27.47 C5.14 35.57, 3.13 43.66, -1.05 51.16" stroke="#1e1e1e" stroke-width="2.5" fill="none"></path></g></g><mask></mask><g stroke-linecap="round"><g transform="translate(561.9225849673057 407.8301392988651) rotate(0 -0.5272540824107637 25.48505808520349)"><path d="M0 0 C0.01 -0.02, 0 -0.05, 0 -0.1 M0 -0.1 C-1.11 0.72, -0.21 -0.42, -0.1 -0.19 M-0.1 -0.19 C-0.2 -0.23, -0.34 -0.22, -0.53 -0.19 M-0.53 -0.19 C-2.76 -1.37, -1.09 -1.38, -1.05 0.33 M-1.05 0.33 C-1.36 15.18, -1.3 33.07, -1.05 51.16" stroke="#1e1e1e" stroke-width="2.5" fill="none" stroke-dasharray="8 10"></path></g><g transform="translate(561.9225849673057 407.8301392988651) rotate(0 -0.5272540824107637 25.48505808520349)"><path d="M-9.85 27.76 C-6.12 31.72, -6.76 35.59, -1.05 51.16" stroke="#1e1e1e" stroke-width="2.5" fill="none"></path></g><g transform="translate(561.9225849673057 407.8301392988651) rotate(0 -0.5272540824107637 25.48505808520349)"><path d="M7.25 27.59 C7.55 31.55, 3.48 35.45, -1.05 51.16" stroke="#1e1e1e" stroke-width="2.5" fill="none"></path></g></g><mask></mask><g stroke-linecap="round" transform="translate(232.4202554429121 562.3362520755763) rotate(0 29.00052332762516 27.945959848695566)"><path d="M20.13 1.62 C25.57 -0.3, 33.9 0.33, 39.67 2.4 C45.44 4.46, 51.89 8.73, 54.74 14 C57.59 19.28, 58.04 27.88, 56.75 34.05 C55.47 40.22, 51.96 47.5, 47.02 51.01 C42.07 54.53, 33.38 55.7, 27.07 55.15 C20.76 54.6, 13.69 51.74, 9.15 47.71 C4.62 43.68, 0.57 36.87, -0.15 30.96 C-0.87 25.05, 0.53 17.42, 4.83 12.27 C9.13 7.12, 21.33 1.89, 25.65 0.07 C29.96 -1.74, 30.64 0.93, 30.71 1.36 M18.27 2.38 C23.59 -0.04, 31.51 -0.93, 37.47 1.01 C43.43 2.94, 50.61 8.72, 54.02 14 C57.44 19.27, 58.74 26.91, 57.96 32.65 C57.19 38.39, 54.07 44.41, 49.38 48.42 C44.68 52.44, 36.34 56.51, 29.81 56.72 C23.28 56.93, 15.1 53.75, 10.2 49.7 C5.31 45.66, 1.6 38.44, 0.46 32.46 C-0.69 26.48, 0.44 18.82, 3.35 13.8 C6.27 8.78, 15.39 4.42, 17.95 2.34 C20.51 0.26, 18.49 0.97, 18.71 1.31" stroke="none" stroke-width="0" fill="#a5d8ff"></path><path d="M17.73 2.05 C23.12 -0.62, 31.61 -1.07, 37.61 0.84 C43.61 2.76, 50.5 8.38, 53.72 13.54 C56.95 18.7, 57.93 26.13, 56.96 31.8 C56 37.47, 52.48 43.54, 47.95 47.55 C43.42 51.56, 35.97 55.39, 29.77 55.84 C23.56 56.3, 15.66 54.03, 10.74 50.27 C5.81 46.51, 1.47 39.21, 0.21 33.28 C-1.04 27.34, -0.16 19.9, 3.21 14.67 C6.58 9.43, 16.94 3.99, 20.44 1.86 C23.94 -0.27, 24.06 1.55, 24.21 1.9 M14.73 1.92 C19.9 -1.08, 29.41 -0.52, 35.61 0.79 C41.81 2.1, 48.07 4.97, 51.93 9.8 C55.79 14.63, 58.82 23.69, 58.78 29.76 C58.74 35.82, 55.91 41.64, 51.71 46.19 C47.51 50.73, 39.87 56.28, 33.6 57.02 C27.34 57.75, 19.31 53.88, 14.11 50.61 C8.91 47.34, 4.59 42.97, 2.4 37.38 C0.22 31.8, -1.05 22.97, 0.98 17.11 C3.01 11.25, 11.91 4.6, 14.61 2.24 C17.3 -0.11, 16.93 2.3, 17.17 3" stroke="#1e1e1e" stroke-width="2" fill="none"></path></g><g stroke-linecap="round"><g transform="translate(342.1099879061403 504.4448607044433) rotate(0 -40.39460456780216 26.44569568557199)"><path d="M0 0 C-0.42 2.22, -0.09 3.72, 0 7.25 M0 7.25 C-0.05 11.23, -1.79 15.87, -7.25 14.49 M-7.25 14.49 C-21.79 12.91, -32.6 12.73, -64.79 14.49 M-64.79 14.49 C-75.26 13.51, -82.39 19.77, -80.79 30.49 M-80.79 30.49 C-78.9 37.75, -80.77 42, -80.79 52.89" stroke="#1e1e1e" stroke-width="2.5" fill="none" stroke-dasharray="8 10"></path></g><g transform="translate(342.1099879061403 504.4448607044433) rotate(0 -40.39460456780216 26.44569568557199)"><path d="M-86.55 34.58 C-86.16 40.27, -83.75 44.01, -80.79 52.89" stroke="#1e1e1e" stroke-width="2.5" fill="none"></path></g><g transform="translate(342.1099879061403 504.4448607044433) rotate(0 -40.39460456780216 26.44569568557199)"><path d="M-73.43 35.16 C-76.48 40.59, -77.51 44.18, -80.79 52.89" stroke="#1e1e1e" stroke-width="2.5" fill="none"></path></g></g><mask></mask><g stroke-linecap="round"><g transform="translate(261.320778770536 623.2281717729638) rotate(0 -110.71065355659357 -104.35079704236705)"><path d="M0 0 C-1.03 33.45, -0.9 66.5, 0 152.49 M0 0 C1.33 49.81, 0.1 100.45, 0 152.49 M0 152.49 C-0.03 161.8, -5.13 167.51, -16 168.49 M0 152.49 C-1.85 163.1, -6.38 168.49, -16 168.49 M-16 168.49 C-94.97 170.06, -175.65 169.63, -234.63 168.49 M-16 168.49 C-87.09 166.95, -158.69 166.26, -234.63 168.49 M-234.63 168.49 C-244.23 169.42, -248.96 162.41, -250.63 152.49 M-234.63 168.49 C-244.21 170.6, -249.71 161.68, -250.63 152.49 M-250.63 152.49 C-252.04 -37.34, -252.43 -225.46, -250.63 -361.19 M-250.63 152.49 C-249.78 22.79, -249.77 -107.68, -250.63 -361.19 M-250.63 -361.19 C-251.74 -372.05, -244.68 -377.93, -234.63 -377.19 M-250.63 -361.19 C-249.96 -371.75, -247.56 -378.51, -234.63 -377.19 M-234.63 -377.19 C-153.65 -380.29, -70.82 -380.54, 29.21 -377.19 M-234.63 -377.19 C-166.86 -377.53, -98.08 -377.55, 29.21 -377.19" stroke="#1e1e1e" stroke-width="2" fill="none"></path></g><g transform="translate(261.320778770536 623.2281717729638) rotate(0 -110.71065355659357 -104.35079704236705)"><path d="M5.7 -368.69 C10.76 -370.9, 16.08 -373.4, 29.21 -377.19 M5.7 -368.69 C13.72 -372.03, 20.28 -374.73, 29.21 -377.19" stroke="#1e1e1e" stroke-width="2" fill="none"></path></g><g transform="translate(261.320778770536 623.2281717729638) rotate(0 -110.71065355659357 -104.35079704236705)"><path d="M5.74 -385.8 C10.7 -384.22, 16.01 -382.95, 29.21 -377.19 M5.74 -385.8 C13.87 -383.47, 20.41 -380.5, 29.21 -377.19" stroke="#1e1e1e" stroke-width="2" fill="none"></path></g></g><mask></mask><g stroke-linecap="round" transform="translate(443.37090098802764 113.1068665986968) rotate(0 7.500038146972656 7.749996185302734)"><path d="M7.76 0.08 C9.31 0.25, 11.74 1.57, 12.88 2.66 C14.02 3.75, 14.48 5.11, 14.6 6.61 C14.71 8.11, 14.43 10.29, 13.55 11.67 C12.68 13.04, 10.83 14.39, 9.34 14.86 C7.84 15.33, 5.98 15.1, 4.59 14.46 C3.19 13.83, 1.66 12.41, 0.96 11.04 C0.27 9.67, 0.04 7.86, 0.43 6.24 C0.83 4.61, 2.08 2.36, 3.33 1.3 C4.59 0.23, 7.08 0.03, 7.94 -0.17 C8.79 -0.37, 8.4 -0.02, 8.48 0.09 M6.99 0.15 C8.61 -0.18, 11.17 0.05, 12.49 1.05 C13.81 2.05, 14.67 4.47, 14.93 6.13 C15.2 7.8, 14.78 9.67, 14.07 11.05 C13.36 12.42, 12.11 13.74, 10.67 14.4 C9.22 15.05, 7.03 15.3, 5.42 14.98 C3.81 14.66, 1.92 13.88, 1 12.48 C0.09 11.08, -0.23 8.29, -0.07 6.59 C0.09 4.88, 0.73 3.34, 1.97 2.26 C3.21 1.19, 6.67 0.49, 7.37 0.13 C8.07 -0.23, 6.2 -0.05, 6.16 0.11" stroke="none" stroke-width="0" fill="#1e1e1e"></path><path d="M6.3 0.19 C7.73 -0.21, 9.98 -0.05, 11.33 0.85 C12.68 1.75, 13.96 3.91, 14.41 5.59 C14.86 7.28, 14.66 9.49, 14.02 10.94 C13.37 12.39, 11.94 13.62, 10.55 14.31 C9.16 14.99, 7.2 15.33, 5.68 15.05 C4.17 14.77, 2.31 13.86, 1.44 12.62 C0.57 11.38, 0.38 9.31, 0.49 7.61 C0.6 5.91, 1.1 3.68, 2.1 2.4 C3.1 1.12, 5.62 0.34, 6.5 -0.08 C7.38 -0.5, 7.38 -0.27, 7.4 -0.1 M8.09 0.35 C9.72 0.33, 11.89 0.5, 13.09 1.66 C14.29 2.81, 15.09 5.67, 15.27 7.28 C15.46 8.89, 15.01 9.93, 14.2 11.31 C13.39 12.69, 12.08 14.97, 10.4 15.56 C8.73 16.15, 5.83 15.61, 4.17 14.85 C2.51 14.08, 1.01 12.47, 0.46 10.98 C-0.09 9.48, 0.52 7.35, 0.84 5.87 C1.17 4.38, 1.36 2.92, 2.42 2.07 C3.48 1.22, 6.4 1.06, 7.2 0.75 C8 0.44, 7.21 0.21, 7.22 0.21" stroke="#1e1e1e" stroke-width="2" fill="none"></path></g><g stroke-linecap="round" transform="translate(631.5375574821683 109.19020883298072) rotate(0 7.500038146972656 7.749996185302734)"><path d="M5.83 0.7 C7.28 0.15, 9.02 -0.15, 10.41 0.42 C11.81 1, 13.52 2.63, 14.2 4.15 C14.88 5.67, 14.9 7.92, 14.51 9.53 C14.12 11.14, 13.12 12.84, 11.86 13.81 C10.6 14.79, 8.53 15.42, 6.94 15.38 C5.35 15.33, 3.43 14.73, 2.31 13.53 C1.2 12.32, 0.45 9.89, 0.24 8.13 C0.03 6.37, 0.11 4.34, 1.06 2.98 C2.01 1.63, 5.03 0.53, 5.95 0.02 C6.86 -0.5, 6.53 -0.26, 6.54 -0.11 M8.67 -0.32 C10.2 -0.28, 11.85 1.34, 12.86 2.54 C13.87 3.75, 14.57 5.4, 14.72 6.92 C14.86 8.44, 14.6 10.33, 13.73 11.66 C12.85 12.99, 11.07 14.35, 9.47 14.92 C7.87 15.5, 5.6 15.82, 4.14 15.11 C2.68 14.41, 1.38 12.23, 0.69 10.69 C0.01 9.16, -0.48 7.43, 0 5.91 C0.49 4.4, 2.38 2.62, 3.59 1.62 C4.8 0.62, 6.52 0.14, 7.28 -0.07 C8.05 -0.27, 7.97 0.36, 8.16 0.41" stroke="none" stroke-width="0" fill="#1e1e1e"></path><path d="M8.43 -0.36 C9.96 -0.21, 11.9 1.39, 12.94 2.74 C13.97 4.1, 14.65 6.18, 14.66 7.78 C14.67 9.37, 13.99 11.08, 13.01 12.31 C12.04 13.54, 10.35 14.74, 8.81 15.15 C7.27 15.56, 5.08 15.5, 3.77 14.78 C2.46 14.06, 1.49 12.42, 0.93 10.81 C0.38 9.21, 0.06 6.79, 0.45 5.15 C0.83 3.5, 1.79 1.83, 3.25 0.95 C4.7 0.08, 8.26 -0.02, 9.2 -0.09 C10.14 -0.16, 8.92 0.37, 8.88 0.54 M6.82 -0.16 C8.3 -0.48, 10.26 0.93, 11.6 1.73 C12.94 2.52, 14.27 3.09, 14.85 4.61 C15.42 6.14, 15.76 9.25, 15.06 10.87 C14.36 12.49, 12.21 13.67, 10.66 14.34 C9.11 15.01, 7.11 15.23, 5.75 14.9 C4.38 14.58, 3.48 13.51, 2.45 12.38 C1.43 11.25, -0.21 9.61, -0.4 8.13 C-0.6 6.66, 0.25 4.85, 1.27 3.52 C2.29 2.19, 4.98 0.72, 5.73 0.17 C6.49 -0.39, 5.67 0.13, 5.81 0.2" stroke="#1e1e1e" stroke-width="2" fill="none"></path></g><g stroke-linecap="round"><g transform="translate(515.0830815940026 515.1255876481446) rotate(0 -119.00001525878906 137.39281381879664)"><path d="M0 0 C-0.02 0, -0.04 -0.01, -0.07 0 M-0.07 0 C-1.3 -0.03, -1.5 0.22, -0.14 0.07 M-0.14 0.07 C-2.54 64.95, -0.83 131.34, -0.14 258.79 M-0.14 258.79 C1.41 269.47, -5.37 272.85, -16.14 274.79 M-16.14 274.79 C-75.41 274.34, -131.46 273.81, -222 274.79 M-222 274.79 C-234.07 275.85, -237.07 271.13, -238 258.79 M-238 258.79 C-237.93 216.77, -237.36 178.58, -238 103.68" stroke="#1e1e1e" stroke-width="2.5" fill="none" stroke-dasharray="8 10"></path></g><g transform="translate(515.0830815940026 515.1255876481446) rotate(0 -119.00001525878906 137.39281381879664)"><path d="M-229.33 127.13 C-233.24 121.73, -235.28 113.23, -238 103.68" stroke="#1e1e1e" stroke-width="2.5" fill="none"></path></g><g transform="translate(515.0830815940026 515.1255876481446) rotate(0 -119.00001525878906 137.39281381879664)"><path d="M-246.43 127.21 C-245.94 121.67, -243.58 113.15, -238 103.68" stroke="#1e1e1e" stroke-width="2.5" fill="none"></path></g></g><mask></mask></svg>