<?xml version="1.0" standalone="no"?>
<!DOCTYPE svg PUBLIC "-//W3C//DTD SVG 1.1//EN" "http://www.w3.org/Graphics/SVG/1.1/DTD/svg11.dtd">
<svg version="1.1" xmlns="http://www.w3.org/2000/svg" viewBox="0 0 884.6299514619795 801.935722846607" width="884.6299514619795" height="801.935722846607"><!-- svg-source:excalidraw --><metadata></metadata><defs><style class="style-fonts">
      </style></defs><rect x="0" y="0" width="884.6299514619795" height="801.935722846607" fill="#ffffff"></rect><g stroke-linecap="round" transform="translate(326.00258409920843 341.6609029353058) rotate(0 29.000523327625615 27.945959848695566)"><path d="M15.77 2.82 C20.89 -0.35, 28.59 -1.77, 34.51 -0.4 C40.43 0.98, 47.38 6.27, 51.31 11.08 C55.23 15.89, 58.1 22.64, 58.06 28.47 C58.01 34.3, 55.05 41.65, 51.03 46.06 C47.01 50.47, 40.26 54, 33.94 54.94 C27.61 55.89, 18.52 54.84, 13.06 51.73 C7.59 48.62, 3.01 41.96, 1.17 36.3 C-0.68 30.63, -1.8 23.8, 1.98 17.75 C5.76 11.69, 18.62 2.72, 23.86 -0.03 C29.09 -2.78, 33.27 0.78, 33.39 1.24 M20.51 1.31 C26.18 -0.2, 37.1 0.89, 43.02 3.19 C48.93 5.49, 53.76 9.64, 55.99 15.12 C58.23 20.61, 58.4 30.08, 56.41 36.1 C54.43 42.13, 49.13 47.84, 44.1 51.28 C39.06 54.72, 32.16 57.62, 26.2 56.73 C20.24 55.84, 12.61 50.16, 8.33 45.93 C4.06 41.7, 1.26 37.21, 0.55 31.33 C-0.16 25.45, 0.37 15.61, 4.06 10.65 C7.75 5.68, 19.52 3.1, 22.69 1.56 C25.86 0.02, 23.09 1.26, 23.09 1.42" stroke="none" stroke-width="0" fill="#b2f2bb"></path><path d="M37.42 0.86 C43.11 2.05, 49.74 8.05, 53.17 13.03 C56.59 18.02, 58.75 24.98, 57.97 30.76 C57.19 36.54, 52.99 43.64, 48.49 47.73 C43.99 51.82, 37.21 54.92, 30.97 55.3 C24.72 55.69, 16.12 53.56, 11.02 50.04 C5.93 46.51, 1.81 39.8, 0.39 34.16 C-1.03 28.52, -0.23 21.51, 2.49 16.2 C5.21 10.88, 10.7 4.58, 16.7 2.26 C22.7 -0.05, 34.41 2.1, 38.49 2.32 C42.56 2.53, 41.3 3.19, 41.15 3.54 M38.47 2.4 C43.83 4.03, 50.85 9.89, 54.12 15.18 C57.4 20.47, 59.35 28.53, 58.11 34.14 C56.87 39.75, 51.61 45.1, 46.69 48.83 C41.77 52.55, 34.89 56.25, 28.59 56.48 C22.28 56.72, 13.72 54.07, 8.88 50.22 C4.04 46.37, 0.26 39.32, -0.45 33.4 C-1.15 27.47, 1.1 19.83, 4.65 14.66 C8.19 9.48, 15.02 4.29, 20.83 2.34 C26.64 0.39, 36.17 3.1, 39.49 2.94 C42.81 2.79, 41.1 1.12, 40.74 1.43" stroke="#1e1e1e" stroke-width="2" fill="none"></path></g><g stroke-linecap="round" transform="translate(226.48207366547376 95.94699141827732) rotate(0 29.000523327625615 27.945959848695566)"><path d="M27.28 -0.92 C32.99 -1.38, 41.1 2.46, 46.11 6.2 C51.12 9.94, 55.84 15.84, 57.34 21.52 C58.84 27.2, 57.85 35.03, 55.12 40.28 C52.38 45.54, 46.82 50.66, 40.92 53.05 C35.01 55.44, 25.77 56.35, 19.67 54.6 C13.57 52.86, 7.56 47.61, 4.31 42.59 C1.07 37.58, -0.64 30.45, 0.19 24.52 C1.02 18.59, 4.46 11.01, 9.28 7 C14.1 2.98, 25.65 1.57, 29.1 0.42 C32.56 -0.73, 30.16 -0.44, 30.01 0.09 M21.12 1.84 C26.92 -0.62, 34.64 -1.68, 40.12 0.53 C45.6 2.73, 51.3 9.56, 53.99 15.09 C56.68 20.61, 57.38 27.73, 56.26 33.68 C55.13 39.63, 51.89 47.33, 47.25 50.78 C42.62 54.24, 34.59 54.5, 28.43 54.41 C22.27 54.33, 15.21 54.15, 10.29 50.28 C5.36 46.41, -0.24 37.22, -1.12 31.19 C-2 25.16, 1.37 19.04, 5.02 14.09 C8.66 9.14, 18.29 3.68, 20.78 1.49 C23.27 -0.7, 20.17 0.55, 19.97 0.95" stroke="none" stroke-width="0" fill="#b2f2bb"></path><path d="M42.51 3.84 C47.88 6.16, 53.69 11.75, 55.94 17.11 C58.2 22.48, 57.94 30.37, 56.04 36.02 C54.14 41.67, 49.85 47.82, 44.56 51.01 C39.27 54.2, 30.54 55.95, 24.3 55.17 C18.06 54.39, 11.26 50.56, 7.14 46.32 C3.01 42.07, -0.17 35.61, -0.45 29.69 C-0.73 23.76, 1.66 15.52, 5.45 10.78 C9.23 6.04, 15.02 1.77, 22.25 1.26 C29.49 0.75, 43.87 5.79, 48.86 7.71 C53.84 9.64, 52.44 12.42, 52.16 12.81 M41.31 3.33 C47.1 5.53, 53.66 11.92, 56.2 17.13 C58.74 22.35, 58.33 28.85, 56.57 34.61 C54.81 40.38, 50.88 47.96, 45.64 51.72 C40.39 55.47, 31.49 57.62, 25.12 57.13 C18.74 56.63, 11.51 53.06, 7.39 48.75 C3.27 44.44, 0.55 37.32, 0.41 31.27 C0.26 25.22, 2.94 17.35, 6.5 12.44 C10.07 7.53, 15.7 3.59, 21.78 1.81 C27.86 0.03, 39.9 1.47, 42.97 1.76 C46.04 2.06, 40.41 2.73, 40.19 3.56" stroke="#1e1e1e" stroke-width="2" fill="none"></path></g><g stroke-linecap="round" transform="translate(199.063332699302 10) rotate(0 57.473772458618896 12.391134705952936)"><path d="M6.2 0 C42.84 -1.8, 87.44 -3.45, 108.75 0 C113.35 0.41, 117.31 2.44, 114.95 6.2 C112.88 7.33, 116.15 12.27, 114.95 18.59 C117.39 22.79, 112.94 22.31, 108.75 24.78 C81.97 24.27, 65.45 24.81, 6.2 24.78 C1.91 26.42, -1.68 20.57, 0 18.59 C1.38 13.95, 1.73 12.85, 0 6.2 C-1.56 5.61, 3.78 -2.13, 6.2 0" stroke="none" stroke-width="0" fill="#ced4da"></path><path d="M6.2 0 C43.46 -1.47, 79.46 0.34, 108.75 0 M6.2 0 C38 0.63, 70 -0.26, 108.75 0 M108.75 0 C111.92 -0.91, 113.98 1.11, 114.95 6.2 M108.75 0 C114.17 -1.31, 114.66 0.9, 114.95 6.2 M114.95 6.2 C114.47 10.82, 115.95 16.11, 114.95 18.59 M114.95 6.2 C114.68 11.25, 115.14 16.11, 114.95 18.59 M114.95 18.59 C114.54 21.34, 113.43 25.59, 108.75 24.78 M114.95 18.59 C113.64 24.85, 111.73 26.9, 108.75 24.78 M108.75 24.78 C76.91 25.18, 43.92 27.13, 6.2 24.78 M108.75 24.78 C86.05 25.87, 60.73 24.03, 6.2 24.78 M6.2 24.78 C1.86 26.03, -1.15 22.21, 0 18.59 M6.2 24.78 C-0.13 23.91, 1.26 22.87, 0 18.59 M0 18.59 C0.75 14.31, -1.03 11.56, 0 6.2 M0 18.59 C0.08 15.3, -0.23 12.25, 0 6.2 M0 6.2 C0.83 2.46, 1.1 -0.99, 6.2 0 M0 6.2 C1.79 0.57, -0.11 0.72, 6.2 0" stroke="#1e1e1e" stroke-width="2" fill="none"></path></g><g stroke-linecap="round" transform="translate(310.84727266518985 235.41314853488439) rotate(0 57.473772458618896 12.391134705952936)"><path d="M6.2 0 C41.75 -2.21, 75.34 1, 108.75 0 C115.25 0.37, 111.42 3.2, 114.95 6.2 C115.86 12.13, 116.24 15.96, 114.95 18.59 C115.01 20.24, 110.28 24.25, 108.75 24.78 C78.49 23.75, 41.22 25.88, 6.2 24.78 C0.38 22.63, -0.21 24.86, 0 18.59 C1.71 15.25, -1.12 10.99, 0 6.2 C1.72 -0.07, -1.35 -3.39, 6.2 0" stroke="none" stroke-width="0" fill="#ced4da"></path><path d="M6.2 0 C47.01 1.57, 87.74 -0.1, 108.75 0 M6.2 0 C30.22 -0.89, 54.82 -0.47, 108.75 0 M108.75 0 C111.91 -0.95, 116.06 0.93, 114.95 6.2 M108.75 0 C112.59 -1.16, 116.34 3.24, 114.95 6.2 M114.95 6.2 C115.83 11.61, 116.02 14.07, 114.95 18.59 M114.95 6.2 C115.21 10.5, 114.79 13.92, 114.95 18.59 M114.95 18.59 C115.5 23.52, 111.74 26.63, 108.75 24.78 M114.95 18.59 C113.79 24.84, 113.4 26.88, 108.75 24.78 M108.75 24.78 C72.66 26.33, 32.55 22.96, 6.2 24.78 M108.75 24.78 C75.39 24.82, 43.92 26.36, 6.2 24.78 M6.2 24.78 C0.91 24.27, -1.91 21.95, 0 18.59 M6.2 24.78 C3.32 24.94, -0.44 23.41, 0 18.59 M0 18.59 C-1.08 15.29, -0.5 11.47, 0 6.2 M0 18.59 C-0.3 15.17, 0.25 11.36, 0 6.2 M0 6.2 C-0.96 1.08, 3.62 -1.3, 6.2 0 M0 6.2 C-2.17 2.78, 4.14 0.59, 6.2 0" stroke="#1e1e1e" stroke-width="2" fill="none"></path></g><g stroke-linecap="round"><g transform="translate(258.11900820470146 156.7231923583604) rotate(0 43.23716800734337 36.844978088261996)"><path d="M0 0 C0.29 5.42, -1.19 10.8, 0 20.9 M0 0 C-0.59 5.84, -0.59 12.12, 0 20.9 M0 20.9 C1.12 30.43, 5.08 35.89, 16 36.9 M0 20.9 C1.39 32.74, 6.68 35.9, 16 36.9 M16 36.9 C34.83 34.84, 50.6 35.95, 70.47 36.9 M16 36.9 C33.98 36.01, 52.65 37.1, 70.47 36.9 M70.47 36.9 C80 38.75, 85.47 44.08, 86.47 52.9 M70.47 36.9 C81.66 39, 87.96 43.64, 86.47 52.9 M86.47 52.9 C85.19 57.18, 86.92 66.45, 86.47 73.69 M86.47 52.9 C86.17 61.69, 85.69 68.98, 86.47 73.69" stroke="#1e1e1e" stroke-width="2" fill="none"></path></g><g transform="translate(258.11900820470146 156.7231923583604) rotate(0 43.23716800734337 36.844978088261996)"><path d="M78.79 56.98 C81.17 61.22, 81.93 65.48, 86.47 73.69 M78.79 56.98 C80.57 61.66, 82.89 66.68, 86.47 73.69" stroke="#1e1e1e" stroke-width="2" fill="none"></path></g><g transform="translate(258.11900820470146 156.7231923583604) rotate(0 43.23716800734337 36.844978088261996)"><path d="M91.33 55.95 C90.26 60.56, 87.55 65.1, 86.47 73.69 M91.33 55.95 C89.33 60.83, 87.87 66.16, 86.47 73.69" stroke="#1e1e1e" stroke-width="2" fill="none"></path></g></g><mask></mask><g stroke-linecap="round"><g transform="translate(444.1496558352019 153.67506459428841) rotate(0 -37.964305355696524 38.369041970297985)"><path d="M0 0 C-1.18 7.46, 0.06 15.33, 0 22.37 M0 0 C-0.59 4.27, 0.45 8.92, 0 22.37 M0 22.37 C-0.25 32.02, -4.12 39.39, -16 38.37 M0 22.37 C1.34 32.03, -5.05 40.11, -16 38.37 M-16 38.37 C-32.06 37.49, -48.6 38.95, -59.93 38.37 M-16 38.37 C-30.54 38.47, -46.2 38.99, -59.93 38.37 M-59.93 38.37 C-71.6 40.21, -75.48 45.53, -75.93 54.37 M-59.93 38.37 C-69.11 39.77, -76.23 45.2, -75.93 54.37 M-75.93 54.37 C-75.77 64.59, -74.23 69.57, -75.93 76.74 M-75.93 54.37 C-76.53 58.79, -76.91 63.33, -75.93 76.74" stroke="#1e1e1e" stroke-width="2" fill="none"></path></g><g transform="translate(444.1496558352019 153.67506459428841) rotate(0 -37.964305355696524 38.369041970297985)"><path d="M-83.47 59.1 C-81.85 64.87, -77.9 71.02, -75.93 76.74 M-83.47 59.1 C-82.42 62.42, -79.82 66.07, -75.93 76.74" stroke="#1e1e1e" stroke-width="2" fill="none"></path></g><g transform="translate(444.1496558352019 153.67506459428841) rotate(0 -37.964305355696524 38.369041970297985)"><path d="M-70.37 58.38 C-73.54 64.39, -74.39 70.81, -75.93 76.74 M-70.37 58.38 C-72.1 61.79, -72.28 65.6, -75.93 76.74" stroke="#1e1e1e" stroke-width="2" fill="none"></path></g></g><mask></mask><g stroke-linecap="round"><g transform="translate(256.437105157921 39.78226941190587) rotate(0 -0.5272540824107637 25.485058085196215)"><path d="M0 0 C0 -0.03, -0.01 -0.06, 0 -0.1 M0 0 C0 -0.03, 0 -0.05, 0 -0.1 M0 -0.1 C1.21 0.85, 1.14 -1.07, -0.1 -0.19 M0 -0.1 C0.28 1.57, 1.78 1.89, -0.1 -0.19 M-0.1 -0.19 C-0.18 -0.18, -0.27 -0.2, -0.53 -0.19 M-0.1 -0.19 C-0.21 -0.17, -0.31 -0.17, -0.53 -0.19 M-0.53 -0.19 C-0.43 1.63, 0.24 1.2, -1.05 0.33 M-0.53 -0.19 C-1.18 1.3, 0.88 -1.65, -1.05 0.33 M-1.05 0.33 C0.88 9.31, -2.8 22.06, -1.05 51.16 M-1.05 0.33 C-2.3 18.37, -0.8 37.23, -1.05 51.16" stroke="#1e1e1e" stroke-width="2" fill="none"></path></g><g transform="translate(256.437105157921 39.78226941190587) rotate(0 -0.5272540824107637 25.485058085196215)"><path d="M-9.82 27.75 C-7.46 33.35, -6.76 40.06, -1.05 51.16 M-9.82 27.75 C-7.14 33.18, -5.59 39.21, -1.05 51.16" stroke="#1e1e1e" stroke-width="2" fill="none"></path></g><g transform="translate(256.437105157921 39.78226941190587) rotate(0 -0.5272540824107637 25.485058085196215)"><path d="M7.28 27.6 C4.81 33.18, 0.67 39.93, -1.05 51.16 M7.28 27.6 C5.61 32.99, 2.8 39.05, -1.05 51.16" stroke="#1e1e1e" stroke-width="2" fill="none"></path></g></g><mask></mask><g stroke-linecap="round" transform="translate(420.5021226680992 92.47281295628636) rotate(0 29.000523327625615 27.945959848695566)"><path d="M19.54 0.89 C25.15 -1.23, 33.84 -0.22, 39.67 2 C45.5 4.22, 51.52 8.87, 54.54 14.2 C57.57 19.54, 59.05 28.14, 57.82 34.01 C56.6 39.87, 52.22 45.61, 47.19 49.38 C42.17 53.16, 34.02 56.91, 27.67 56.66 C21.32 56.41, 13.58 51.84, 9.08 47.88 C4.57 43.92, 1.37 38.61, 0.62 32.9 C-0.13 27.19, 0.71 19.11, 4.57 13.63 C8.43 8.14, 19.54 2.29, 23.79 -0.01 C28.03 -2.32, 29.77 -0.75, 30.02 -0.21 M38.84 2.88 C44.28 4.47, 49.11 7.55, 52.37 12.56 C55.64 17.58, 58.96 26.88, 58.42 32.95 C57.87 39.03, 53.91 45.36, 49.11 49.01 C44.31 52.66, 36.18 54.77, 29.62 54.85 C23.06 54.93, 14.51 53.31, 9.73 49.49 C4.96 45.67, 2.07 37.53, 0.98 31.93 C-0.12 26.33, 0.27 20.92, 3.16 15.9 C6.05 10.88, 12.34 4.34, 18.32 1.82 C24.3 -0.7, 35.88 0.78, 39.04 0.8 C42.2 0.81, 37.4 1.14, 37.28 1.94" stroke="none" stroke-width="0" fill="#a5d8ff"></path><path d="M21.63 1.36 C27.26 -0.28, 35.69 0.1, 41.26 2.76 C46.83 5.41, 52.36 11.7, 55.04 17.3 C57.72 22.9, 59.08 30.68, 57.35 36.35 C55.62 42.02, 49.8 47.95, 44.67 51.31 C39.55 54.67, 32.55 57.32, 26.6 56.51 C20.64 55.7, 13.33 50.95, 8.96 46.45 C4.58 41.95, 0.85 35.27, 0.35 29.51 C-0.15 23.75, 2.06 16.76, 5.95 11.89 C9.85 7.03, 20.72 2.12, 23.74 0.33 C26.75 -1.46, 23.93 0.75, 24.03 1.15 M42.28 4.31 C48.02 6.45, 54.18 12.3, 56.57 17.72 C58.95 23.15, 58.32 31.45, 56.61 36.86 C54.89 42.27, 51.63 47.01, 46.27 50.19 C40.91 53.37, 30.63 56.22, 24.45 55.95 C18.27 55.68, 13.5 53.18, 9.18 48.57 C4.87 43.96, -0.83 34.33, -1.44 28.28 C-2.05 22.23, 1.74 16.9, 5.54 12.25 C9.34 7.6, 15.54 2.04, 21.37 0.39 C27.2 -1.26, 36.99 1.84, 40.51 2.37 C44.04 2.89, 42.53 2.95, 42.51 3.54" stroke="#1e1e1e" stroke-width="2" fill="none"></path></g><g stroke-linecap="round" transform="translate(609.2691815102035 89.30913257660723) rotate(0 29.000523327625615 27.945959848695566)"><path d="M28.21 0.04 C34.16 -0.46, 42.14 1.81, 47.07 5.6 C52.01 9.39, 56.57 16.93, 57.84 22.79 C59.11 28.66, 57.8 35.48, 54.68 40.8 C51.57 46.12, 45.06 52.61, 39.13 54.73 C33.21 56.84, 24.9 55.38, 19.15 53.5 C13.39 51.62, 7.68 48.34, 4.58 43.45 C1.49 38.56, -0.14 30.29, 0.58 24.16 C1.29 18.03, 3.95 10.85, 8.85 6.69 C13.75 2.54, 26.28 0.22, 30 -0.77 C33.72 -1.76, 31.12 0.13, 31.16 0.74 M13.92 2.36 C19.01 -0.74, 29.28 -0.07, 35.77 1.33 C42.26 2.72, 49.15 6.33, 52.85 10.75 C56.56 15.18, 58.57 21.92, 58.01 27.87 C57.45 33.81, 53.57 42.02, 49.49 46.4 C45.4 50.79, 39.53 53.08, 33.49 54.19 C27.44 55.3, 18.6 56.03, 13.22 53.08 C7.84 50.14, 2.96 42.59, 1.22 36.54 C-0.52 30.49, 0.58 22.36, 2.78 16.8 C4.99 11.24, 12.18 5.13, 14.47 3.19 C16.76 1.26, 15.99 4.89, 16.53 5.2" stroke="none" stroke-width="0" fill="#a5d8ff"></path><path d="M21.48 0.69 C27.12 -1.01, 35.51 0.71, 41.27 3.46 C47.03 6.22, 53.51 11.83, 56.03 17.23 C58.56 22.62, 58.11 30.05, 56.42 35.84 C54.74 41.62, 50.85 48.76, 45.91 51.94 C40.98 55.12, 33.06 55.73, 26.81 54.92 C20.55 54.1, 12.78 51.15, 8.38 47.05 C3.98 42.94, 0.81 36.26, 0.4 30.3 C0 24.33, 2.09 16.2, 5.95 11.26 C9.82 6.32, 20.09 2.51, 23.59 0.65 C27.1 -1.21, 26.64 -0.24, 26.98 0.09 M42.87 3.83 C48.23 5.98, 52.84 12.58, 55.38 17.74 C57.91 22.9, 60.02 29.16, 58.08 34.78 C56.15 40.4, 48.96 47.74, 43.78 51.46 C38.6 55.18, 33.19 58.05, 26.98 57.11 C20.77 56.17, 11.01 50.26, 6.5 45.85 C1.99 41.43, 0.19 36.44, -0.09 30.63 C-0.38 24.82, 1.32 16.04, 4.8 10.98 C8.27 5.91, 14.44 1.54, 20.76 0.21 C27.08 -1.12, 39.29 2.41, 42.72 3.02 C46.15 3.63, 41.81 3.31, 41.36 3.87" stroke="#1e1e1e" stroke-width="2" fill="none"></path></g><g stroke-linecap="round" transform="translate(504.8673216678171 231.93897007289343) rotate(0 57.473772458618896 12.391134705952936)"><path d="M6.2 0 C28.84 1.5, 48.1 -0.88, 108.75 0 C110.41 -2.6, 114.41 3.09, 114.95 6.2 C114.57 8.64, 115.9 10.23, 114.95 18.59 C112.8 22.51, 115.03 28.2, 108.75 24.78 C73.53 24.77, 36.82 28.04, 6.2 24.78 C-0.07 21.37, -3.39 24.3, 0 18.59 C0.5 14.96, -1.59 10.78, 0 6.2 C-3.48 1.26, 4.23 0.26, 6.2 0" stroke="none" stroke-width="0" fill="#ced4da"></path><path d="M6.2 0 C31.09 1.61, 56.75 0.25, 108.75 0 M6.2 0 C32.36 -0.96, 57.47 0.23, 108.75 0 M108.75 0 C114.46 1.81, 113.32 2.65, 114.95 6.2 M108.75 0 C112.28 0.78, 116.03 2.92, 114.95 6.2 M114.95 6.2 C115.36 8.95, 116.01 12.5, 114.95 18.59 M114.95 6.2 C115.38 11.43, 114.89 16.32, 114.95 18.59 M114.95 18.59 C116.63 21.3, 111.2 25.09, 108.75 24.78 M114.95 18.59 C116.82 24.85, 110.59 22.69, 108.75 24.78 M108.75 24.78 C78.51 22.28, 48.53 25.28, 6.2 24.78 M108.75 24.78 C76.9 25.72, 45.2 24.29, 6.2 24.78 M6.2 24.78 C1.96 24.11, -1.06 22.65, 0 18.59 M6.2 24.78 C2.13 24.82, -1.1 23.69, 0 18.59 M0 18.59 C-0.64 15.32, -0.83 8.95, 0 6.2 M0 18.59 C0.1 13.9, -0.31 10.59, 0 6.2 M0 6.2 C-1.56 2.32, 2.29 1.31, 6.2 0 M0 6.2 C0.24 -0.19, 2.79 2.12, 6.2 0" stroke="#1e1e1e" stroke-width="2" fill="none"></path></g><g stroke-linecap="round"><g transform="translate(452.1390572073269 153.24901389636943) rotate(0 43.23716800734428 36.844978088263815)"><path d="M0 0 C-1.24 5.01, -1.11 11.73, 0 20.9 M0 0 C0.25 8.09, 0.91 15.58, 0 20.9 M0 20.9 C-1.63 32.15, 4.81 37.58, 16 36.9 M0 20.9 C1.08 32.43, 4.86 35.32, 16 36.9 M16 36.9 C35.69 36.21, 53.53 37.66, 70.47 36.9 M16 36.9 C37.18 37.22, 59.46 35.86, 70.47 36.9 M70.47 36.9 C79.46 37.21, 88.1 44.09, 86.47 52.9 M70.47 36.9 C78.85 34.81, 86.24 43.67, 86.47 52.9 M86.47 52.9 C85.66 59.03, 86.56 62.6, 86.47 73.69 M86.47 52.9 C85.75 58.96, 86.34 66.29, 86.47 73.69" stroke="#1e1e1e" stroke-width="2" fill="none"></path></g><g transform="translate(452.1390572073269 153.24901389636943) rotate(0 43.23716800734428 36.844978088263815)"><path d="M79.67 56.6 C80.26 60.63, 82.08 66.28, 86.47 73.69 M79.67 56.6 C82.27 63.32, 85.27 69.46, 86.47 73.69" stroke="#1e1e1e" stroke-width="2" fill="none"></path></g><g transform="translate(452.1390572073269 153.24901389636943) rotate(0 43.23716800734428 36.844978088263815)"><path d="M92.25 56.23 C89.67 60.42, 88.33 66.16, 86.47 73.69 M92.25 56.23 C90.44 63.02, 89.02 69.29, 86.47 73.69" stroke="#1e1e1e" stroke-width="2" fill="none"></path></g></g><mask></mask><g stroke-linecap="round"><g transform="translate(638.1697048378292 150.20088613229382) rotate(0 -37.964305355696524 38.369041970299804)"><path d="M0 0 C-1.07 7.88, 0.86 14.58, 0 18.93 M0 0 C0.77 5.71, -0.75 9.98, 0 18.93 M0 18.93 C-0.53 30.28, -4.39 35.68, -16 34.93 M0 18.93 C-0.47 28.02, -4.7 35.86, -16 34.93 M-16 34.93 C-24.83 35.16, -35.52 36.01, -59.93 34.93 M-16 34.93 C-31.02 34.51, -48.57 35.38, -59.93 34.93 M-59.93 34.93 C-68.97 36.79, -77.92 38.44, -75.93 50.93 M-59.93 34.93 C-70.83 36.37, -77.25 39.68, -75.93 50.93 M-75.93 50.93 C-75.89 55.83, -75.42 60.7, -75.93 76.74 M-75.93 50.93 C-76.15 59.97, -76.62 69.65, -75.93 76.74" stroke="#1e1e1e" stroke-width="2" fill="none"></path></g><g transform="translate(638.1697048378292 150.20088613229382) rotate(0 -37.964305355696524 38.369041970299804)"><path d="M-84.04 57.48 C-82.28 65.55, -77.36 72.36, -75.93 76.74 M-84.04 57.48 C-81.15 63.26, -80.68 67.58, -75.93 76.74" stroke="#1e1e1e" stroke-width="2" fill="none"></path></g><g transform="translate(638.1697048378292 150.20088613229382) rotate(0 -37.964305355696524 38.369041970299804)"><path d="M-69.77 56.77 C-73.08 65.08, -73.25 72.14, -75.93 76.74 M-69.77 56.77 C-70.53 62.84, -73.72 67.34, -75.93 76.74" stroke="#1e1e1e" stroke-width="2" fill="none"></path></g></g><mask></mask><g stroke-linecap="round" transform="translate(324.1600414862214 566.7599198819662) rotate(0 29.000523327625615 27.945959848695566)"><path d="M34.48 1.38 C40.19 2.12, 47.2 5.02, 51.17 9.75 C55.14 14.48, 58.35 23.57, 58.3 29.77 C58.24 35.97, 55.2 42.7, 50.85 46.95 C46.49 51.21, 38.29 54.63, 32.16 55.29 C26.02 55.95, 19.12 53.99, 14.02 50.9 C8.92 47.81, 3.45 42.29, 1.57 36.75 C-0.31 31.21, 0.62 23.16, 2.75 17.63 C4.88 12.11, 8.14 6.42, 14.36 3.61 C20.57 0.81, 35.4 0.65, 40.02 0.79 C44.65 0.93, 42.36 3.76, 42.12 4.47 M28.22 -0.22 C34.19 -0.59, 43.47 1.13, 48.3 5.3 C53.13 9.47, 56.27 18.67, 57.18 24.81 C58.09 30.94, 56.73 37.3, 53.75 42.1 C50.78 46.9, 45.29 51.62, 39.32 53.6 C33.34 55.59, 23.68 55.77, 17.9 54.02 C12.12 52.27, 7.36 48.4, 4.63 43.09 C1.9 37.78, 0.31 28.09, 1.51 22.14 C2.72 16.19, 7.32 10.84, 11.84 7.4 C16.37 3.95, 25.63 2.77, 28.65 1.48 C31.68 0.19, 30.15 -0.31, 30.01 -0.33" stroke="none" stroke-width="0" fill="#a5d8ff"></path><path d="M38.11 1.97 C44.09 3.11, 50.83 6.97, 54.16 11.8 C57.49 16.64, 58.91 24.8, 58.09 30.96 C57.27 37.13, 53.72 44.66, 49.21 48.77 C44.7 52.88, 37.4 55.33, 31.02 55.64 C24.65 55.95, 15.94 54.26, 10.96 50.62 C5.99 46.97, 2.33 39.74, 1.18 33.78 C0.02 27.83, 1.14 20.08, 4.03 14.87 C6.91 9.65, 11.7 4.22, 18.47 2.49 C25.24 0.77, 39.48 3.57, 44.65 4.52 C49.81 5.48, 49.76 7.79, 49.47 8.22 M20.18 3.12 C25.55 0.55, 31.68 -1.67, 37.3 0.27 C42.92 2.22, 50.66 9.46, 53.9 14.79 C57.13 20.13, 57.98 26.64, 56.72 32.29 C55.46 37.94, 50.77 44.75, 46.31 48.7 C41.85 52.65, 35.98 55.79, 29.95 55.99 C23.93 56.19, 15.19 53.57, 10.18 49.89 C5.16 46.2, 1.09 40.04, -0.13 33.88 C-1.35 27.71, -0.31 18.32, 2.86 12.88 C6.03 7.44, 16.29 3, 18.88 1.22 C21.46 -0.56, 18.17 1.68, 18.36 2.2" stroke="#1e1e1e" stroke-width="2" fill="none"></path></g><g stroke-linecap="round" transform="translate(538.2897953876163 566.8032970593049) rotate(0 29.000523327625615 27.945959848695566)"><path d="M21.42 -0.14 C27.2 -1.82, 36.38 0.91, 42.11 3.77 C47.83 6.63, 53.49 11.73, 55.79 17.01 C58.09 22.28, 57.63 29.85, 55.92 35.41 C54.2 40.98, 50.46 46.98, 45.48 50.38 C40.49 53.79, 32.13 56.34, 26.01 55.84 C19.88 55.35, 13.22 51.69, 8.73 47.4 C4.25 43.11, -0.54 36.28, -0.91 30.12 C-1.28 23.97, 1.9 15.42, 6.52 10.49 C11.14 5.56, 22.36 2.05, 26.81 0.55 C31.26 -0.95, 33.09 1.09, 33.22 1.47 M19.65 0.21 C25.19 -1.77, 32.91 0.86, 38.63 3.16 C44.35 5.47, 50.72 9.19, 53.98 14.04 C57.25 18.88, 59.44 26.36, 58.21 32.24 C56.99 38.13, 51.37 45.18, 46.63 49.36 C41.88 53.54, 35.64 57.45, 29.74 57.32 C23.85 57.19, 15.94 52.53, 11.26 48.59 C6.58 44.65, 2.99 39.24, 1.67 33.7 C0.34 28.15, 0.27 20.81, 3.31 15.32 C6.36 9.83, 17.5 3.17, 19.94 0.75 C22.39 -1.68, 17.85 0.2, 18 0.75" stroke="none" stroke-width="0" fill="#a5d8ff"></path><path d="M31.69 -0.76 C37.53 -0.94, 44.85 3.08, 49.26 7.42 C53.67 11.76, 57.44 19.31, 58.15 25.26 C58.87 31.22, 57.15 38.21, 53.55 43.17 C49.95 48.13, 42.49 53.38, 36.54 55.02 C30.59 56.66, 23.26 55.52, 17.83 53 C12.4 50.48, 6.65 45.13, 3.97 39.9 C1.28 34.68, 0.28 27.27, 1.73 21.64 C3.18 16.01, 7.19 9.68, 12.67 6.12 C18.15 2.56, 30.44 0.89, 34.59 0.28 C38.75 -0.32, 37.91 2.16, 37.61 2.5 M29.77 -1.28 C35.45 -1.27, 44.63 4.58, 49.16 8.94 C53.7 13.3, 56.62 19.16, 57 24.87 C57.39 30.58, 54.71 38.17, 51.48 43.19 C48.24 48.21, 43.38 53.2, 37.58 54.97 C31.79 56.75, 22.59 56.17, 16.7 53.83 C10.81 51.49, 5.03 46.62, 2.24 40.94 C-0.55 35.26, -1.68 25.8, -0.04 19.76 C1.6 13.71, 6.99 7.98, 12.07 4.7 C17.15 1.41, 27.27 0.71, 30.46 0.03 C33.66 -0.64, 31.28 0.09, 31.26 0.67" stroke="#1e1e1e" stroke-width="2" fill="none"></path></g><g stroke-linecap="round"><g transform="translate(356.4381353880899 506.559432644528) rotate(0 -0.5272540824107637 25.48505808520349)"><path d="M0 0 C0.01 -0.03, 0.01 -0.08, 0 -0.1 M0 0 C0 -0.03, 0 -0.07, 0 -0.1 M0 -0.1 C0.55 0.64, -1.17 1.66, -0.1 -0.19 M0 -0.1 C-1.16 1.96, 0.48 1.9, -0.1 -0.19 M-0.1 -0.19 C-0.23 -0.16, -0.44 -0.23, -0.53 -0.19 M-0.1 -0.19 C-0.25 -0.21, -0.37 -0.18, -0.53 -0.19 M-0.53 -0.19 C-2.03 -0.7, -2.96 -0.78, -1.05 0.33 M-0.53 -0.19 C0.38 -0.04, -1.49 0.67, -1.05 0.33 M-1.05 0.33 C-2.34 13.47, -1.41 25.76, -1.05 51.16 M-1.05 0.33 C-1.52 15.83, -0.62 30.69, -1.05 51.16" stroke="#1e1e1e" stroke-width="2" fill="none"></path></g><g transform="translate(356.4381353880899 506.559432644528) rotate(0 -0.5272540824107637 25.48505808520349)"><path d="M-9.46 27.62 C-5.04 37.63, -1.72 42.86, -1.05 51.16 M-9.46 27.62 C-6.29 35.71, -4.2 42.4, -1.05 51.16" stroke="#1e1e1e" stroke-width="2" fill="none"></path></g><g transform="translate(356.4381353880899 506.559432644528) rotate(0 -0.5272540824107637 25.48505808520349)"><path d="M7.64 27.72 C5.93 37.71, 3.12 42.91, -1.05 51.16 M7.64 27.72 C5.19 35.84, 1.65 42.49, -1.05 51.16" stroke="#1e1e1e" stroke-width="2" fill="none"></path></g></g><mask></mask><g stroke-linecap="round"><g transform="translate(563.9770024070904 506.0640963241094) rotate(0 -0.5272540824107637 25.48505808520349)"><path d="M0 0 C0.01 -0.04, 0 -0.06, 0 -0.1 M0 0 C0 -0.04, 0 -0.06, 0 -0.1 M0 -0.1 C-1.14 1.69, -1.04 1.65, -0.1 -0.19 M0 -0.1 C0.52 1.94, 1.45 1.21, -0.1 -0.19 M-0.1 -0.19 C-0.25 -0.23, -0.34 -0.16, -0.53 -0.19 M-0.1 -0.19 C-0.27 -0.19, -0.45 -0.2, -0.53 -0.19 M-0.53 -0.19 C-2.79 -0.96, 0.04 0.12, -1.05 0.33 M-0.53 -0.19 C-1.31 0.5, -1.96 1.44, -1.05 0.33 M-1.05 0.33 C-2.14 11.27, -1.53 24.38, -1.05 51.16 M-1.05 0.33 C-0.88 15.87, -1.78 30.52, -1.05 51.16" stroke="#1e1e1e" stroke-width="2" fill="none"></path></g><g transform="translate(563.9770024070904 506.0640963241094) rotate(0 -0.5272540824107637 25.48505808520349)"><path d="M-10 27.82 C-5.21 33.41, -3.66 41.8, -1.05 51.16 M-10 27.82 C-7.11 34.89, -3.64 43.78, -1.05 51.16" stroke="#1e1e1e" stroke-width="2" fill="none"></path></g><g transform="translate(563.9770024070904 506.0640963241094) rotate(0 -0.5272540824107637 25.48505808520349)"><path d="M7.1 27.53 C6.55 33.35, 2.77 41.83, -1.05 51.16 M7.1 27.53 C4.28 34.77, 2.04 43.75, -1.05 51.16" stroke="#1e1e1e" stroke-width="2" fill="none"></path></g></g><mask></mask><g stroke-linecap="round" transform="translate(611.9466188997267 705.3558782315813) rotate(0 57.473772458618896 12.391134705952936)"><path d="M1.65 1.43 C1.65 1.43, 1.65 1.43, 1.65 1.43 M1.65 1.43 C1.65 1.43, 1.65 1.43, 1.65 1.43 M0.47 14.98 C5.13 8.42, 7.99 6.09, 12.94 0.64 M0.47 14.98 C3.84 11.88, 5.06 8.9, 12.94 0.64 M3.23 24.01 C12.44 15.91, 20.76 5.82, 23.57 0.61 M3.23 24.01 C9.37 17.38, 14.71 9.75, 23.57 0.61 M13.2 24.73 C22.44 14.26, 28.63 5.53, 34.2 0.58 M13.2 24.73 C20.08 16.73, 28.77 6.78, 34.2 0.58 M23.83 24.69 C30.18 13.31, 41.32 5.29, 44.83 0.54 M23.83 24.69 C30.52 16.15, 37.01 8.07, 44.83 0.54 M34.46 24.66 C41.23 18.94, 45.03 12.92, 55.46 0.51 M34.46 24.66 C40.19 16.93, 46.92 9.13, 55.46 0.51 M45.09 24.62 C52.26 16.52, 59.19 9.43, 66.09 0.47 M45.09 24.62 C52.86 15.21, 61.5 4.76, 66.09 0.47 M55.72 24.59 C63.47 13.89, 72.3 7.21, 76.72 0.44 M55.72 24.59 C61.36 18.43, 65.97 14.73, 76.72 0.44 M65.7 25.31 C71.56 15.55, 81.79 7.42, 87.35 0.4 M65.7 25.31 C74.14 15.39, 81.68 8.16, 87.35 0.4 M76.33 25.27 C82.93 21.95, 86.22 12.85, 97.98 0.37 M76.33 25.27 C80.76 21.01, 84.46 14.39, 97.98 0.37 M86.96 25.24 C94.89 16.85, 102.7 5.35, 108.61 0.33 M86.96 25.24 C91.69 19.86, 96.51 12.75, 108.61 0.33 M97.59 25.2 C101.83 20.12, 104.65 16.35, 114.64 5.58 M97.59 25.2 C103.26 18.11, 108.38 11.41, 114.64 5.58 M108.22 25.17 C110.11 22.12, 113.5 19.5, 114.78 17.62 M108.22 25.17 C110.43 23.25, 112.22 20.82, 114.78 17.62 M3.76 24.63 C3.76 24.63, 3.76 24.63, 3.76 24.63 M3.76 24.63 C3.76 24.63, 3.76 24.63, 3.76 24.63 M15.8 24.5 C9.23 21.56, 3.47 16.43, 0.71 11.38 M15.8 24.5 C10.48 20.35, 4.71 15.42, 0.71 11.38 M27.84 24.37 C17.46 17.91, 9.54 11.43, 1.43 1.41 M27.84 24.37 C17.9 16.26, 6.54 6.28, 1.43 1.41 M39.88 24.24 C28.74 13.2, 16.34 5.62, 11.2 -0.7 M39.88 24.24 C30.21 15.98, 20.48 7.75, 11.2 -0.7 M52.68 24.76 C42.98 15.73, 32.64 8.75, 23.25 -0.83 M52.68 24.76 C42.15 16.16, 34.05 7.65, 23.25 -0.83 M64.72 24.62 C56.24 17.73, 48.19 8.84, 36.04 -0.31 M64.72 24.62 C59.18 20.23, 52.06 14.87, 36.04 -0.31 M76.76 24.49 C63.91 15.15, 54.11 3.22, 48.08 -0.44 M76.76 24.49 C68.79 16.05, 57.7 7.72, 48.08 -0.44 M89.56 25.01 C79.57 19.43, 73.55 9.26, 60.12 -0.57 M89.56 25.01 C77.53 14.46, 66.46 5.55, 60.12 -0.57 M101.6 24.88 C93.03 18.42, 86.41 11.66, 72.92 -0.05 M101.6 24.88 C91.93 15.11, 82.08 8.16, 72.92 -0.05 M112.13 23.44 C100.61 13.71, 91.66 8.31, 84.96 -0.18 M112.13 23.44 C105.91 17.25, 98.63 11.61, 84.96 -0.18 M115.11 15.43 C110.2 11.69, 104.45 5.7, 97 -0.31 M115.11 15.43 C111.31 10.78, 106.48 7.84, 97 -0.31 M115.08 4.8 C112.96 3.4, 112.81 1.59, 109.04 -0.45 M115.08 4.8 C113.22 2.9, 111 1.54, 109.04 -0.45" stroke="#ced4da" stroke-width="1" fill="none"></path><path d="M6.2 0 C45.62 0.31, 84.57 1.78, 108.75 0 M108.75 0 C113.63 -0.41, 113.57 2.62, 114.95 6.2 M114.95 6.2 C114.25 11.55, 115.15 15.76, 114.95 18.59 M114.95 18.59 C116.24 23.94, 112.62 26.08, 108.75 24.78 M108.75 24.78 C69.66 25.55, 31.81 21.93, 6.2 24.78 M6.2 24.78 C0.24 24.58, 1.25 21.57, 0 18.59 M0 18.59 C0.79 15.27, -0.12 12.16, 0 6.2 M0 6.2 C-0.79 3.33, 0.78 -1.61, 6.2 0" stroke="#1e1e1e" stroke-width="2.5" fill="none" stroke-dasharray="8 10"></path></g><g stroke-linecap="round" transform="translate(639.2516559179385 562.1871127050108) rotate(0 29.000523327625615 27.945959848695566)"><path d="M1.65 16.01 C1.65 16.01, 1.65 16.01, 1.65 16.01 M1.65 16.01 C1.65 16.01, 1.65 16.01, 1.65 16.01 M1.78 28.05 C9.38 21.21, 15.7 11.65, 24.09 2.39 M1.78 28.05 C6.23 22.07, 13.67 15.58, 24.09 2.39 M3.23 38.58 C15.01 24.75, 25.36 14.15, 35.38 1.6 M3.23 38.58 C15.26 26.3, 25.75 11.24, 35.38 1.6 M8.61 44.59 C20.43 30.63, 30.98 15.39, 42.73 5.34 M8.61 44.59 C17.94 34.67, 27.81 22.49, 42.73 5.34 M13.34 51.34 C26.11 38.16, 40.82 23.73, 50.08 9.08 M13.34 51.34 C21.94 41.28, 32.23 28.9, 50.08 9.08 M22 53.57 C28.8 46.15, 36.32 38.43, 54.8 15.84 M22 53.57 C31 42.29, 42.28 31.41, 54.8 15.84 M30.66 55.8 C41.73 45.23, 48.52 33.25, 57.56 24.86 M30.66 55.8 C35.71 50.05, 40.61 43.73, 57.56 24.86 M45.23 51.24 C48.25 49.48, 50.29 46.18, 53.76 41.43 M45.23 51.24 C46.86 49.25, 48.8 46.38, 53.76 41.43 M13.75 51.25 C13.75 51.25, 13.75 51.25, 13.75 51.25 M13.75 51.25 C13.75 51.25, 13.75 51.25, 13.75 51.25 M31.08 55.71 C25.31 50.34, 17.18 45.09, 2.4 30.78 M31.08 55.71 C24.08 50.41, 19.1 46.46, 2.4 30.78 M40.1 52.95 C23.03 40.71, 8 26.68, 2.36 20.14 M40.1 52.95 C27.51 41.52, 13.77 28.49, 2.36 20.14 M47.61 48.88 C30.61 34.43, 14.96 20.06, 6.1 12.8 M47.61 48.88 C32.78 36.7, 18.31 23.68, 6.1 12.8 M52.86 42.84 C42.86 33.1, 31.81 23.76, 12.11 7.41 M52.86 42.84 C43.61 33.71, 32.75 23.8, 12.11 7.41 M56.6 35.49 C45.28 24.63, 34.39 17.15, 18.86 2.69 M56.6 35.49 C41.92 24.42, 28.4 11.11, 18.86 2.69 M58.83 26.83 C51.9 21.26, 44.77 16.67, 29.4 1.24 M58.83 26.83 C47.37 18.12, 37.33 9.08, 29.4 1.24 M53.51 11.61 C53.26 11.42, 52.81 10.93, 52 10.29 M53.51 11.61 C53.07 11.19, 52.46 10.72, 52 10.29" stroke="#a5d8ff" stroke-width="1" fill="none"></path><path d="M35.09 1.05 C40.92 1.97, 48.75 6.07, 52.72 10.76 C56.68 15.44, 59.17 23.04, 58.87 29.15 C58.58 35.26, 55.24 42.88, 50.96 47.41 C46.68 51.94, 39.42 55.74, 33.19 56.36 C26.97 56.98, 18.83 54.39, 13.6 51.11 C8.38 47.84, 3.83 42.58, 1.84 36.72 C-0.14 30.86, -0.7 21.45, 1.7 15.96 C4.1 10.46, 9.67 6.22, 16.22 3.75 C22.77 1.28, 36.57 1.01, 41.02 1.13 C45.47 1.25, 43.16 3.98, 42.92 4.48" stroke="#1e1e1e" stroke-width="2.5" fill="none" stroke-dasharray="8 10"></path></g><g stroke-linecap="round" transform="translate(742.7145387979435 555.9637744871798) rotate(0 29.000523327625615 27.945959848695566)"><path d="M8.9 7.74 C8.9 7.74, 8.9 7.74, 8.9 7.74 M8.9 7.74 C8.9 7.74, 8.9 7.74, 8.9 7.74 M1.16 28.83 C7.89 20.33, 12.96 15.43, 26.75 -0.6 M1.16 28.83 C8.36 22.09, 13.82 13.97, 26.75 -0.6 M3.26 38.61 C12.01 29.18, 21.68 19.25, 35.41 1.63 M3.26 38.61 C8.68 30.23, 16.64 23.85, 35.41 1.63 M7.99 45.37 C19.87 28.65, 34.22 15.4, 44.07 3.86 M7.99 45.37 C15.36 36.48, 23.35 27.55, 44.07 3.86 M14.68 49.86 C25.12 41.22, 30.84 31.73, 50.11 9.11 M14.68 49.86 C28.43 33.85, 40.1 18.44, 50.11 9.11 M20.72 55.11 C33.01 42.03, 44.16 26.65, 54.83 15.87 M20.72 55.11 C30.82 44.77, 39.88 34.71, 54.83 15.87 M32 54.32 C37.33 45.91, 43.08 38.54, 58.25 24.13 M32 54.32 C36.82 47.92, 43.51 41.13, 58.25 24.13 M49.2 46.74 C51.47 44.72, 53.35 41.43, 57.07 37.68 M49.2 46.74 C50.93 44.09, 53.7 40.96, 57.07 37.68 M4.68 43.39 C4.68 43.39, 4.68 43.39, 4.68 43.39 M4.68 43.39 C4.68 43.39, 4.68 43.39, 4.68 43.39 M26.54 51.78 C19.9 47.65, 11.75 41.45, 0.88 29.48 M26.54 51.78 C16.89 43.97, 7.71 34.61, 0.88 29.48 M37.07 50.34 C28.72 44.93, 25.09 37.58, 4.62 22.13 M37.07 50.34 C30.84 44.36, 23.79 37.95, 4.62 22.13 M46.84 48.24 C34.22 36.71, 24.09 25.6, 7.6 14.12 M46.84 48.24 C37.24 40.77, 28.48 32.27, 7.6 14.12 M52.85 42.85 C40.37 31.35, 26.04 18.89, 10.58 6.12 M52.85 42.85 C42.52 33.11, 31.46 24.8, 10.58 6.12 M58.85 37.47 C45.58 26.48, 33.21 14.23, 18.1 2.05 M58.85 37.47 C45.37 25.75, 32.34 15.95, 18.1 2.05 M59.57 27.5 C49.89 21.05, 44.26 13.16, 27.12 -0.71 M59.57 27.5 C49.81 19.93, 39.41 11.31, 27.12 -0.71 M60.29 17.53 C56.9 14.11, 53.48 12.74, 43.69 3.09 M60.29 17.53 C54.57 12.83, 48.6 8.82, 43.69 3.09" stroke="#a5d8ff" stroke-width="1" fill="none"></path><path d="M26.43 -0.42 C32.53 -1.49, 40.96 0.81, 46.19 4.3 C51.42 7.79, 56.12 14.57, 57.81 20.52 C59.51 26.47, 58.97 34.6, 56.38 40.01 C53.79 45.41, 47.91 50.31, 42.28 52.95 C36.64 55.6, 28.83 57.47, 22.58 55.89 C16.34 54.31, 8.52 48.34, 4.8 43.49 C1.07 38.63, -0.49 32.76, 0.23 26.76 C0.95 20.76, 3.93 11.95, 9.11 7.5 C14.28 3.05, 26.34 1.08, 31.26 0.07 C36.18 -0.95, 38.57 1.07, 38.62 1.39" stroke="#1e1e1e" stroke-width="2.5" fill="none" stroke-dasharray="8 10"></path></g><g stroke-linecap="round"><g transform="translate(771.6150621255692 616.85552804287) rotate(0 -37.96430535569607 38.369041970297985)"><path d="M0 0 C-1.23 7.09, 0.83 12.07, 0 18.93 M0 18.93 C1.85 28.6, -3.49 35.38, -16 34.93 M-16 34.93 C-33.45 36.5, -48.69 33.79, -59.93 34.93 M-59.93 34.93 C-72.28 35.25, -74.3 42.13, -75.93 50.93 M-75.93 50.93 C-74.92 54.95, -76.67 59.37, -75.93 76.74" stroke="#1e1e1e" stroke-width="2.5" fill="none" stroke-dasharray="8 10"></path></g><g transform="translate(771.6150621255692 616.85552804287) rotate(0 -37.96430535569607 38.369041970297985)"><path d="M-83.29 57.18 C-82.04 64.53, -77.3 69.63, -75.93 76.74" stroke="#1e1e1e" stroke-width="2.5" fill="none"></path></g><g transform="translate(771.6150621255692 616.85552804287) rotate(0 -37.96430535569607 38.369041970297985)"><path d="M-69 57.02 C-72.7 64.4, -72.93 69.56, -75.93 76.74" stroke="#1e1e1e" stroke-width="2.5" fill="none"></path></g></g><mask></mask><g stroke-linecap="round"><g transform="translate(672.9964164124922 628.5740804990637) rotate(0 -1.011475141608571 32.62658035961795)"><path d="M0 0 C0.05 0.35, 0.13 0.79, 0 1.55 M0 1.55 C1.84 2.67, 1.49 3.86, -1.01 2.56 M-1.01 2.56 C-1.01 2.56, -1.01 2.56, -1.01 2.56 M-1.01 2.56 C-0.06 4.42, -4.01 1.08, -2.02 3.57 M-2.02 3.57 C-2.15 19.55, -2.4 40.43, -2.02 65.25" stroke="#1e1e1e" stroke-width="2.5" fill="none" stroke-dasharray="8 10"></path></g><g transform="translate(672.9964164124922 628.5740804990637) rotate(0 -1.011475141608571 32.62658035961795)"><path d="M-10.78 41.84 C-7.69 47.22, -4.2 53.89, -2.02 65.25" stroke="#1e1e1e" stroke-width="2.5" fill="none"></path></g><g transform="translate(672.9964164124922 628.5740804990637) rotate(0 -1.011475141608571 32.62658035961795)"><path d="M6.32 41.69 C4.63 47.15, 3.34 53.87, -2.02 65.25" stroke="#1e1e1e" stroke-width="2.5" fill="none"></path></g></g><mask></mask><g stroke-linecap="round"><g transform="translate(567.190318715242 627.6950506149915) rotate(0 38.73465131352077 32.60564434274784)"><path d="M0 0 C1.23 3.53, 1.22 8.62, 0 12.72 M0 12.72 C1.82 22.49, 5.46 25.18, 12.72 25.44 M12.72 25.44 C28.83 26.1, 49.93 27.64, 61.47 25.44 M61.47 25.44 C70.14 23.62, 77.27 32.02, 77.47 41.44 M77.47 41.44 C76.65 48.3, 77.54 52.59, 77.47 65.21" stroke="#1e1e1e" stroke-width="2.5" fill="none" stroke-dasharray="8 10"></path></g><g transform="translate(567.190318715242 627.6950506149915) rotate(0 38.73465131352077 32.60564434274784)"><path d="M70.42 46.62 C74.65 51.75, 76.95 59.28, 77.47 65.21" stroke="#1e1e1e" stroke-width="2.5" fill="none"></path></g><g transform="translate(567.190318715242 627.6950506149915) rotate(0 38.73465131352077 32.60564434274784)"><path d="M84.03 46.44 C83.79 51.55, 81.64 59.15, 77.47 65.21" stroke="#1e1e1e" stroke-width="2.5" fill="none"></path></g></g><mask></mask><g stroke-linecap="round"><g transform="translate(669.3203913583457 735.1381476434835) rotate(0 102.65478005181694 -46.070667471094566)"><path d="M0 0 C2.19 9.48, 2.17 19.35, 0 37.16 M0 37.16 C1.22 47.56, 6.63 54.84, 16 53.16 M16 53.16 C57.36 54.75, 93.47 51.07, 189.31 53.16 M189.31 53.16 C199.77 54.41, 204.16 47.32, 205.31 37.16 M205.31 37.16 C206.08 2.73, 206.55 -31.73, 205.31 -129.3 M205.31 -129.3 C206.57 -141.25, 198.37 -145.41, 189.31 -145.3 M189.31 -145.3 C179.09 -145.28, 167.79 -144.47, 150.68 -145.3" stroke="#1e1e1e" stroke-width="2.5" fill="none" stroke-dasharray="8 10"></path></g><g transform="translate(669.3203913583457 735.1381476434835) rotate(0 102.65478005181694 -46.070667471094566)"><path d="M174.39 -153.23 C170.55 -150.97, 164.77 -148.2, 150.68 -145.3" stroke="#1e1e1e" stroke-width="2.5" fill="none"></path></g><g transform="translate(669.3203913583457 735.1381476434835) rotate(0 102.65478005181694 -46.070667471094566)"><path d="M173.94 -136.13 C170.05 -138.03, 164.38 -139.41, 150.68 -145.3" stroke="#1e1e1e" stroke-width="2.5" fill="none"></path></g></g><mask></mask><g stroke-linecap="round" transform="translate(303.54379777240047 474.6625912925447) rotate(0 57.473772458618896 12.391134705952936)"><path d="M6.2 0 C38.48 3.33, 77.01 2.58, 108.75 0 C113.79 0.89, 114.8 -0.42, 114.95 6.2 C116.07 9.67, 115.95 13.93, 114.95 18.59 C113.26 25.75, 113.37 22.86, 108.75 24.78 C78.73 22.73, 55.74 20.81, 6.2 24.78 C2.77 24.89, -0.28 22.92, 0 18.59 C1.32 13.28, 0.34 10, 0 6.2 C-2.51 4.44, -1.41 -0.1, 6.2 0" stroke="none" stroke-width="0" fill="#ced4da"></path><path d="M6.2 0 C33.63 1.06, 58.64 -0.5, 108.75 0 M6.2 0 C42.79 0.88, 81.87 1.65, 108.75 0 M108.75 0 C110.89 -1.82, 114.75 3.31, 114.95 6.2 M108.75 0 C111.56 -0.58, 112.75 1.19, 114.95 6.2 M114.95 6.2 C115.33 10.1, 115.74 14.19, 114.95 18.59 M114.95 6.2 C114.61 8.89, 114.96 11.65, 114.95 18.59 M114.95 18.59 C113.99 23.56, 113.71 25.18, 108.75 24.78 M114.95 18.59 C113.84 21.58, 114.67 23.29, 108.75 24.78 M108.75 24.78 C88.19 26.4, 64.73 25.07, 6.2 24.78 M108.75 24.78 C74.65 25.57, 40.42 23.94, 6.2 24.78 M6.2 24.78 C2.7 26.63, -1.92 21.49, 0 18.59 M6.2 24.78 C3.23 25.89, 1.56 22.77, 0 18.59 M0 18.59 C-0.1 15.2, -1.09 10.75, 0 6.2 M0 18.59 C0.3 13.4, -0.35 8.76, 0 6.2 M0 6.2 C1.19 3.97, 3.42 -0.89, 6.2 0 M0 6.2 C1.92 3.67, 1.07 2.26, 6.2 0" stroke="#1e1e1e" stroke-width="2" fill="none"></path></g><g stroke-linecap="round" transform="translate(497.56384677502774 471.1884128305537) rotate(0 57.473772458618896 12.391134705952936)"><path d="M6.2 0 C26.73 0.02, 49.2 0.08, 108.75 0 C112.74 -2.49, 113.77 -1.41, 114.95 6.2 C116.3 10.75, 114.04 14.95, 114.95 18.59 C115.44 20.8, 111.56 21.25, 108.75 24.78 C81.35 20.4, 52.68 24.05, 6.2 24.78 C1.79 24.98, 1.2 26.1, 0 18.59 C0.4 14.65, -1.71 12.83, 0 6.2 C-3.48 1.96, 1.77 -3.35, 6.2 0" stroke="none" stroke-width="0" fill="#ced4da"></path><path d="M6.2 0 C40.48 -0.93, 73.63 1.02, 108.75 0 M6.2 0 C30.52 0.77, 52.22 -1.07, 108.75 0 M108.75 0 C112.68 1.25, 113.8 1.56, 114.95 6.2 M108.75 0 C110.69 -0.88, 116.2 2.22, 114.95 6.2 M114.95 6.2 C115.77 8.88, 113.99 13.1, 114.95 18.59 M114.95 6.2 C114.9 9.51, 114.59 13.05, 114.95 18.59 M114.95 18.59 C115.78 23.12, 111.92 23.8, 108.75 24.78 M114.95 18.59 C116.74 21.23, 110.71 25.5, 108.75 24.78 M108.75 24.78 C66.86 24.5, 29.39 23.58, 6.2 24.78 M108.75 24.78 C76.76 24.48, 44.88 26.38, 6.2 24.78 M6.2 24.78 C0.14 23.56, 1.01 23.68, 0 18.59 M6.2 24.78 C3.62 24.83, 0.04 21.14, 0 18.59 M0 18.59 C-1.16 15.41, 1.2 12.77, 0 6.2 M0 18.59 C-0.43 14.89, 0.31 11.85, 0 6.2 M0 6.2 C1.36 1.17, 3.74 1.39, 6.2 0 M0 6.2 C-1 4.33, 3.16 -1.36, 6.2 0" stroke="#1e1e1e" stroke-width="2" fill="none"></path></g><g stroke-linecap="round" transform="translate(533.5587605943465 341.30815040245943) rotate(0 29.000523327625615 27.945959848695566)"><path d="M37.95 0.87 C43.61 2.46, 50.7 8.78, 53.81 14.01 C56.93 19.23, 57.49 26.39, 56.66 32.22 C55.83 38.06, 53.39 45.01, 48.82 49.03 C44.26 53.05, 35.71 56.36, 29.26 56.34 C22.81 56.33, 14.93 52.72, 10.12 48.94 C5.32 45.17, 1.34 39.35, 0.44 33.68 C-0.47 28.01, 1.7 20.08, 4.69 14.91 C7.67 9.73, 11.59 4.45, 18.35 2.62 C25.12 0.8, 39.97 2.84, 45.29 3.95 C50.62 5.06, 50.78 8.97, 50.31 9.28 M16.21 3.41 C21.26 0.54, 30.1 -0.54, 35.92 0.66 C41.75 1.87, 47.71 5.92, 51.14 10.66 C54.58 15.4, 56.52 23.02, 56.51 29.1 C56.5 35.18, 54.96 42.58, 51.09 47.13 C47.23 51.69, 39.76 55.52, 33.32 56.43 C26.89 57.35, 17.79 56.16, 12.48 52.63 C7.17 49.11, 3.25 41.47, 1.46 35.29 C-0.32 29.11, -0.58 21.12, 1.77 15.53 C4.11 9.94, 13.23 3.7, 15.51 1.77 C17.79 -0.16, 15.42 3.27, 15.45 3.94" stroke="none" stroke-width="0" fill="#a5d8ff"></path><path d="M41.01 3.25 C46.82 5.23, 53.49 9.52, 56.02 14.75 C58.56 19.99, 57.78 28.79, 56.21 34.66 C54.65 40.54, 51.55 46.65, 46.62 50.01 C41.7 53.38, 33.03 55.11, 26.66 54.87 C20.3 54.62, 12.84 52.59, 8.43 48.55 C4.02 44.51, 0.74 36.73, 0.22 30.62 C-0.3 24.51, 1.71 16.91, 5.29 11.88 C8.87 6.84, 15.08 1.55, 21.7 0.43 C28.31 -0.7, 40.38 3.74, 44.98 5.1 C49.58 6.47, 49.46 8.21, 49.31 8.6 M29.88 0.3 C35.78 -0.23, 42.3 2.28, 47.11 5.96 C51.93 9.63, 57.86 16.25, 58.77 22.36 C59.68 28.47, 55.69 37.21, 52.57 42.6 C49.45 47.98, 45.57 52.99, 40.03 54.67 C34.5 56.36, 25.49 54.79, 19.37 52.72 C13.24 50.64, 6.62 47.16, 3.28 42.21 C-0.06 37.27, -1.92 28.85, -0.68 23.05 C0.56 17.24, 5.71 11.45, 10.73 7.37 C15.74 3.28, 26.24 -0.56, 29.41 -1.47 C32.58 -2.37, 29.99 1.39, 29.72 1.94" stroke="#1e1e1e" stroke-width="2" fill="none"></path></g><g stroke-linecap="round"><g transform="translate(356.07370542792614 272.0753879647673) rotate(0 -0.5272540824107637 25.48505808520349)"><path d="M0 0 C-0.01 -0.04, 0 -0.05, 0 -0.1 M0 0 C0 -0.04, 0 -0.08, 0 -0.1 M0 -0.1 C-1.91 -0.92, 1.06 -0.06, -0.1 -0.19 M0 -0.1 C-0.44 0.53, -0.94 1.26, -0.1 -0.19 M-0.1 -0.19 C-0.21 -0.22, -0.3 -0.19, -0.53 -0.19 M-0.1 -0.19 C-0.22 -0.19, -0.37 -0.2, -0.53 -0.19 M-0.53 -0.19 C0.68 -1.49, -2.94 0.6, -1.05 0.33 M-0.53 -0.19 C1.2 0.39, -0.25 -2.17, -1.05 0.33 M-1.05 0.33 C-0.62 14.18, 0.43 27.79, -1.05 51.16 M-1.05 0.33 C-1.85 9.99, -0.39 21.36, -1.05 51.16" stroke="#1e1e1e" stroke-width="2" fill="none"></path></g><g transform="translate(356.07370542792614 272.0753879647673) rotate(0 -0.5272540824107637 25.48505808520349)"><path d="M-9.45 27.62 C-8.31 32.61, -4.17 42.68, -1.05 51.16 M-9.45 27.62 C-6.49 37.57, -3.66 45.94, -1.05 51.16" stroke="#1e1e1e" stroke-width="2" fill="none"></path></g><g transform="translate(356.07370542792614 272.0753879647673) rotate(0 -0.5272540824107637 25.48505808520349)"><path d="M7.65 27.73 C3.89 32.84, 3.12 42.87, -1.05 51.16 M7.65 27.73 C3.89 37.48, 0 45.81, -1.05 51.16" stroke="#1e1e1e" stroke-width="2" fill="none"></path></g></g><mask></mask><g stroke-linecap="round"><g transform="translate(559.0460164419446 272.8355647931312) rotate(0 -0.5272540824107637 25.48505808520349)"><path d="M0 0 C0 -0.03, 0.01 -0.08, 0 -0.1 M0 0 C0 -0.02, 0 -0.04, 0 -0.1 M0 -0.1 C1.09 -0.03, -0.41 0.41, -0.1 -0.19 M0 -0.1 C-0.91 1.29, -1.51 -2.05, -0.1 -0.19 M-0.1 -0.19 C-0.23 -0.2, -0.35 -0.22, -0.53 -0.19 M-0.1 -0.19 C-0.25 -0.2, -0.37 -0.21, -0.53 -0.19 M-0.53 -0.19 C-2.77 0.43, 0.75 0.49, -1.05 0.33 M-0.53 -0.19 C-0.08 -2.35, -1.79 0.76, -1.05 0.33 M-1.05 0.33 C0.33 11.83, -2.95 23.54, -1.05 51.16 M-1.05 0.33 C-1.04 20.75, -0.87 40.24, -1.05 51.16" stroke="#1e1e1e" stroke-width="2" fill="none"></path></g><g transform="translate(559.0460164419446 272.8355647931312) rotate(0 -0.5272540824107637 25.48505808520349)"><path d="M-9.43 27.61 C-6.07 38.36, -1.3 43.79, -1.05 51.16 M-9.43 27.61 C-8.28 32.22, -6.91 37.02, -1.05 51.16" stroke="#1e1e1e" stroke-width="2" fill="none"></path></g><g transform="translate(559.0460164419446 272.8355647931312) rotate(0 -0.5272540824107637 25.48505808520349)"><path d="M7.67 27.74 C4.46 38.29, 2.66 43.67, -1.05 51.16 M7.67 27.74 C5.25 32.43, 3.05 37.19, -1.05 51.16" stroke="#1e1e1e" stroke-width="2" fill="none"></path></g></g><mask></mask><g stroke-linecap="round"><g transform="translate(358.9158518724007 407.0699624705085) rotate(0 -0.5272540824107637 25.48505808520349)"><path d="M0 0 C0.01 -0.03, -0.01 -0.04, 0 -0.1 M0 0 C0 -0.04, 0 -0.07, 0 -0.1 M0 -0.1 C-0.38 0.44, -0.82 1.07, -0.1 -0.19 M0 -0.1 C-1.47 -2.01, -0.15 -0.97, -0.1 -0.19 M-0.1 -0.19 C-0.2 -0.22, -0.29 -0.18, -0.53 -0.19 M-0.1 -0.19 C-0.22 -0.21, -0.39 -0.19, -0.53 -0.19 M-0.53 -0.19 C0.93 0.32, -0.36 -1.89, -1.05 0.33 M-0.53 -0.19 C-1.61 0.58, -2.85 0.28, -1.05 0.33 M-1.05 0.33 C-2.68 16.8, 1.13 30.07, -1.05 51.16 M-1.05 0.33 C-0.12 12.49, -0.78 23.92, -1.05 51.16" stroke="#1e1e1e" stroke-width="2" fill="none"></path></g><g transform="translate(358.9158518724007 407.0699624705085) rotate(0 -0.5272540824107637 25.48505808520349)"><path d="M-9.27 27.55 C-5.6 30.59, -7.51 37.47, -1.05 51.16 M-9.27 27.55 C-7.38 35.75, -2.91 44.75, -1.05 51.16" stroke="#1e1e1e" stroke-width="2" fill="none"></path></g><g transform="translate(358.9158518724007 407.0699624705085) rotate(0 -0.5272540824107637 25.48505808520349)"><path d="M7.83 27.8 C7.81 30.92, 2.21 37.75, -1.05 51.16 M7.83 27.8 C3.52 35.86, 1.81 44.77, -1.05 51.16" stroke="#1e1e1e" stroke-width="2" fill="none"></path></g></g><mask></mask><g stroke-linecap="round"><g transform="translate(561.8881628864183 407.8301392988724) rotate(0 -0.5272540824107637 25.48505808520349)"><path d="M0 0 C-0.01 -0.04, 0.01 -0.08, 0 -0.1 M0 0 C0 -0.03, 0 -0.05, 0 -0.1 M0 -0.1 C-0.79 1.1, -1.31 -1.8, -0.1 -0.19 M0 -0.1 C-0.12 -0.94, -1.25 -0.27, -0.1 -0.19 M-0.1 -0.19 C-0.21 -0.18, -0.35 -0.22, -0.53 -0.19 M-0.1 -0.19 C-0.23 -0.19, -0.29 -0.19, -0.53 -0.19 M-0.53 -0.19 C-0.18 -2.07, -1.69 0.65, -1.05 0.33 M-0.53 -0.19 C-2.67 0.1, -0.79 1.49, -1.05 0.33 M-1.05 0.33 C0.29 14.19, -2.78 32.9, -1.05 51.16 M-1.05 0.33 C-0.69 17.33, -1.43 35.56, -1.05 51.16" stroke="#1e1e1e" stroke-width="2" fill="none"></path></g><g transform="translate(561.8881628864183 407.8301392988724) rotate(0 -0.5272540824107637 25.48505808520349)"><path d="M-9.76 27.73 C-8.05 36.55, -1.66 44.54, -1.05 51.16 M-9.76 27.73 C-7.05 34.27, -5.39 40.93, -1.05 51.16" stroke="#1e1e1e" stroke-width="2" fill="none"></path></g><g transform="translate(561.8881628864183 407.8301392988724) rotate(0 -0.5272540824107637 25.48505808520349)"><path d="M7.34 27.62 C2.53 36.31, 2.4 44.34, -1.05 51.16 M7.34 27.62 C5.35 34.12, 2.31 40.82, -1.05 51.16" stroke="#1e1e1e" stroke-width="2" fill="none"></path></g></g><mask></mask><g stroke-linecap="round" transform="translate(232.38583336202373 562.3362520755836) rotate(0 29.000523327625615 27.945959848695566)"><path d="M26.52 -0.53 C32.38 -1.26, 40.73 2.2, 45.99 5.94 C51.26 9.67, 56.65 16.02, 58.09 21.87 C59.53 27.72, 57.39 35.84, 54.62 41.04 C51.85 46.23, 46.93 50.67, 41.49 53.05 C36.05 55.42, 28.17 57.02, 21.98 55.29 C15.8 53.55, 8.16 47.59, 4.36 42.62 C0.57 37.65, -1.51 31.22, -0.78 25.46 C-0.06 19.7, 3.04 12.23, 8.72 8.07 C14.4 3.91, 28.3 1.61, 33.3 0.52 C38.3 -0.57, 38.86 1.27, 38.7 1.53 M26.57 0.92 C32.12 0.12, 39.26 2.87, 44.33 5.92 C49.41 8.98, 55.24 13.95, 57.02 19.24 C58.8 24.53, 57.61 32.24, 55.03 37.65 C52.46 43.06, 47.15 48.73, 41.56 51.71 C35.98 54.69, 27.75 56.67, 21.52 55.52 C15.29 54.38, 7.76 49.74, 4.19 44.84 C0.62 39.93, -0.55 32.03, 0.1 26.09 C0.75 20.15, 3.56 13.53, 8.07 9.19 C12.58 4.85, 24.03 1.59, 27.16 0.05 C30.29 -1.49, 26.96 -0.5, 26.84 -0.06" stroke="none" stroke-width="0" fill="#a5d8ff"></path><path d="M20.39 1.7 C26 -0.13, 34.83 -0.1, 40.64 2.13 C46.45 4.36, 52.39 9.8, 55.26 15.09 C58.12 20.37, 59.47 27.96, 57.83 33.84 C56.19 39.71, 50.6 46.78, 45.44 50.36 C40.28 53.94, 32.96 55.66, 26.89 55.31 C20.81 54.96, 13.45 52.36, 9 48.24 C4.55 44.13, 0.83 36.51, 0.2 30.63 C-0.42 24.74, 0.85 18.1, 5.24 12.93 C9.63 7.77, 22.18 1.54, 26.55 -0.37 C30.92 -2.27, 31.58 1.1, 31.48 1.49 M34.02 -1.07 C39.61 -0.52, 46.58 5.31, 50.38 10.09 C54.18 14.87, 56.6 21.55, 56.83 27.62 C57.05 33.68, 55.42 42.11, 51.73 46.49 C48.05 50.87, 40.77 52.69, 34.72 53.9 C28.68 55.12, 21.15 56.59, 15.45 53.79 C9.74 50.98, 2.68 42.77, 0.5 37.07 C-1.69 31.38, -0.1 25.1, 2.33 19.6 C4.75 14.09, 9.85 7.42, 15.05 4.04 C20.25 0.66, 30.65 -0.13, 33.53 -0.69 C36.41 -1.25, 32.34 0.27, 32.33 0.67" stroke="#1e1e1e" stroke-width="2" fill="none"></path></g><g stroke-linecap="round"><g transform="translate(342.07556582525285 504.44486070445055) rotate(0 -40.39460456780262 26.445695685570172)"><path d="M0 0 C-0.14 1.41, -0.23 4.6, 0 7.25 M0 0 C-0.16 2.45, -0.25 4.15, 0 7.25 M0 7.25 C-0.1 11.4, -3.48 14.43, -7.25 14.49 M0 7.25 C0.07 12.12, -3.51 15.46, -7.25 14.49 M-7.25 14.49 C-27.88 15.77, -47.84 12.33, -64.79 14.49 M-7.25 14.49 C-25.96 13.7, -45.68 14.98, -64.79 14.49 M-64.79 14.49 C-77.01 14.75, -80.56 21.14, -80.79 30.49 M-64.79 14.49 C-75.22 12.24, -80.06 21.95, -80.79 30.49 M-80.79 30.49 C-79.97 36.42, -80.88 39.66, -80.79 52.89 M-80.79 30.49 C-80.67 34.72, -81.24 41.8, -80.79 52.89" stroke="#1e1e1e" stroke-width="2" fill="none"></path></g><g transform="translate(342.07556582525285 504.44486070445055) rotate(0 -40.39460456780262 26.445695685570172)"><path d="M-87.71 34.98 C-86.08 38.38, -84.32 46.45, -80.79 52.89 M-87.71 34.98 C-86 41.06, -84.11 45.18, -80.79 52.89" stroke="#1e1e1e" stroke-width="2" fill="none"></path></g><g transform="translate(342.07556582525285 504.44486070445055) rotate(0 -40.39460456780262 26.445695685570172)"><path d="M-74.58 34.73 C-76.75 38.12, -78.8 46.27, -80.79 52.89 M-74.58 34.73 C-76.9 40.92, -79.04 45.12, -80.79 52.89" stroke="#1e1e1e" stroke-width="2" fill="none"></path></g></g><mask></mask><g stroke-linecap="round"><g transform="translate(261.28635668964944 623.2281717729711) rotate(0 -110.71065355659357 -104.35079704236705)"><path d="M0 0 C-1.15 38.06, -0.25 73.56, 0 152.49 M0 0 C-1.24 49.53, -0.65 100.34, 0 152.49 M0 152.49 C-1.06 163.09, -5.27 168.53, -16 168.49 M0 152.49 C-1.1 164.13, -4.38 168.95, -16 168.49 M-16 168.49 C-72.17 168.33, -125.54 171.54, -234.63 168.49 M-16 168.49 C-87.47 167, -159.06 166.82, -234.63 168.49 M-234.63 168.49 C-245.07 169.81, -250.43 161.2, -250.63 152.49 M-234.63 168.49 C-244.57 170.62, -252.84 161.75, -250.63 152.49 M-250.63 152.49 C-251.6 -27.63, -252.17 -208.37, -250.63 -361.19 M-250.63 152.49 C-251.34 6.41, -251.28 -140.45, -250.63 -361.19 M-250.63 -361.19 C-249.73 -372.79, -246.5 -377.31, -234.63 -377.19 M-250.63 -361.19 C-249.26 -369.68, -243.74 -378.22, -234.63 -377.19 M-234.63 -377.19 C-131.88 -375.53, -33.18 -377.79, 29.21 -377.19 M-234.63 -377.19 C-180.11 -376.69, -125.75 -376.92, 29.21 -377.19" stroke="#1e1e1e" stroke-width="2" fill="none"></path></g><g transform="translate(261.28635668964944 623.2281717729711) rotate(0 -110.71065355659357 -104.35079704236705)"><path d="M5.74 -368.6 C10.69 -369.37, 17.28 -372.92, 29.21 -377.19 M5.74 -368.6 C12.88 -372.39, 21.22 -374.76, 29.21 -377.19" stroke="#1e1e1e" stroke-width="2" fill="none"></path></g><g transform="translate(261.28635668964944 623.2281717729711) rotate(0 -110.71065355659357 -104.35079704236705)"><path d="M5.71 -385.7 C10.62 -382.32, 17.22 -381.73, 29.21 -377.19 M5.71 -385.7 C12.79 -383.85, 21.14 -380.57, 29.21 -377.19" stroke="#1e1e1e" stroke-width="2" fill="none"></path></g></g><mask></mask><g stroke-linecap="round" transform="translate(443.3364789071402 113.1068665986968) rotate(0 7.500038146972656 7.749996185302734)"><path d="M8.39 0.5 C9.89 0.55, 12.29 1.19, 13.47 2.4 C14.65 3.62, 15.56 6.17, 15.49 7.79 C15.42 9.41, 14.23 10.81, 13.07 12.11 C11.91 13.4, 10.06 15.14, 8.52 15.57 C6.98 15.99, 5.16 15.48, 3.84 14.67 C2.53 13.86, 1.22 12.33, 0.65 10.71 C0.07 9.09, -0.09 6.62, 0.37 4.94 C0.83 3.26, 2.03 1.41, 3.42 0.66 C4.82 -0.1, 7.79 0.44, 8.73 0.43 C9.67 0.42, 9.03 0.56, 9.07 0.6 M8.79 -0.56 C10.26 -0.37, 12.27 0.89, 13.24 2.36 C14.22 3.82, 14.81 6.45, 14.66 8.24 C14.5 10.03, 13.34 11.9, 12.33 13.09 C11.31 14.28, 10.02 15.12, 8.56 15.37 C7.09 15.61, 4.81 15.45, 3.56 14.57 C2.31 13.68, 1.48 11.76, 1.07 10.07 C0.65 8.38, 0.55 5.99, 1.06 4.44 C1.58 2.9, 2.93 1.42, 4.17 0.79 C5.42 0.16, 7.86 0.75, 8.55 0.67 C9.24 0.58, 8.26 0.37, 8.31 0.3" stroke="none" stroke-width="0" fill="#1e1e1e"></path><path d="M7.46 -0.31 C8.89 -0.46, 10.44 0.54, 11.64 1.56 C12.84 2.57, 14.23 4.15, 14.65 5.78 C15.07 7.41, 14.86 9.84, 14.15 11.32 C13.44 12.8, 11.85 13.99, 10.4 14.66 C8.96 15.33, 7 15.85, 5.48 15.36 C3.96 14.86, 2.23 13.06, 1.29 11.7 C0.35 10.33, -0.32 8.84, -0.19 7.16 C-0.05 5.47, 0.78 2.7, 2.09 1.58 C3.4 0.47, 6.68 0.66, 7.66 0.45 C8.65 0.24, 8.09 0.31, 7.99 0.34 M8.22 0.52 C9.86 0.42, 11.7 0.31, 12.86 1.52 C14.03 2.72, 15.19 6.04, 15.21 7.74 C15.22 9.44, 13.83 10.41, 12.94 11.72 C12.04 13.02, 11.19 15.08, 9.84 15.59 C8.5 16.1, 6.38 15.64, 4.86 14.8 C3.34 13.96, 1.58 12.06, 0.72 10.53 C-0.13 9.01, -0.74 7.29, -0.29 5.66 C0.15 4.02, 2.03 1.52, 3.39 0.7 C4.76 -0.12, 7.14 0.83, 7.91 0.74 C8.68 0.65, 7.93 0.2, 8.01 0.15" stroke="#1e1e1e" stroke-width="2" fill="none"></path></g><g stroke-linecap="round" transform="translate(631.5031354012808 109.19020883298799) rotate(0 7.500038146972656 7.749996185302734)"><path d="M9.12 -0.1 C10.76 0.03, 12.78 1.76, 13.71 2.98 C14.65 4.2, 14.86 5.58, 14.7 7.24 C14.55 8.9, 13.79 11.55, 12.8 12.92 C11.81 14.3, 10.25 15.21, 8.77 15.49 C7.28 15.77, 5.29 15.5, 3.91 14.6 C2.52 13.7, 1.05 11.75, 0.44 10.09 C-0.16 8.43, -0.25 6.11, 0.28 4.65 C0.8 3.19, 2.09 2.05, 3.61 1.36 C5.12 0.67, 8.28 0.68, 9.36 0.5 C10.43 0.33, 10.03 0.22, 10.06 0.31 M6.33 -0.56 C7.82 -0.71, 9.91 0.39, 11.18 1.41 C12.44 2.43, 13.36 4.01, 13.91 5.55 C14.46 7.09, 14.94 9.09, 14.46 10.64 C13.98 12.19, 12.33 14.1, 11.02 14.87 C9.71 15.64, 8.09 15.72, 6.6 15.26 C5.11 14.79, 3.14 13.41, 2.07 12.09 C1.01 10.77, 0.3 8.83, 0.19 7.32 C0.09 5.81, 0.5 4.23, 1.44 3.02 C2.37 1.81, 4.94 0.63, 5.78 0.05 C6.62 -0.54, 6.26 -0.63, 6.46 -0.48" stroke="none" stroke-width="0" fill="#1e1e1e"></path><path d="M6.36 0.01 C7.79 -0.23, 10.17 0.14, 11.56 1.09 C12.95 2.03, 14.24 4.07, 14.71 5.67 C15.17 7.28, 14.97 9.16, 14.34 10.71 C13.72 12.25, 12.39 14.22, 10.96 14.94 C9.52 15.66, 7.37 15.4, 5.74 15.02 C4.11 14.64, 2.17 14.04, 1.16 12.66 C0.15 11.27, -0.49 8.34, -0.3 6.69 C-0.11 5.04, 1.04 3.87, 2.29 2.78 C3.54 1.7, 6.43 0.65, 7.21 0.19 C7.98 -0.28, 6.92 -0.04, 6.93 0 M7.82 -0.73 C9.37 -0.74, 11.68 1.52, 12.74 2.67 C13.81 3.82, 13.95 4.6, 14.2 6.19 C14.46 7.78, 14.89 10.71, 14.25 12.2 C13.61 13.69, 11.93 14.76, 10.34 15.13 C8.76 15.5, 6.39 15.07, 4.72 14.43 C3.05 13.79, 1.07 12.79, 0.35 11.29 C-0.38 9.8, -0.01 6.93, 0.37 5.44 C0.76 3.96, 1.44 3.28, 2.65 2.37 C3.86 1.46, 6.73 0.4, 7.64 -0.03 C8.54 -0.46, 8.14 -0.32, 8.08 -0.19" stroke="#1e1e1e" stroke-width="2" fill="none"></path></g><g stroke-linecap="round"><g transform="translate(515.048659513116 515.1255876481446) rotate(0 -119.00001525878906 137.39281381879664)"><path d="M0 0 C-0.02 0, -0.05 0, -0.07 0 M0 0 C-0.02 0, -0.04 0, -0.07 0 M-0.07 0 C0.71 0.4, -1.11 -0.96, -0.14 0.07 M-0.07 0 C1.67 -1.49, -2.32 0.74, -0.14 0.07 M-0.14 0.07 C-1.12 100.51, 0.93 200.72, -0.14 258.79 M-0.14 0.07 C0.18 80.24, 0.35 162.73, -0.14 258.79 M-0.14 258.79 C-2.06 268.23, -4.46 275.74, -16.14 274.79 M-0.14 258.79 C1.41 269.5, -5.44 273.2, -16.14 274.79 M-16.14 274.79 C-64.73 274.79, -108.23 275.06, -222 274.79 M-16.14 274.79 C-77.52 273.88, -137.31 274.78, -222 274.79 M-222 274.79 C-231.31 273.89, -236.33 270.85, -238 258.79 M-222 274.79 C-233.66 277.05, -236.9 268.09, -238 258.79 M-238 258.79 C-236.83 227.41, -236.04 195.61, -238 103.68 M-238 258.79 C-237.9 212.64, -236.33 167.03, -238 103.68" stroke="#1e1e1e" stroke-width="2" fill="none"></path></g><g transform="translate(515.048659513116 515.1255876481446) rotate(0 -119.00001525878906 137.39281381879664)"><path d="M-229.11 127.04 C-230.42 119.16, -235.79 113.77, -238 103.68 M-229.11 127.04 C-231.33 120.84, -234.2 115.02, -238 103.68" stroke="#1e1e1e" stroke-width="2" fill="none"></path></g><g transform="translate(515.048659513116 515.1255876481446) rotate(0 -119.00001525878906 137.39281381879664)"><path d="M-246.21 127.29 C-242.71 119.4, -243.28 113.95, -238 103.68 M-246.21 127.29 C-243.87 121.02, -242.19 115.14, -238 103.68" stroke="#1e1e1e" stroke-width="2" fill="none"></path></g></g><mask></mask></svg>