<?xml version="1.0" encoding="UTF-8" standalone="no"?>
<!DOCTYPE svg PUBLIC "-//W3C//DTD SVG 1.0//EN"
 "http://www.w3.org/TR/2001/REC-SVG-20010904/DTD/svg10.dtd" [
 <!ATTLIST svg xmlns:xlink CDATA #FIXED "http://www.w3.org/1999/xlink">
]>
<!-- Generated by dot version 2.7.20060111.0540 (Fri Sep  3 08:16:42 UTC 2010)
     For user: (guyamir) Guy Amir,,, -->
<!-- Title: NetworkSystem Pages: 1 -->
<svg width="1692px" height="713px"
 viewBox = "0 0 1269 535"
 xmlns="http://www.w3.org/2000/svg" xmlns:xlink="http://www.w3.org/1999/xlink">
<g id="graph0" class="graph" style="font-family:Times-Roman;font-size:14.00;">
<title>NetworkSystem</title>
<polygon style="fill:white;stroke:white;" points="0,535 0,-11 1280,-11 1280,535 0,535"/>
<g id="graph2" class="cluster"><title>cluster_serialized</title>
<polygon style="fill:none;stroke:black;stroke-dasharray:5,2;" points="16,280 380,280 380,16 16,16 16,280"/>
<text text-anchor="middle" x="199" y="39">Serialized Automaton</text>
</g>
<!-- L__count__0_active -->
<g id="node1" class="node"><title>L__count__0_active</title>
<ellipse style="fill:lightblue;stroke:black;" cx="1083" cy="154" rx="43" ry="18"/>
<text text-anchor="middle" x="1083" y="158" style="font-size:10.00;">[count] 0 active</text>
</g>
<!-- RESP_0 -->
<g id="node11" class="node"><title>RESP_0</title>
<polygon style="fill:salmon;stroke:black;" points="1228,127 1192,154 1228,180 1264,154 1228,127"/>
<text text-anchor="middle" x="1228" y="158" style="font-size:10.00;">0</text>
</g>
<!-- L__count__0_active&#45;&gt;RESP_0 -->
<g id="edge6" class="edge"><title>L__count__0_active&#45;&gt;RESP_0</title>
<path style="fill:none;stroke:black;stroke-dasharray:5,2;" d="M1141,154C1153,154 1167,154 1179,154"/>
<polygon style="fill:black;stroke:black;" points="1179,148 1192,154 1179,158 1179,148"/>
</g>
<!-- L__snapshot__active___N2_ -->
<g id="node2" class="node"><title>L__snapshot__active___N2_</title>
<ellipse style="fill:lightblue;stroke:black;" cx="616" cy="479" rx="58" ry="18"/>
<text text-anchor="middle" x="616" y="483" style="font-size:10.00;">[snapshot] active: (N2)</text>
</g>
<!-- L__count__1_active -->
<g id="node8" class="node"><title>L__count__1_active</title>
<ellipse style="fill:lightblue;stroke:black;" cx="1083" cy="403" rx="43" ry="18"/>
<text text-anchor="middle" x="1083" y="407" style="font-size:10.00;">[count] 1 active</text>
</g>
<!-- L__snapshot__active___N2_&#45;&gt;L__count__1_active -->
<g id="edge42" class="edge"><title>L__snapshot__active___N2_&#45;&gt;L__count__1_active</title>
<path style="fill:none;stroke:blue;" d="M685,468C773,454 927,428 1015,415"/>
<polygon style="fill:blue;stroke:blue;" points="1015,411 1028,412 1016,419 1015,411"/>
<text text-anchor="middle" x="875" y="423" style="font-size:10.00;">N2 → N2</text>
</g>
<!-- L__snapshot__active___N1_ -->
<g id="node3" class="node"><title>L__snapshot__active___N1_</title>
<ellipse style="fill:lightblue;stroke:black;" cx="616" cy="396" rx="58" ry="18"/>
<text text-anchor="middle" x="616" y="400" style="font-size:10.00;">[snapshot] active: (N1)</text>
</g>
<!-- L__snapshot__active___N1_&#45;&gt;L__count__1_active -->
<g id="edge40" class="edge"><title>L__snapshot__active___N1_&#45;&gt;L__count__1_active</title>
<path style="fill:none;stroke:blue;" d="M693,398C781,399 925,400 1011,402"/>
<polygon style="fill:blue;stroke:blue;" points="1011,396 1024,402 1011,406 1011,396"/>
<text text-anchor="middle" x="875" y="394" style="font-size:10.00;">N1 → N1</text>
</g>
<!-- L_before_snapshot -->
<g id="node4" class="node"><title>L_before_snapshot</title>
<ellipse style="fill:lightblue;stroke:black;" cx="333" cy="319" rx="43" ry="18"/>
<text text-anchor="middle" x="333" y="323" style="font-size:10.00;">before snapshot</text>
</g>
<!-- L_before_snapshot&#45;&gt;L__snapshot__active___N2_ -->
<g id="edge12" class="edge"><title>L_before_snapshot&#45;&gt;L__snapshot__active___N2_</title>
<path style="fill:none;stroke:blue;" d="M359,340C375,354 396,371 416,384 461,412 516,436 557,455"/>
<polygon style="fill:blue;stroke:blue;" points="559,451 569,460 555,459 559,451"/>
<text text-anchor="middle" x="460" y="376" style="font-size:10.00;">N2 → N2</text>
</g>
<!-- L_before_snapshot&#45;&gt;L__snapshot__active___N1_ -->
<g id="edge10" class="edge"><title>L_before_snapshot&#45;&gt;L__snapshot__active___N1_</title>
<path style="fill:none;stroke:blue;" d="M381,332C427,344 493,363 544,376"/>
<polygon style="fill:blue;stroke:blue;" points="545,372 557,380 543,380 545,372"/>
<text text-anchor="middle" x="460" y="336" style="font-size:10.00;">N1 → N1</text>
</g>
<!-- L__snapshot__active___N1_N2_ -->
<g id="node5" class="node"><title>L__snapshot__active___N1_N2_</title>
<ellipse style="fill:lightblue;stroke:black;" cx="616" cy="247" rx="65" ry="18"/>
<text text-anchor="middle" x="616" y="251" style="font-size:10.00;">[snapshot] active: (N1,N2)</text>
</g>
<!-- L_before_snapshot&#45;&gt;L__snapshot__active___N1_N2_ -->
<g id="edge8" class="edge"><title>L_before_snapshot&#45;&gt;L__snapshot__active___N1_N2_</title>
<path style="fill:none;stroke:blue;" d="M383,306C425,295 488,279 539,267"/>
<polygon style="fill:blue;stroke:blue;" points="537,263 552,263 540,271 537,263"/>
<text text-anchor="middle" x="460" y="271" style="font-size:10.00;">N1,N2 → N1,N2</text>
</g>
<!-- L__snapshot__active____ -->
<g id="node7" class="node"><title>L__snapshot__active____</title>
<ellipse style="fill:lightblue;stroke:black;" cx="616" cy="100" rx="52" ry="18"/>
<text text-anchor="middle" x="616" y="104" style="font-size:10.00;">[snapshot] active: ()</text>
</g>
<!-- L_before_snapshot&#45;&gt;L__snapshot__active____ -->
<g id="edge14" class="edge"><title>L_before_snapshot&#45;&gt;L__snapshot__active____</title>
<path style="fill:none;stroke:blue;" d="M371,300C379,296 385,291 392,286 407,274 404,266 416,254 465,204 529,159 572,130"/>
<polygon style="fill:blue;stroke:blue;" points="569,126 583,122 575,134 569,126"/>
<text text-anchor="middle" x="460" y="175" style="font-size:10.00;">_ → _</text>
</g>
<!-- L_deactivate_N2 -->
<g id="node6" class="node"><title>L_deactivate_N2</title>
<ellipse style="fill:lightblue;stroke:black;" cx="875" cy="294" rx="39" ry="18"/>
<text text-anchor="middle" x="875" y="298" style="font-size:10.00;">deactivate N2</text>
</g>
<!-- L__snapshot__active___N1_N2_&#45;&gt;L_deactivate_N2 -->
<g id="edge24" class="edge"><title>L__snapshot__active___N1_N2_&#45;&gt;L_deactivate_N2</title>
<path style="fill:none;stroke:blue;" d="M693,258C725,263 764,270 797,276 803,278 808,278 815,280"/>
<polygon style="fill:blue;stroke:blue;" points="816,276 828,283 815,284 816,276"/>
<text text-anchor="middle" x="763" y="258" style="font-size:10.00;">N1,N2 → N1</text>
</g>
<!-- L__snapshot__active___N1_N2_&#45;&gt;L_deactivate_N2 -->
<g id="edge26" class="edge"><title>L__snapshot__active___N1_N2_&#45;&gt;L_deactivate_N2</title>
<path style="fill:none;stroke:blue;" d="M656,268C676,279 703,291 728,296 753,302 784,303 809,302"/>
<polygon style="fill:blue;stroke:blue;" points="809,298 823,300 809,306 809,298"/>
<text text-anchor="middle" x="763" y="288" style="font-size:10.00;">N1 → N1</text>
</g>
<!-- L__snapshot__active___N1_N2_&#45;&gt;L_deactivate_N2 -->
<g id="edge28" class="edge"><title>L__snapshot__active___N1_N2_&#45;&gt;L_deactivate_N2</title>
<path style="fill:none;stroke:blue;" d="M643,270C664,288 696,311 728,322 759,331 796,324 824,315"/>
<polygon style="fill:blue;stroke:blue;" points="823,311 837,311 825,319 823,311"/>
<text text-anchor="middle" x="763" y="314" style="font-size:10.00;">N2 → _</text>
</g>
<!-- L__snapshot__active___N1_N2_&#45;&gt;L_deactivate_N2 -->
<g id="edge30" class="edge"><title>L__snapshot__active___N1_N2_&#45;&gt;L_deactivate_N2</title>
<path style="fill:none;stroke:blue;" d="M635,271C655,295 689,331 728,346 757,356 768,354 797,346 812,340 827,332 840,323"/>
<polygon style="fill:blue;stroke:blue;" points="837,319 851,315 843,327 837,319"/>
<text text-anchor="middle" x="763" y="338" style="font-size:10.00;">_ → _</text>
</g>
<!-- L_deactivate_N1 -->
<g id="node9" class="node"><title>L_deactivate_N1</title>
<ellipse style="fill:lightblue;stroke:black;" cx="875" cy="154" rx="39" ry="18"/>
<text text-anchor="middle" x="875" y="158" style="font-size:10.00;">deactivate N1</text>
</g>
<!-- L__snapshot__active___N1_N2_&#45;&gt;L_deactivate_N1 -->
<g id="edge22" class="edge"><title>L__snapshot__active___N1_N2_&#45;&gt;L_deactivate_N1</title>
<path style="fill:none;stroke:blue;" d="M691,235C724,227 764,218 797,203 811,198 824,190 836,182"/>
<polygon style="fill:blue;stroke:blue;" points="835,178 848,175 839,186 835,178"/>
<text text-anchor="middle" x="763" y="199" style="font-size:10.00;">_ → _</text>
</g>
<!-- L__snapshot__active___N1_N2_&#45;&gt;L_deactivate_N1 -->
<g id="edge16" class="edge"><title>L__snapshot__active___N1_N2_&#45;&gt;L_deactivate_N1</title>
<path style="fill:none;stroke:blue;" d="M637,223C656,202 684,168 704,136 717,116 709,102 728,90 755,72 769,79 797,90 816,96 832,110 847,122"/>
<polygon style="fill:blue;stroke:blue;" points="849,118 856,131 843,124 849,118"/>
<text text-anchor="middle" x="763" y="74" style="font-size:10.00;">N1,N2 → N2</text>
</g>
<!-- L__snapshot__active___N1_N2_&#45;&gt;L_deactivate_N1 -->
<g id="edge18" class="edge"><title>L__snapshot__active___N1_N2_&#45;&gt;L_deactivate_N1</title>
<path style="fill:none;stroke:blue;" d="M632,223C651,196 685,154 728,136 757,124 792,128 820,135"/>
<polygon style="fill:blue;stroke:blue;" points="821,131 833,138 820,139 821,131"/>
<text text-anchor="middle" x="763" y="122" style="font-size:10.00;">N2 → N2</text>
</g>
<!-- L__snapshot__active___N1_N2_&#45;&gt;L_deactivate_N1 -->
<g id="edge20" class="edge"><title>L__snapshot__active___N1_N2_&#45;&gt;L_deactivate_N1</title>
<path style="fill:none;stroke:blue;" d="M648,224C671,211 700,194 728,183 753,172 784,167 809,162"/>
<polygon style="fill:blue;stroke:blue;" points="809,158 823,159 811,166 809,158"/>
<text text-anchor="middle" x="763" y="158" style="font-size:10.00;">N1 → _</text>
</g>
<!-- L_deactivate_N2&#45;&gt;L__count__0_active -->
<g id="edge38" class="edge"><title>L_deactivate_N2&#45;&gt;L__count__0_active</title>
<path style="fill:none;stroke:blue;" d="M928,291C952,288 979,282 1000,268 1029,248 1053,215 1067,190"/>
<polygon style="fill:blue;stroke:blue;" points="1063,188 1072,178 1071,192 1063,188"/>
<text text-anchor="middle" x="976" y="264" style="font-size:10.00;">_ → _</text>
</g>
<!-- L_deactivate_N2&#45;&gt;L__count__1_active -->
<g id="edge36" class="edge"><title>L_deactivate_N2&#45;&gt;L__count__1_active</title>
<path style="fill:none;stroke:blue;" d="M909,312C944,331 996,358 1035,378"/>
<polygon style="fill:blue;stroke:blue;" points="1037,374 1047,384 1033,382 1037,374"/>
<text text-anchor="middle" x="976" y="330" style="font-size:10.00;">N1 → N1</text>
</g>
<!-- L__snapshot__active____&#45;&gt;L__count__0_active -->
<g id="edge44" class="edge"><title>L__snapshot__active____&#45;&gt;L__count__0_active</title>
<path style="fill:none;stroke:blue;" d="M656,80C676,71 703,60 728,56 759,50 768,51 797,56 883,70 976,107 1032,130"/>
<polygon style="fill:blue;stroke:blue;" points="1033,126 1044,135 1029,134 1033,126"/>
<text text-anchor="middle" x="875" y="55" style="font-size:10.00;">_ → _</text>
</g>
<!-- RESP_1 -->
<g id="node12" class="node"><title>RESP_1</title>
<polygon style="fill:salmon;stroke:black;" points="1228,376 1192,403 1228,430 1264,403 1228,376"/>
<text text-anchor="middle" x="1228" y="407" style="font-size:10.00;">1</text>
</g>
<!-- L__count__1_active&#45;&gt;RESP_1 -->
<g id="edge4" class="edge"><title>L__count__1_active&#45;&gt;RESP_1</title>
<path style="fill:none;stroke:black;stroke-dasharray:5,2;" d="M1141,403C1153,403 1167,403 1179,403"/>
<polygon style="fill:black;stroke:black;" points="1179,398 1192,403 1179,407 1179,398"/>
</g>
<!-- L_deactivate_N1&#45;&gt;L__count__0_active -->
<g id="edge34" class="edge"><title>L_deactivate_N1&#45;&gt;L__count__0_active</title>
<path style="fill:none;stroke:blue;" d="M928,154C953,154 984,154 1011,154"/>
<polygon style="fill:blue;stroke:blue;" points="1011,148 1024,154 1011,158 1011,148"/>
<text text-anchor="middle" x="976" y="150" style="font-size:10.00;">_ → _</text>
</g>
<!-- L_deactivate_N1&#45;&gt;L__count__1_active -->
<g id="edge32" class="edge"><title>L_deactivate_N1&#45;&gt;L__count__1_active</title>
<path style="fill:none;stroke:blue;" d="M907,174C933,191 973,220 1000,252 1031,286 1053,334 1068,367"/>
<polygon style="fill:blue;stroke:blue;" points="1072,364 1073,379 1064,368 1072,364"/>
<text text-anchor="middle" x="976" y="198" style="font-size:10.00;">N2 → N2</text>
</g>
<!-- REQ_main -->
<g id="node10" class="node"><title>REQ_main</title>
<polygon style="fill:lightgreen;stroke:black;" points="105,292 65,319 105,346 145,319 105,292"/>
<text text-anchor="middle" x="105" y="323" style="font-size:10.00;">main</text>
</g>
<!-- REQ_main&#45;&gt;L_before_snapshot -->
<g id="edge2" class="edge"><title>REQ_main&#45;&gt;L_before_snapshot</title>
<path style="fill:none;stroke:black;stroke-dasharray:5,2;" d="M147,319C179,319 224,319 261,319"/>
<polygon style="fill:black;stroke:black;" points="261,314 275,319 261,323 261,314"/>
</g>
<!-- G__ -->
<g id="node36" class="node"><title>G__</title>
<polygon style="fill:lightblue;stroke:lightblue;" points="92,120 81,127 81,147 92,154 117,154 128,147 128,127 117,120 92,120"/>
<path style="fill:lightblue;stroke:lightblue;" d="M81,127C75,132 75,142 81,147"/>
<path style="fill:lightblue;stroke:lightblue;" d="M92,154C99,159 111,159 117,154"/>
<path style="fill:lightblue;stroke:lightblue;" d="M128,147C135,142 135,132 128,127"/>
<path style="fill:lightblue;stroke:lightblue;" d="M117,120C111,115 99,115 92,120"/>
<polyline style="fill:none;stroke:black;" points="92,120 81,127 "/>
<path style="fill:none;stroke:black;" d="M81,127C75,132 75,142 81,147"/>
<polyline style="fill:none;stroke:black;" points="81,147 92,154 "/>
<path style="fill:none;stroke:black;" d="M92,154C99,159 111,159 117,154"/>
<polyline style="fill:none;stroke:black;" points="117,154 128,147 "/>
<path style="fill:none;stroke:black;" d="M128,147C135,142 135,132 128,127"/>
<polyline style="fill:none;stroke:black;" points="128,127 117,120 "/>
<path style="fill:none;stroke:black;" d="M117,120C111,115 99,115 92,120"/>
<text text-anchor="middle" x="105" y="140" style="font-size:10.00;">_</text>
</g>
<!-- G__&#45;&gt;G__ -->
<g id="edge55" class="edge"><title>G__&#45;&gt;G__</title>
<path style="fill:none;stroke:black;" d="M80,127C45,110 53,86 105,86 151,86 163,104 143,120"/>
<polygon style="fill:black;stroke:black;" points="144,124 131,127 140,116 144,124"/>
<text text-anchor="middle" x="105" y="82" style="font-size:10.00;">main / 0</text>
</g>
<!-- G_N1 -->
<g id="node37" class="node"><title>G_N1</title>
<polygon style="fill:lightblue;stroke:lightblue;" points="320,227 309,234 309,254 320,260 345,260 356,254 356,234 345,227 320,227"/>
<path style="fill:lightblue;stroke:lightblue;" d="M309,234C303,239 303,248 309,254"/>
<path style="fill:lightblue;stroke:lightblue;" d="M320,260C327,266 339,266 345,260"/>
<path style="fill:lightblue;stroke:lightblue;" d="M356,254C363,248 363,239 356,234"/>
<path style="fill:lightblue;stroke:lightblue;" d="M345,227C339,222 327,222 320,227"/>
<polyline style="fill:none;stroke:black;" points="320,227 309,234 "/>
<path style="fill:none;stroke:black;" d="M309,234C303,239 303,248 309,254"/>
<polyline style="fill:none;stroke:black;" points="309,254 320,260 "/>
<path style="fill:none;stroke:black;" d="M320,260C327,266 339,266 345,260"/>
<polyline style="fill:none;stroke:black;" points="345,260 356,254 "/>
<path style="fill:none;stroke:black;" d="M356,254C363,248 363,239 356,234"/>
<polyline style="fill:none;stroke:black;" points="356,234 345,227 "/>
<path style="fill:none;stroke:black;" d="M345,227C339,222 327,222 320,227"/>
<text text-anchor="middle" x="333" y="247" style="font-size:10.00;">N1</text>
</g>
<!-- G_N1&#45;&gt;G_N1 -->
<g id="edge51" class="edge"><title>G_N1&#45;&gt;G_N1</title>
<path style="fill:none;stroke:black;" d="M311,232C283,215 291,192 333,192 369,192 380,208 367,224"/>
<polygon style="fill:black;stroke:black;" points="369,228 356,232 364,220 369,228"/>
<text text-anchor="middle" x="333" y="188" style="font-size:10.00;">main / 1</text>
</g>
<!-- G_N2 -->
<g id="node38" class="node"><title>G_N2</title>
<polygon style="fill:lightblue;stroke:lightblue;" points="320,110 309,116 309,136 320,143 345,143 356,136 356,116 345,110 320,110"/>
<path style="fill:lightblue;stroke:lightblue;" d="M309,116C303,122 303,131 309,136"/>
<path style="fill:lightblue;stroke:lightblue;" d="M320,143C327,148 339,148 345,143"/>
<path style="fill:lightblue;stroke:lightblue;" d="M356,136C363,131 363,122 356,116"/>
<path style="fill:lightblue;stroke:lightblue;" d="M345,110C339,104 327,104 320,110"/>
<polyline style="fill:none;stroke:black;" points="320,110 309,116 "/>
<path style="fill:none;stroke:black;" d="M309,116C303,122 303,131 309,136"/>
<polyline style="fill:none;stroke:black;" points="309,136 320,143 "/>
<path style="fill:none;stroke:black;" d="M320,143C327,148 339,148 345,143"/>
<polyline style="fill:none;stroke:black;" points="345,143 356,136 "/>
<path style="fill:none;stroke:black;" d="M356,136C363,131 363,122 356,116"/>
<polyline style="fill:none;stroke:black;" points="356,116 345,110 "/>
<path style="fill:none;stroke:black;" d="M345,110C339,104 327,104 320,110"/>
<text text-anchor="middle" x="333" y="130" style="font-size:10.00;">N2</text>
</g>
<!-- G_N2&#45;&gt;G_N2 -->
<g id="edge53" class="edge"><title>G_N2&#45;&gt;G_N2</title>
<path style="fill:none;stroke:black;" d="M311,115C283,98 291,75 333,75 369,75 380,91 367,107"/>
<polygon style="fill:black;stroke:black;" points="369,111 356,115 364,103 369,111"/>
<text text-anchor="middle" x="333" y="71" style="font-size:10.00;">main / 1</text>
</g>
<!-- G_N1_N2 -->
<g id="node39" class="node"><title>G_N1_N2</title>
<polygon style="fill:lightblue;stroke:lightblue;" points="89,202 41,219 41,228 89,246 120,246 168,228 168,219 120,202 89,202"/>
<path style="fill:lightblue;stroke:lightblue;" d="M41,219C33,222 33,226 41,228"/>
<path style="fill:lightblue;stroke:lightblue;" d="M89,246C97,248 112,248 120,246"/>
<path style="fill:lightblue;stroke:lightblue;" d="M168,228C176,226 176,222 168,219"/>
<path style="fill:lightblue;stroke:lightblue;" d="M120,202C112,199 97,199 89,202"/>
<polyline style="fill:none;stroke:darkgreen;" points="89,202 41,219 "/>
<path style="fill:none;stroke:darkgreen;" d="M41,219C33,222 33,226 41,228"/>
<polyline style="fill:none;stroke:darkgreen;" points="41,228 89,246 "/>
<path style="fill:none;stroke:darkgreen;" d="M89,246C97,248 112,248 120,246"/>
<polyline style="fill:none;stroke:darkgreen;" points="120,246 168,228 "/>
<path style="fill:none;stroke:darkgreen;" d="M168,228C176,226 176,222 168,219"/>
<polyline style="fill:none;stroke:darkgreen;" points="168,219 120,202 "/>
<path style="fill:none;stroke:darkgreen;" d="M120,202C112,199 97,199 89,202"/>
<text text-anchor="middle" x="105" y="227" style="font-size:10.00;">N1,N2 (initial)</text>
</g>
<!-- G_N1_N2&#45;&gt;G_N1 -->
<g id="edge49" class="edge"><title>G_N1_N2&#45;&gt;G_N1</title>
<path style="fill:none;stroke:black;" d="M168,228C205,232 253,236 288,239"/>
<polygon style="fill:black;stroke:black;" points="288,235 301,240 288,243 288,235"/>
<text text-anchor="middle" x="229" y="226" style="font-size:10.00;">main / 1</text>
</g>
<!-- G_N1_N2&#45;&gt;G_N2 -->
<g id="edge47" class="edge"><title>G_N1_N2&#45;&gt;G_N2</title>
<path style="fill:none;stroke:black;" d="M140,208C183,190 255,159 299,140"/>
<polygon style="fill:black;stroke:black;" points="296,136 311,135 300,144 296,136"/>
<text text-anchor="middle" x="229" y="158" style="font-size:10.00;">main / 1</text>
</g>
</g>
</svg>
