<?xml version="1.0" encoding="UTF-8" standalone="no"?>
<!DOCTYPE svg PUBLIC "-//W3C//DTD SVG 1.0//EN"
 "http://www.w3.org/TR/2001/REC-SVG-20010904/DTD/svg10.dtd" [
 <!ATTLIST svg xmlns:xlink CDATA #FIXED "http://www.w3.org/1999/xlink">
]>
<!-- Generated by dot version 2.7.20060111.0540 (Fri Sep  3 08:16:42 UTC 2010)
     For user: (guyamir) Guy Amir,,, -->
<!-- Title: NetworkSystem Pages: 1 -->
<svg width="1706px" height="702px"
 viewBox = "0 0 1280 527"
 xmlns="http://www.w3.org/2000/svg" xmlns:xlink="http://www.w3.org/1999/xlink">
<g id="graph0" class="graph" style="font-family:Times-Roman;font-size:14.00;">
<title>NetworkSystem</title>
<polygon style="fill:white;stroke:white;" points="0,527 0,-11 1291,-11 1291,527 0,527"/>
<g id="graph2" class="cluster"><title>cluster_serialized</title>
<polygon style="fill:none;stroke:black;stroke-dasharray:5,2;" points="16,280 380,280 380,16 16,16 16,280"/>
<text text-anchor="middle" x="199" y="39">Serialized Automaton</text>
</g>
<!-- L__snapshot__active___N2_ -->
<g id="node1" class="node"><title>L__snapshot__active___N2_</title>
<ellipse style="fill:lightblue;stroke:black;" cx="616" cy="276" rx="58" ry="18"/>
<text text-anchor="middle" x="616" y="280" style="font-size:10.00;">[snapshot] active: (N2)</text>
</g>
<!-- L__count__1_active -->
<g id="node7" class="node"><title>L__count__1_active</title>
<ellipse style="fill:lightblue;stroke:black;" cx="1093" cy="368" rx="43" ry="18"/>
<text text-anchor="middle" x="1093" y="372" style="font-size:10.00;">[count] 1 active</text>
</g>
<!-- L__snapshot__active___N2_&#45;&gt;L__count__1_active -->
<g id="edge26" class="edge"><title>L__snapshot__active___N2_&#45;&gt;L__count__1_active</title>
<path style="fill:none;stroke:blue;" d="M688,286C768,296 900,316 1011,343 1020,344 1028,347 1036,350"/>
<polygon style="fill:blue;stroke:blue;" points="1037,346 1049,352 1036,354 1037,346"/>
<text text-anchor="middle" x="880" y="299" style="font-size:10.00;">N2 → N2</text>
</g>
<!-- L_deactivate_N2 -->
<g id="node2" class="node"><title>L_deactivate_N2</title>
<ellipse style="fill:lightblue;stroke:black;" cx="880" cy="415" rx="39" ry="18"/>
<text text-anchor="middle" x="880" y="419" style="font-size:10.00;">deactivate N2</text>
</g>
<!-- L_deactivate_N2&#45;&gt;L__count__1_active -->
<g id="edge22" class="edge"><title>L_deactivate_N2&#45;&gt;L__count__1_active</title>
<path style="fill:none;stroke:blue;" d="M928,404C959,399 996,390 1028,383"/>
<polygon style="fill:blue;stroke:blue;" points="1028,379 1041,380 1029,387 1028,379"/>
<text text-anchor="middle" x="987" y="382" style="font-size:10.00;">N1 → N1</text>
</g>
<!-- L__snapshot__active____ -->
<g id="node3" class="node"><title>L__snapshot__active____</title>
<ellipse style="fill:lightblue;stroke:black;" cx="616" cy="204" rx="52" ry="18"/>
<text text-anchor="middle" x="616" y="208" style="font-size:10.00;">[snapshot] active: ()</text>
</g>
<!-- L__count__0_active -->
<g id="node8" class="node"><title>L__count__0_active</title>
<ellipse style="fill:lightblue;stroke:black;" cx="880" cy="204" rx="43" ry="18"/>
<text text-anchor="middle" x="880" y="208" style="font-size:10.00;">[count] 0 active</text>
</g>
<!-- L__snapshot__active____&#45;&gt;L__count__0_active -->
<g id="edge28" class="edge"><title>L__snapshot__active____&#45;&gt;L__count__0_active</title>
<path style="fill:none;stroke:blue;" d="M685,204C723,204 769,204 808,204"/>
<polygon style="fill:blue;stroke:blue;" points="808,199 821,204 808,208 808,199"/>
<text text-anchor="middle" x="763" y="200" style="font-size:10.00;">_ → _</text>
</g>
<!-- L_before_snapshot -->
<g id="node4" class="node"><title>L_before_snapshot</title>
<ellipse style="fill:lightblue;stroke:black;" cx="333" cy="319" rx="43" ry="18"/>
<text text-anchor="middle" x="333" y="323" style="font-size:10.00;">before snapshot</text>
</g>
<!-- L_before_snapshot&#45;&gt;L__snapshot__active___N2_ -->
<g id="edge12" class="edge"><title>L_before_snapshot&#45;&gt;L__snapshot__active___N2_</title>
<path style="fill:none;stroke:blue;" d="M388,311C429,304 485,296 533,290"/>
<polygon style="fill:blue;stroke:blue;" points="533,286 547,287 535,294 533,286"/>
<text text-anchor="middle" x="460" y="288" style="font-size:10.00;">N2 → N2</text>
</g>
<!-- L_before_snapshot&#45;&gt;L__snapshot__active____ -->
<g id="edge14" class="edge"><title>L_before_snapshot&#45;&gt;L__snapshot__active____</title>
<path style="fill:none;stroke:blue;" d="M368,299C376,295 384,290 392,286 404,279 405,275 416,271 457,251 508,235 547,223"/>
<polygon style="fill:blue;stroke:blue;" points="545,219 560,219 548,227 545,219"/>
<text text-anchor="middle" x="460" y="231" style="font-size:10.00;">_ → _</text>
</g>
<!-- L__snapshot__active___N1_ -->
<g id="node5" class="node"><title>L__snapshot__active___N1_</title>
<ellipse style="fill:lightblue;stroke:black;" cx="616" cy="348" rx="58" ry="18"/>
<text text-anchor="middle" x="616" y="352" style="font-size:10.00;">[snapshot] active: (N1)</text>
</g>
<!-- L_before_snapshot&#45;&gt;L__snapshot__active___N1_ -->
<g id="edge10" class="edge"><title>L_before_snapshot&#45;&gt;L__snapshot__active___N1_</title>
<path style="fill:none;stroke:blue;" d="M389,326C399,327 408,327 416,328 452,332 493,336 529,340"/>
<polygon style="fill:blue;stroke:blue;" points="529,336 543,342 529,344 529,336"/>
<text text-anchor="middle" x="460" y="320" style="font-size:10.00;">N1 → N1</text>
</g>
<!-- L__snapshot__active___N1_N2_ -->
<g id="node9" class="node"><title>L__snapshot__active___N1_N2_</title>
<ellipse style="fill:lightblue;stroke:black;" cx="616" cy="420" rx="65" ry="18"/>
<text text-anchor="middle" x="616" y="424" style="font-size:10.00;">[snapshot] active: (N1,N2)</text>
</g>
<!-- L_before_snapshot&#45;&gt;L__snapshot__active___N1_N2_ -->
<g id="edge8" class="edge"><title>L_before_snapshot&#45;&gt;L__snapshot__active___N1_N2_</title>
<path style="fill:none;stroke:blue;" d="M372,338C385,343 401,351 416,356 457,372 505,387 543,399"/>
<polygon style="fill:blue;stroke:blue;" points="544,395 556,403 541,403 544,395"/>
<text text-anchor="middle" x="460" y="348" style="font-size:10.00;">N1,N2 → N1,N2</text>
</g>
<!-- L__snapshot__active___N1_&#45;&gt;L__count__1_active -->
<g id="edge24" class="edge"><title>L__snapshot__active___N1_&#45;&gt;L__count__1_active</title>
<path style="fill:none;stroke:blue;" d="M693,351C772,354 900,359 1011,364 1015,364 1019,364 1023,364"/>
<polygon style="fill:blue;stroke:blue;" points="1023,360 1036,366 1023,368 1023,360"/>
<text text-anchor="middle" x="880" y="350" style="font-size:10.00;">N1 → N1</text>
</g>
<!-- L_deactivate_N1 -->
<g id="node6" class="node"><title>L_deactivate_N1</title>
<ellipse style="fill:lightblue;stroke:black;" cx="880" cy="487" rx="39" ry="18"/>
<text text-anchor="middle" x="880" y="491" style="font-size:10.00;">deactivate N1</text>
</g>
<!-- L_deactivate_N1&#45;&gt;L__count__1_active -->
<g id="edge20" class="edge"><title>L_deactivate_N1&#45;&gt;L__count__1_active</title>
<path style="fill:none;stroke:blue;" d="M915,468C941,455 979,435 1011,416 1023,410 1036,402 1048,395"/>
<polygon style="fill:blue;stroke:blue;" points="1047,391 1060,388 1051,399 1047,391"/>
<text text-anchor="middle" x="987" y="412" style="font-size:10.00;">N2 → N2</text>
</g>
<!-- RESP_1 -->
<g id="node12" class="node"><title>RESP_1</title>
<polygon style="fill:salmon;stroke:black;" points="1239,342 1203,368 1239,395 1275,368 1239,342"/>
<text text-anchor="middle" x="1239" y="372" style="font-size:10.00;">1</text>
</g>
<!-- L__count__1_active&#45;&gt;RESP_1 -->
<g id="edge4" class="edge"><title>L__count__1_active&#45;&gt;RESP_1</title>
<path style="fill:none;stroke:black;stroke-dasharray:5,2;" d="M1152,368C1164,368 1177,368 1189,368"/>
<polygon style="fill:black;stroke:black;" points="1189,363 1203,368 1189,372 1189,363"/>
</g>
<!-- RESP_0 -->
<g id="node11" class="node"><title>RESP_0</title>
<polygon style="fill:salmon;stroke:black;" points="1093,178 1057,204 1093,231 1129,204 1093,178"/>
<text text-anchor="middle" x="1093" y="208" style="font-size:10.00;">0</text>
</g>
<!-- L__count__0_active&#45;&gt;RESP_0 -->
<g id="edge6" class="edge"><title>L__count__0_active&#45;&gt;RESP_0</title>
<path style="fill:none;stroke:black;stroke-dasharray:5,2;" d="M939,204C971,204 1012,204 1044,204"/>
<polygon style="fill:black;stroke:black;" points="1044,199 1057,204 1044,208 1044,199"/>
</g>
<!-- L__snapshot__active___N1_N2_&#45;&gt;L_deactivate_N2 -->
<g id="edge18" class="edge"><title>L__snapshot__active___N1_N2_&#45;&gt;L_deactivate_N2</title>
<path style="fill:none;stroke:blue;" d="M703,419C739,418 780,418 813,416"/>
<polygon style="fill:blue;stroke:blue;" points="813,411 827,416 813,420 813,411"/>
<text text-anchor="middle" x="763" y="411" style="font-size:10.00;">N1,N2 → N1</text>
</g>
<!-- L__snapshot__active___N1_N2_&#45;&gt;L_deactivate_N1 -->
<g id="edge16" class="edge"><title>L__snapshot__active___N1_N2_&#45;&gt;L_deactivate_N1</title>
<path style="fill:none;stroke:blue;" d="M680,436C723,447 779,462 820,472"/>
<polygon style="fill:blue;stroke:blue;" points="821,468 833,475 820,476 821,468"/>
<text text-anchor="middle" x="763" y="444" style="font-size:10.00;">N1,N2 → N2</text>
</g>
<!-- REQ_main -->
<g id="node10" class="node"><title>REQ_main</title>
<polygon style="fill:lightgreen;stroke:black;" points="105,292 65,319 105,346 145,319 105,292"/>
<text text-anchor="middle" x="105" y="323" style="font-size:10.00;">main</text>
</g>
<!-- REQ_main&#45;&gt;L_before_snapshot -->
<g id="edge2" class="edge"><title>REQ_main&#45;&gt;L_before_snapshot</title>
<path style="fill:none;stroke:black;stroke-dasharray:5,2;" d="M147,319C179,319 224,319 261,319"/>
<polygon style="fill:black;stroke:black;" points="261,314 275,319 261,323 261,314"/>
</g>
<!-- G_N1 -->
<g id="node28" class="node"><title>G_N1</title>
<polygon style="fill:lightblue;stroke:lightblue;" points="320,227 309,234 309,254 320,260 345,260 356,254 356,234 345,227 320,227"/>
<path style="fill:lightblue;stroke:lightblue;" d="M309,234C303,239 303,248 309,254"/>
<path style="fill:lightblue;stroke:lightblue;" d="M320,260C327,266 339,266 345,260"/>
<path style="fill:lightblue;stroke:lightblue;" d="M356,254C363,248 363,239 356,234"/>
<path style="fill:lightblue;stroke:lightblue;" d="M345,227C339,222 327,222 320,227"/>
<polyline style="fill:none;stroke:black;" points="320,227 309,234 "/>
<path style="fill:none;stroke:black;" d="M309,234C303,239 303,248 309,254"/>
<polyline style="fill:none;stroke:black;" points="309,254 320,260 "/>
<path style="fill:none;stroke:black;" d="M320,260C327,266 339,266 345,260"/>
<polyline style="fill:none;stroke:black;" points="345,260 356,254 "/>
<path style="fill:none;stroke:black;" d="M356,254C363,248 363,239 356,234"/>
<polyline style="fill:none;stroke:black;" points="356,234 345,227 "/>
<path style="fill:none;stroke:black;" d="M345,227C339,222 327,222 320,227"/>
<text text-anchor="middle" x="333" y="247" style="font-size:10.00;">N1</text>
</g>
<!-- G_N1&#45;&gt;G_N1 -->
<g id="edge33" class="edge"><title>G_N1&#45;&gt;G_N1</title>
<path style="fill:none;stroke:black;" d="M311,232C283,215 291,192 333,192 369,192 380,208 367,224"/>
<polygon style="fill:black;stroke:black;" points="369,228 356,232 364,220 369,228"/>
<text text-anchor="middle" x="333" y="188" style="font-size:10.00;">main / 1</text>
</g>
<!-- G__ -->
<g id="node29" class="node"><title>G__</title>
<polygon style="fill:lightblue;stroke:lightblue;" points="92,120 81,127 81,147 92,154 117,154 128,147 128,127 117,120 92,120"/>
<path style="fill:lightblue;stroke:lightblue;" d="M81,127C75,132 75,142 81,147"/>
<path style="fill:lightblue;stroke:lightblue;" d="M92,154C99,159 111,159 117,154"/>
<path style="fill:lightblue;stroke:lightblue;" d="M128,147C135,142 135,132 128,127"/>
<path style="fill:lightblue;stroke:lightblue;" d="M117,120C111,115 99,115 92,120"/>
<polyline style="fill:none;stroke:black;" points="92,120 81,127 "/>
<path style="fill:none;stroke:black;" d="M81,127C75,132 75,142 81,147"/>
<polyline style="fill:none;stroke:black;" points="81,147 92,154 "/>
<path style="fill:none;stroke:black;" d="M92,154C99,159 111,159 117,154"/>
<polyline style="fill:none;stroke:black;" points="117,154 128,147 "/>
<path style="fill:none;stroke:black;" d="M128,147C135,142 135,132 128,127"/>
<polyline style="fill:none;stroke:black;" points="128,127 117,120 "/>
<path style="fill:none;stroke:black;" d="M117,120C111,115 99,115 92,120"/>
<text text-anchor="middle" x="105" y="140" style="font-size:10.00;">_</text>
</g>
<!-- G__&#45;&gt;G__ -->
<g id="edge35" class="edge"><title>G__&#45;&gt;G__</title>
<path style="fill:none;stroke:black;" d="M80,127C45,110 53,86 105,86 151,86 163,104 143,120"/>
<polygon style="fill:black;stroke:black;" points="144,124 131,127 140,116 144,124"/>
<text text-anchor="middle" x="105" y="82" style="font-size:10.00;">main / 0</text>
</g>
<!-- G_N2 -->
<g id="node30" class="node"><title>G_N2</title>
<polygon style="fill:lightblue;stroke:lightblue;" points="320,110 309,116 309,136 320,143 345,143 356,136 356,116 345,110 320,110"/>
<path style="fill:lightblue;stroke:lightblue;" d="M309,116C303,122 303,131 309,136"/>
<path style="fill:lightblue;stroke:lightblue;" d="M320,143C327,148 339,148 345,143"/>
<path style="fill:lightblue;stroke:lightblue;" d="M356,136C363,131 363,122 356,116"/>
<path style="fill:lightblue;stroke:lightblue;" d="M345,110C339,104 327,104 320,110"/>
<polyline style="fill:none;stroke:black;" points="320,110 309,116 "/>
<path style="fill:none;stroke:black;" d="M309,116C303,122 303,131 309,136"/>
<polyline style="fill:none;stroke:black;" points="309,136 320,143 "/>
<path style="fill:none;stroke:black;" d="M320,143C327,148 339,148 345,143"/>
<polyline style="fill:none;stroke:black;" points="345,143 356,136 "/>
<path style="fill:none;stroke:black;" d="M356,136C363,131 363,122 356,116"/>
<polyline style="fill:none;stroke:black;" points="356,116 345,110 "/>
<path style="fill:none;stroke:black;" d="M345,110C339,104 327,104 320,110"/>
<text text-anchor="middle" x="333" y="130" style="font-size:10.00;">N2</text>
</g>
<!-- G_N2&#45;&gt;G_N2 -->
<g id="edge31" class="edge"><title>G_N2&#45;&gt;G_N2</title>
<path style="fill:none;stroke:black;" d="M311,115C283,98 291,75 333,75 369,75 380,91 367,107"/>
<polygon style="fill:black;stroke:black;" points="369,111 356,115 364,103 369,111"/>
<text text-anchor="middle" x="333" y="71" style="font-size:10.00;">main / 1</text>
</g>
<!-- G_N1_N2 -->
<g id="node31" class="node"><title>G_N1_N2</title>
<polygon style="fill:lightblue;stroke:lightblue;" points="89,202 41,219 41,228 89,246 120,246 168,228 168,219 120,202 89,202"/>
<path style="fill:lightblue;stroke:lightblue;" d="M41,219C33,222 33,226 41,228"/>
<path style="fill:lightblue;stroke:lightblue;" d="M89,246C97,248 112,248 120,246"/>
<path style="fill:lightblue;stroke:lightblue;" d="M168,228C176,226 176,222 168,219"/>
<path style="fill:lightblue;stroke:lightblue;" d="M120,202C112,199 97,199 89,202"/>
<polyline style="fill:none;stroke:darkgreen;" points="89,202 41,219 "/>
<path style="fill:none;stroke:darkgreen;" d="M41,219C33,222 33,226 41,228"/>
<polyline style="fill:none;stroke:darkgreen;" points="41,228 89,246 "/>
<path style="fill:none;stroke:darkgreen;" d="M89,246C97,248 112,248 120,246"/>
<polyline style="fill:none;stroke:darkgreen;" points="120,246 168,228 "/>
<path style="fill:none;stroke:darkgreen;" d="M168,228C176,226 176,222 168,219"/>
<polyline style="fill:none;stroke:darkgreen;" points="168,219 120,202 "/>
<path style="fill:none;stroke:darkgreen;" d="M120,202C112,199 97,199 89,202"/>
<text text-anchor="middle" x="105" y="227" style="font-size:10.00;">N1,N2 (initial)</text>
</g>
<!-- G_N1_N2&#45;&gt;G_N1 -->
<g id="edge37" class="edge"><title>G_N1_N2&#45;&gt;G_N1</title>
<path style="fill:none;stroke:black;" d="M168,228C205,232 253,236 288,239"/>
<polygon style="fill:black;stroke:black;" points="288,235 301,240 288,243 288,235"/>
<text text-anchor="middle" x="229" y="226" style="font-size:10.00;">main / 1</text>
</g>
<!-- G_N1_N2&#45;&gt;G_N2 -->
<g id="edge39" class="edge"><title>G_N1_N2&#45;&gt;G_N2</title>
<path style="fill:none;stroke:black;" d="M140,208C183,190 255,159 299,140"/>
<polygon style="fill:black;stroke:black;" points="296,136 311,135 300,144 296,136"/>
<text text-anchor="middle" x="229" y="158" style="font-size:10.00;">main / 1</text>
</g>
</g>
</svg>
